SplineFontDB: 3.2
FontName: Cooper-Black
FullName: Cooper* Black
FamilyName: Cooper*
Weight: Black
Copyright: 
Version: 0.1
ItalicAngle: 0
UnderlinePosition: -200
UnderlineWidth: 100
Ascent: 1600
Descent: 400
InvalidEm: 0
LayerCount: 2
Layer: 0 0 "Back" 1
Layer: 1 0 "Fore" 0
XUID: [1021 31 -699969567 16487490]
FSType: 0
OS2Version: 0
OS2_WeightWidthSlopeOnly: 0
OS2_UseTypoMetrics: 1
CreationTime: 1460762150
ModificationTime: 1688941260
PfmFamily: 17
TTFWeight: 400
TTFWidth: 5
LineGap: 0
VLineGap: 0
OS2TypoAscent: 2500
OS2TypoAOffset: 0
OS2TypoDescent: -850
OS2TypoDOffset: 0
OS2TypoLinegap: 0
OS2WinAscent: 2500
OS2WinAOffset: 0
OS2WinDescent: 850
OS2WinDOffset: 0
HheadAscent: 2500
HheadAOffset: 0
HheadDescent: -850
HheadDOffset: 0
OS2CapHeight: 1500
OS2XHeight: 1040
OS2FamilyClass: 256
OS2Vendor: 'it* '
OS2UnicodeRanges: 00000001.00000000.00000000.00000000
Lookup: 3 0 0 "'swsh' Swash in Latin lookup 1" { "'swsh' Swash in Latin lookup 1-1"  } ['swsh' ('DFLT' <'dflt' > 'latn' <'dflt' > ) ]
Lookup: 4 0 1 "'liga' Standard Ligatures lookup" { "'liga' Standard Ligatures lookup"  } ['liga' ('DFLT' <'dflt' > 'grek' <'dflt' > 'latn' <'dflt' > ) ]
Lookup: 258 0 0 "'kern' Horizontal Kerning lookup 0" { "'kern' Horizontal Kerning lookup 0-1" [300,0,4] } ['kern' ('DFLT' <'dflt' > 'grek' <'dflt' > 'latn' <'dflt' > ) ]
MarkAttachClasses: 1
DEI: 91125
KernClass2: 12 12 "'kern' Horizontal Kerning lookup 0-1"
 113 A L Agrave Aacute Acircumflex Atilde Adieresis Aring Amacron Abreve Aogonek Lacute uni013B Lslash uni01CD uni0394
 73 D O Q Eth Ograve Oacute Ocircumflex Otilde Odieresis Oslash Dcaron Dcroat
 10 F P F.swsh
 11 K X uni0136
 107 V W Y Yacute Wcircumflex Ycircumflex Ydieresis Wgrave Wacute Wdieresis uni1E86 uni1E88 Ygrave T.swsh Y.swsh
 88 b o ograve oacute ocircumflex otilde odieresis oslash thorn omacron obreve ohungarumlaut
 48 h m n hbar nacute uni0146 ncaron napostrophe eng

StartChar: zero
Encoding: 48 48 0
Width: 1024
VWidth: 1920
Flags: HMW
LayerCount: 2
Fore
SplineSet
77 636 m 260
 77 990 243 1255 540 1255 c 260
 772 1255 947 1035 947 608 c 260
 947 227 791 -25 501 -25 c 260
 237 -25 77 212 77 636 c 260
532 54 m 260
 671 54 777 290 777 535 c 260
 777 950 664 1177 513 1177 c 260
 370 1177 257 982 257 688 c 260
 257 240 394 54 532 54 c 260
EndSplineSet
Validated: 1
EndChar

StartChar: A
Encoding: 65 65 1
Width: 1714
VWidth: 1920
Flags: HMW
AnchorPoint: "ogonek" 1369 0 basechar 0
AnchorPoint: "bottom" 764 0 basechar 0
AnchorPoint: "top" 764 1400 basechar 0
LayerCount: 2
Fore
SplineSet
499 273 m 6
 496 265 l 6
 492.424804688 255.465820312 492 247 492 240 c 4
 492 225.939453125 498.388671875 217.086914062 511 211.444335938 c 4
 534.646484375 200.862304688 581 192 601 178.620117188 c 4
 618.139648438 167.153320312 628 144.29296875 628 111 c 4
 628 -6 506 -29 313 -29 c 4
 122 -29 0 -19 0 109 c 4
 0 151.11328125 18 175 38.7080078125 188 c 4
 66.8720703125 205.680664062 116 202 150.413085938 239 c 4
 187.00390625 278.340820312 229.33984375 348.342773438 284 472 c 6
 467 886 l 6
 540 1060 545 1156 545 1224 c 4
 545 1345 626 1466 781 1466 c 4
 910 1466 1035 1380 1115 1216 c 4
 1277.171875 883.546875 1387.109375 670.951171875 1527 358 c 4
 1550.02441406 306.4921875 1566.48339844 263.375976562 1588.78027344 244 c 4
 1621 216 1654.09472656 225.7734375 1686.23925781 203 c 4
 1706 189 1714 170.493164062 1714 121 c 4
 1714 82.1435546875 1701.73046875 26.8232421875 1606 -2.2646484375 c 4
 1542.87792969 -21.443359375 1441.77441406 -23 1290 -23 c 4
 1130.18652344 -23 1023.45214844 -21.693359375 958 2.4169921875 c 4
 904.587890625 22.0908203125 878 59.623046875 878 102 c 4
 878 153 892 182 910 193 c 4
 931.33203125 206.036132812 952.701171875 206.381835938 975 217 c 4
 996 227 1001 244 1001 253 c 4
 1001 257 1000.80859375 261.146484375 1000 266 c 6
 999 270 l 6
 996.40625 280.375 988.546875 300.732421875 953 310 c 4
 918.258789062 319.057617188 836 323 757 323 c 4
 688 323 644 318 593 318 c 4
 526.654296875 318 510.30859375 303.15625 499 273 c 6
749 614 m 4
 816 614 872 606 889 606 c 4
 897 606 898 610 898 616 c 4
 898 625 885.463867188 650.138671875 877 665 c 6
 791 816 l 6
 772 850 760 865 743 865 c 4
 725 865 721 854 701 810 c 6
 652 698 l 6
 641.098632812 673.08203125 629 646 629 631 c 4
 629 617 639 613 652 613 c 4
 664 613 682 614 749 614 c 4
EndSplineSet
AlternateSubs2: "'swsh' Swash in Latin lookup 1-1" A.swsh
EndChar

StartChar: B
Encoding: 66 66 2
Width: 1487
VWidth: 1920
Flags: HMW
AnchorPoint: "top" 806 1400 basechar 0
AnchorPoint: "bottom" 827 0 basechar 0
LayerCount: 2
Fore
SplineSet
759 198 m 4
 863 198 913 277 913 387 c 4
 913 507 870.078125 590.563476562 780 598 c 4
 762.49609375 599.4453125 750 600 733 600 c 4
 690 600 673 590 673 549 c 4
 673 504 673 452 673 405 c 4
 673 351 673.3984375 287.803710938 680 258 c 4
 688.206054688 220.950195312 701 198 759 198 c 4
710 819 m 4
 836 819 861 912 861 1032 c 4
 861 1172 795 1216 713 1216 c 4
 662 1216 665.17578125 1194.95019531 663 1139 c 4
 661.28515625 1094.91796875 662 1062 662 1024 c 4
 662 981 662.5859375 884.041992188 664 860 c 4
 666 826 681 819 710 819 c 4
517 -18 m 4
 431 -18 274 -30 179 -30 c 4
 86 -30 39 6 39 61 c 4
 39 124 59.0810546875 144.377929688 108 173 c 4
 168.448242188 208.3671875 190 309 190 670 c 6
 190 880 l 6
 190 1005 186.4765625 1062.71386719 180 1134 c 4
 176.259765625 1175.171875 160 1197 133 1211 c 4
 113.46875 1221.12695312 84.8134765625 1227.20019531 67 1239 c 4
 44.5517578125 1253.87011719 27 1268 27 1322 c 4
 27 1396 80 1440 187 1440 c 4
 255 1440 299 1431 401 1431 c 4
 553 1431 683 1440 842 1440 c 4
 1139 1440 1343 1388 1343 1078 c 4
 1343 982 1304.1328125 903.120117188 1238 843 c 4
 1205 813 1195 798 1195 786 c 4
 1195 773 1220.50585938 757.9765625 1257 741 c 4
 1403.88476562 672.671875 1460 567 1460 428 c 4
 1460 159 1263 -27 932 -27 c 4
 813 -27 631 -18 517 -18 c 4
EndSplineSet
AlternateSubs2: "'swsh' Swash in Latin lookup 1-1" B.swsh
EndChar

StartChar: C
Encoding: 67 67 3
Width: 1476
VWidth: 1920
Flags: HMW
AnchorPoint: "top" 797 1400 basechar 0
AnchorPoint: "bottom" 789 0 basechar 0
LayerCount: 2
Fore
SplineSet
789 -30 m 0
 342 -30 50 278 50 688 c 0
 50 1065 314 1429 799 1429 c 4
 1059 1429 1093 1356 1163 1356 c 4
 1199 1356 1204 1377 1262 1377 c 4
 1372 1377 1449 1171 1449 1005 c 4
 1449 843 1346 789 1251 789 c 4
 1156 789 1126.453125 834.340820312 1078 936 c 4
 1030.14160156 1036.41210938 891 1122 774 1122 c 4
 629 1122 559 1016 559 878 c 4
 559 548 765 356 972 356 c 0
 1122.63378906 356 1186.171875 407.209960938 1263 468.170898438 c 0
 1287.71582031 487.783203125 1310.80859375 502 1347 502 c 0
 1387 502 1437 449 1437 377 c 0
 1437 271 1376.79882812 175.416992188 1337 132 c 0
 1326 120 1311 106 1289 97.22265625 c 0
 1270.37890625 89.7919921875 1247.54785156 81.90625 1219 81 c 0
 1156 79 1053 -30 789 -30 c 0
EndSplineSet
EndChar

StartChar: D
Encoding: 68 68 4
Width: 1691
VWidth: 1920
Flags: HMW
AnchorPoint: "top" 688 1400 basechar 0
AnchorPoint: "bottom" 659 0 basechar 0
LayerCount: 2
Fore
SplineSet
823 219 m 0
 889.32421875 219 940.751953125 244.5859375 980.177734375 284 c 0
 1069.15039062 372.947265625 1097 532.322265625 1097 627 c 0
 1097 1017 1003 1199 783 1199 c 4
 740 1199 723 1197 711 1188 c 4
 694 1175 695.765625 1135.11328125 695 1098 c 4
 693 1001 693 889 693 778 c 4
 693 576 697.375 530.880859375 705 325 c 0
 707 271 711.122070312 257.1484375 725 239 c 0
 738 222 779 219 823 219 c 0
693 -28 m 0
 545 -28 490 -23 389 -23 c 0
 323 -23 279 -34 184 -34 c 0
 91 -34 27 25 27 92 c 0
 27 122.348632812 35.486328125 146.798828125 54.4375 164 c 0
 78.13671875 185.51171875 125.086914062 185.715820312 148 204.38671875 c 0
 170.55078125 222.762695312 175.885742188 248.469726562 179 272 c 0
 187.100585938 333.208007812 200 464 200 660 c 2
 200 900 l 6
 200 1067.48046875 194.415039062 1153.55957031 161.169921875 1194 c 4
 136.865234375 1223.56542969 97.6484375 1220.97753906 78.4814453125 1241 c 4
 61.9775390625 1258.24121094 49 1280.20898438 49 1327 c 4
 49 1401 111 1449 218 1449 c 4
 286 1449 402 1447 504 1447 c 4
 631 1447 734 1459 937 1459 c 4
 1384 1459 1641 1147 1641 737 c 0
 1641 471.225585938 1537.01855469 183.875 1253 45.8505859375 c 0
 1109.72753906 -23.775390625 903.416992188 -28 693 -28 c 0
EndSplineSet
AlternateSubs2: "'swsh' Swash in Latin lookup 1-1" D.swsh
EndChar

StartChar: E
Encoding: 69 69 5
Width: 1406
VWidth: 1920
Flags: HMW
AnchorPoint: "ogonek" 1029 0 basechar 0
AnchorPoint: "top" 683 1400 basechar 0
AnchorPoint: "bottom" 614 0 basechar 0
LayerCount: 2
Fore
SplineSet
364 -23 m 4
 278 -23 196 -28 111 -28 c 4
 50 -28 31 20 31 64 c 4
 31 113 45 139 90 149 c 4
 121.9765625 156.10546875 140.03125 172.061523438 153 200 c 4
 165.239257812 226.3671875 185 285 190 378 c 4
 198.815429688 541.958007812 202 602 202 800 c 4
 202 992 191.162109375 1053.02636719 180 1120 c 4
 172.043945312 1167.73535156 153.198242188 1195.31933594 130.337890625 1211 c 4
 106.084960938 1227.63574219 75.4384765625 1229.25 55 1243.85449219 c 4
 37.6962890625 1256.21875 27 1273.66796875 27 1307 c 4
 27 1401 82 1434 239 1434 c 4
 307 1434 387 1430 449 1430 c 4
 571 1430 845 1430 964 1430 c 4
 1107 1430 1086 1456 1163 1456 c 4
 1256 1456 1320 1308 1320 1118 c 4
 1320 1044 1272 1000 1204 1000 c 4
 1154 1000 1143.43554688 1017.33007812 1104 1087 c 4
 1074 1140 1037.44628906 1167.70800781 964 1186 c 4
 913.430664062 1198.59472656 871 1200 809 1200 c 4
 684 1200 657.895507812 1170.67382812 649 1143 c 4
 640 1115 639 1021 639 898 c 4
 639 851 639.244140625 832.657226562 667 825 c 4
 696 817 723 817 758 817 c 4
 802 817 828.223632812 847.982421875 831 885 c 4
 834 925 837 946 842 971 c 4
 848.578125 1003.88964844 868 1039 926 1039 c 4
 1013 1039 1052 940 1052 716 c 4
 1052 470 992 392 908 392 c 4
 859 392 841 429 841 497 c 4
 841 543 828 601 739 601 c 4
 684 601 668.040039062 593.782226562 659 570 c 4
 648.620117188 542.69140625 651 481 651 446 c 4
 651 385 655 340 673 244 c 4
 677.071289062 222.288085938 681.888671875 214.497070312 708 209 c 4
 746 201 793 200 849 200 c 4
 934 200 970.8671875 206.427734375 1014 216 c 4
 1053.28808594 224.71875 1112.24316406 271.819335938 1148 323 c 4
 1199 396 1195 474 1286 474 c 4
 1374 474 1391 407 1391 329 c 4
 1391 196 1282 -46 1216 -46 c 4
 1172 -46 1072 -21 934 -21 c 4
 817 -21 706 -23 621 -23 c 4
 534 -23 448 -23 364 -23 c 4
EndSplineSet
AlternateSubs2: "'swsh' Swash in Latin lookup 1-1" E.swsh
EndChar

StartChar: F
Encoding: 70 70 6
Width: 1311
VWidth: 1920
Flags: HMW
AnchorPoint: "top" 600 1400 basechar 0
AnchorPoint: "bottom" 420 0 basechar 0
LayerCount: 2
Fore
SplineSet
420 -40 m 0
 311.2890625 -40 156 -35 81 5.845703125 c 4
 46.7646484375 24.490234375 27 58.0888671875 27 99 c 0
 27 144.061523438 45.4892578125 158.587890625 62.330078125 172 c 0
 81.3115234375 187.1171875 112.255859375 190.932617188 136 208.40625 c 0
 154.841796875 222.272460938 161.540039062 239.224609375 168 268 c 0
 177.989257812 312.499023438 184 451 184 590 c 2
 184 870 l 2
 184 1131.32519531 163 1178 136.372070312 1196 c 0
 119.41796875 1207.4609375 78 1215 62.916015625 1229 c 0
 50.6474609375 1240.38671875 35 1257.03515625 35 1303 c 0
 35 1377 104 1419 181 1419 c 0
 249 1419 384 1413 486 1413 c 0
 608 1413 847 1415 966 1415 c 0
 1059 1415 1111 1434 1158 1434 c 0
 1239 1434 1321 1254 1321 1104 c 0
 1321 1020 1285 968 1218 968 c 0
 1158 968 1133 1009 1099 1053 c 0
 1062.05957031 1100.80566406 1018 1138 952 1154 c 0
 890.743164062 1168.85058594 818 1176 756 1176 c 0
 691 1176 666.431640625 1162.95410156 660 1104 c 0
 654 1049 651.3984375 1025.96484375 650 998 c 0
 649 978 646 938 646 908 c 0
 646 861 645.654296875 848.134765625 684 842 c 0
 709 838 725 836 746 836 c 0
 784 836 816 865 824 898 c 0
 830.125976562 923.268554688 828.2265625 953.443359375 835 970 c 0
 844 992 865 1023 920 1023 c 0
 1004 1023 1045 870 1045 706 c 0
 1045 530 1020 359 916 359 c 0
 864 359 831.00390625 385.780273438 822 429 c 0
 817 453 824 506 816 531 c 0
 808.755859375 553.638671875 796.602539062 566.23828125 782 575 c 0
 772 581 761 584 743 586 c 0
 721.134765625 588.4296875 711 589 690 589 c 0
 660 589 652 573 652 549 c 0
 652 509 650 481 650 436 c 2
 650 328 l 2
 650 258.376953125 669.522460938 225.987304688 695.552734375 207 c 0
 722.860351562 187.081054688 762.333007812 191.872070312 789 176.427734375 c 0
 812.666015625 162.721679688 832 137.940429688 832 95 c 0
 832 40.9423828125 810 7 753 -14.09375 c 0
 696.060546875 -35.1650390625 562.502929688 -40 420 -40 c 0
EndSplineSet
AlternateSubs2: "'swsh' Swash in Latin lookup 1-1" F.swsh
EndChar

StartChar: G
Encoding: 71 71 7
Width: 1642
VWidth: 1920
Flags: HMW
AnchorPoint: "top" 724 1400 basechar 0
AnchorPoint: "bottom" 726 0 basechar 0
LayerCount: 2
Fore
SplineSet
818 -39 m 0
 361 -39 50 233 50 693 c 0
 50 1070 313 1439 798 1439 c 0
 1018 1439 1071 1384 1121 1384 c 0
 1167 1384 1174 1407 1242 1407 c 0
 1322 1407 1452 1269 1452 1093 c 0
 1452 931 1367 881 1272 881 c 0
 1177 881 1129.55664062 943.65234375 1100 989 c 0
 1027 1101 934 1162 817 1162 c 0
 682 1162 572 1036 572 818 c 0
 572 458 763 255 930 255 c 0
 997 255 1033 308 1033 359 c 0
 1033 411.00390625 1017.18945312 431.599609375 991 441.9609375 c 0
 961.1171875 453.783203125 901.782226562 441.362304688 866 460.401367188 c 0
 841.29296875 473.547851562 821 500.740234375 821 549 c 0
 821 605.319335938 841.017578125 632.815429688 880 657.424804688 c 0
 960.56640625 708.28515625 1112.32226562 727 1267 727 c 0
 1395.41308594 727 1487.03515625 709.819335938 1545 677.913085938 c 0
 1597.09179688 649.240234375 1622 608.674804688 1622 558 c 0
 1622 511.216796875 1596.83007812 480.305664062 1577 468.279296875 c 0
 1547.79980469 450.5703125 1512.70019531 457.939453125 1485.36816406 439 c 4
 1466.51464844 425.935546875 1460.91796875 400.045898438 1454 357 c 0
 1445 301 1421 254 1396 213 c 0
 1316 83 1185 -39 818 -39 c 0
EndSplineSet
AlternateSubs2: "'swsh' Swash in Latin lookup 1-1" G.swsh
EndChar

StartChar: H
Encoding: 72 72 8
Width: 1598
VWidth: 1920
Flags: HMW
AnchorPoint: "top" 799 1400 basechar 0
AnchorPoint: "bottom" 789 0 basechar 0
LayerCount: 2
Fore
SplineSet
171 591 m 2
 171 841 l 2
 171 1048 170 1156 129 1171 c 0
 100 1181 77 1184 57 1199 c 0
 38 1213 30 1246 30 1265 c 0
 30 1310 44 1339 76 1365 c 0
 129 1408 233 1428 409 1428 c 0
 555 1428 646 1419 699 1391 c 0
 746 1367 763 1329 763 1271 c 0
 763 1238 745 1214 725 1198 c 0
 703 1180 685.793945312 1184.22753906 667 1167 c 0
 643 1145 633 1095 633 974 c 0
 633 900 633 875 677 873 c 0
 715 871 765 869 787 869 c 0
 835 869 870 870 913 875 c 0
 959 880 975 883 975 943 c 0
 975 1007 966 1077 951 1136 c 0
 943.518554688 1165.42871094 938 1172 915 1183 c 0
 898.736328125 1190.77832031 879 1200 865 1216 c 0
 856 1227 846 1250 846 1279 c 0
 846 1363 898 1391 965 1410 c 0
 1024 1427 1107 1432 1198 1432 c 0
 1354 1432 1445 1417 1489 1397 c 0
 1541 1374 1571 1342 1571 1287 c 0
 1571 1263 1566 1231 1547 1212 c 0
 1525 1191 1488 1183 1465 1168 c 0
 1435 1148 1428 1075 1428 814 c 2
 1428 614 l 2
 1428 367 1442.09277344 270.248046875 1463 243 c 0
 1478.23339844 223.146484375 1505.88378906 224.583007812 1528.25878906 204 c 0
 1545.26757812 188.353515625 1559 162.752929688 1559 129 c 0
 1559 89.0849609375 1543.52832031 58.033203125 1507 33.7060546875 c 0
 1461.98828125 3.7294921875 1383.96582031 -15 1251 -15 c 0
 1053.79199219 -15 965.6015625 -8.60546875 901 23.416015625 c 0
 863.796875 41.8564453125 844 66.0458984375 844 121 c 0
 844 155.513671875 853.97265625 179.71484375 865.489257812 194 c 0
 881.630859375 214.022460938 902.1484375 219.092773438 923 234.591796875 c 0
 937.01171875 245.006835938 952.379882812 258.12890625 957 282 c 0
 963 313 967 334 967 397 c 0
 967 438 968 493 968 541 c 0
 968 584 959.90234375 590.142578125 918 593 c 0
 874 596 842 596 784 596 c 0
 754 596 710 593 672 588 c 0
 632 583 628 559 628 524 c 0
 628 465 630 444 631 402 c 0
 632 342 639 310 642 278 c 0
 644 256 650 245 661 238 c 0
 678 227 707 222 723 207 c 0
 738 194 750 171 750 129 c 0
 750 80 715 39 653 14 c 0
 590 -11 500 -20 401 -20 c 0
 299 -20 180 -19 104 13 c 0
 57 33 27 64 27 115 c 0
 27 150 33.822265625 174.064453125 52 193 c 0
 76 218 95.87890625 214.69140625 127 231 c 0
 156.774414062 246.603515625 171 380 171 591 c 2
EndSplineSet
EndChar

StartChar: I
Encoding: 73 73 9
Width: 836
VWidth: 1920
Flags: HMW
AnchorPoint: "ogonek" 478 0 basechar 0
AnchorPoint: "top" 407 1400 basechar 0
AnchorPoint: "bottom" 408 0 basechar 0
LayerCount: 2
Fore
SplineSet
178 611 m 2
 178 871 l 2
 178 1068 172 1162 142 1192 c 0
 117.250976562 1216.74902344 83.787109375 1227.1640625 68 1243 c 0
 50.111328125 1260.94433594 46 1288 46 1308 c 0
 46 1361 77 1388 123 1408 c 0
 181.094726562 1433.25878906 267 1448 408 1448 c 0
 534 1448 647.325195312 1434.42285156 698 1415 c 0
 759.62890625 1391.37890625 806 1367 806 1296 c 0
 806 1269 799.744140625 1233.83984375 772 1219 c 0
 738.724609375 1201.20214844 725.599609375 1201.20019531 696 1179 c 0
 656 1149 642 1056 642 865 c 2
 642 624 l 2
 642 518 646 330 668 273 c 0
 677.662109375 247.966796875 684.942382812 232.598632812 702 224 c 0
 722.76953125 213.530273438 738 212 757 203 c 0
 794.622070312 185.178710938 809 154 809 111 c 0
 809 40 745.799804688 17.7841796875 699 6 c 0
 633.051757812 -10.6064453125 525 -28 404 -28 c 0
 288 -28 188 -13 111 13 c 0
 60.3583984375 30.099609375 27 66 27 109 c 0
 27 144 34.779296875 168.256835938 50 185 c 0
 70 207 97 213 109 223 c 0
 123.596679688 235.163085938 141 246 152 272 c 0
 176 330 178 417 178 611 c 2
EndSplineSet
EndChar

StartChar: J
Encoding: 74 74 10
Width: 922
VWidth: 1920
Flags: HMW
AnchorPoint: "top" 503 1400 basechar 0
LayerCount: 2
Fore
SplineSet
281 101 m 6
 281 921 l 6
 281 1091.32910156 261.954101562 1161.72949219 226.973632812 1193 c 4
 206.133789062 1211.62890625 169.889648438 1218.05273438 150.546875 1233 c 4
 132.362304688 1247.05273438 120 1257.99511719 120 1308 c 4
 120 1341.51757812 139.904296875 1373.29589844 184 1395.17480469 c 4
 243.633789062 1424.76464844 346.489257812 1445 499 1445 c 4
 622.633789062 1445 740.40234375 1432.56152344 812 1401.71777344 c 4
 869.776367188 1376.828125 895 1346.81445312 895 1300 c 4
 895 1265.10546875 884.538085938 1248.36328125 865.327148438 1235 c 4
 838.557617188 1216.37988281 798.180664062 1207.13574219 775.029296875 1169 c 4
 748.240234375 1124.87207031 747 1025.10058594 747 844 c 6
 747 224 l 6
 747 -269 546 -459 209 -459 c 4
 -105 -459 -239 -341 -239 -196 c 4
 -239 -79 -152 17 -14 17 c 4
 249 17 166 -232 233 -232 c 4
 245 -232 262 -221 269 -193 c 4
 280 -150 281 -46 281 101 c 6
EndSplineSet
EndChar

StartChar: K
Encoding: 75 75 11
Width: 1720
VWidth: 1920
Flags: HMW
AnchorPoint: "top" 790 1400 basechar 0
AnchorPoint: "bottom" 871 0 basechar 0
LayerCount: 2
Fore
SplineSet
179 591 m 2
 179 811 l 2
 179 1012.61035156 160.838867188 1108.10644531 134.278320312 1152 c 0
 110.907226562 1190.62304688 85.1298828125 1187.03515625 64.0458984375 1212 c 0
 50.1328125 1228.47460938 37 1247.00488281 37 1290 c 0
 37 1346 71.693359375 1375.50683594 106 1391 c 0
 168 1419 305 1440 436 1440 c 0
 541.77734375 1440 604.154296875 1436.41796875 652 1422.34863281 c 0
 728 1400 764 1363.12011719 764 1296 c 0
 764 1254.19140625 755.38671875 1235.08984375 739.797851562 1223 c 0
 726.412109375 1212.61914062 704.133789062 1207.43457031 686.208007812 1190 c 0
 674.197265625 1178.31835938 664.076171875 1162.96386719 656 1138 c 0
 645 1104 638 1073 638 1030 c 0
 638 981 638 948 655 940 c 0
 667.955078125 933.903320312 684.025390625 935.9453125 697 942 c 0
 712 949 728.661132812 961.026367188 749 990 c 2
 855 1141 l 2
 869.22265625 1161.25976562 887 1180 887 1196 c 0
 887 1207.74609375 883.430664062 1213.27148438 878.604492188 1220 c 0
 873.478515625 1227.14648438 860.8515625 1239.38476562 853.122070312 1251 c 0
 846.479492188 1260.98144531 840 1270.98730469 840 1293 c 0
 840 1415 1006 1439 1216 1439 c 0
 1393 1439 1548 1419 1548 1301 c 0
 1548 1224 1482 1188 1364 1188 c 0
 1257 1188 1245.14453125 1170.18359375 1178 1096 c 2
 1054 959 l 2
 1031.77441406 934.444335938 1040.29492188 885.788085938 1079 839 c 2
 1510 318 l 2
 1547.51855469 272.647460938 1567 257 1593 239 c 0
 1620.36816406 220.052734375 1667 203 1685 187 c 0
 1710.73925781 164.120117188 1720 146 1720 102 c 0
 1720 4 1647 -20 1537 -20 c 0
 1513 -20 1181 -26 1150 -25 c 0
 1117 -24 1108 -15 1074 26 c 2
 755 412 l 2
 727 446 694 456 674 440 c 0
 659 428 653 399 653 367 c 2
 653 316 l 2
 653 269.80078125 669.15625 238.759765625 686.911132812 220 c 0
 708.59765625 197.086914062 741.489257812 192.559570312 761.767578125 171 c 4
 775.102539062 156.822265625 783 138.995117188 783 107 c 0
 783 -6 677 -28 402 -28 c 0
 206 -28 152 -19 105 0 c 0
 55.5234375 20.0009765625 27 59 27 94 c 0
 27 130.118164062 36.5810546875 145.515625 52.4443359375 161 c 0
 71.0400390625 179.151367188 104.9296875 188.473632812 127.415039062 229 c 0
 157.079101562 282.46484375 179 383.734375 179 591 c 2
EndSplineSet
EndChar

StartChar: L
Encoding: 76 76 12
Width: 1256
VWidth: 1920
Flags: HMW
AnchorPoint: "top" 411 1390 basechar 0
AnchorPoint: "bottom" 672 0 basechar 0
LayerCount: 2
Fore
SplineSet
352 -13 m 0
 266 -13 241 -21 156 -21 c 0
 63 -21 32 54 32 101 c 0
 32 128 43.330078125 149.358398438 55 162 c 0
 67 175 86 190 112 199 c 0
 137.514648438 207.83203125 158 227 168 262 c 0
 186.326171875 326.141601562 196 419 196 590 c 2
 196 801 l 2
 196 1028 187 1135 154 1161 c 0
 134.36328125 1176.47167969 102.80078125 1180.57910156 75 1194 c 0
 46 1208 27 1231 27 1270 c 0
 27 1324 44.1982421875 1349.59960938 107 1381 c 0
 175 1415 308 1437 467 1437 c 0
 603 1437 694 1422 751 1400 c 0
 801.498046875 1380.50976562 830 1344 830 1289 c 0
 830 1244 812 1220 766 1203 c 0
 744.42578125 1195.02734375 727.345703125 1189.70117188 708 1171 c 0
 678 1142 667 1105 667 814 c 2
 667 558 l 2
 667 388 671.952148438 319.985351562 683 285 c 0
 695 247 750 236 809 236 c 0
 894 236 925 246 967 274 c 0
 1021.20507812 310.13671875 1041 372 1060 435 c 0
 1074.48339844 483.0234375 1094 499 1135 499 c 0
 1220 499 1266 417 1266 347 c 0
 1266 204 1167 -45 1061 -45 c 0
 997 -45 962 -10 894 -10 c 0
 777 -10 704 -15 619 -15 c 0
 502 -15 436 -13 352 -13 c 0
EndSplineSet
EndChar

StartChar: M
Encoding: 77 77 13
Width: 1847
VWidth: 1920
Flags: HMW
AnchorPoint: "top" 923 1400 basechar 0
AnchorPoint: "bottom" 924 0 basechar 0
LayerCount: 2
Fore
SplineSet
203 634 m 6
 211 840 l 6
 216.8984375 1045.69824219 206.08203125 1126.96484375 174.365234375 1168 c 4
 147.712890625 1202.48144531 106 1198 84.115234375 1224 c 4
 70.5546875 1240.11035156 59 1257.47949219 59 1302 c 4
 59 1337.23339844 68 1366.56933594 119 1395.42675781 c 4
 169.244140625 1423.85742188 259.989257812 1442 458 1442 c 4
 559 1442 610.424804688 1429.43066406 631 1418 c 4
 667 1398 704.446289062 1325.65039062 718 1300 c 6
 904 948 l 6
 937.970703125 883.01171875 952 859 970 859 c 4
 985 859 1002.63964844 880.022460938 1039 948 c 6
 1223 1292 l 6
 1243.61621094 1330.54296875 1265.32519531 1374.765625 1315 1403.47460938 c 4
 1358.96679688 1428.88378906 1425.47167969 1434 1534 1434 c 4
 1661.35449219 1434 1739 1418 1771 1393.99023438 c 4
 1800.39257812 1371.93652344 1820 1343.89941406 1820 1296 c 4
 1820 1254.13476562 1807.92089844 1237.01660156 1789.65039062 1224 c 4
 1770 1210 1738 1195 1710.53320312 1164 c 4
 1672.07910156 1120.59960938 1665.25195312 1021.66210938 1663 804 c 6
 1660 514 l 6
 1658.26660156 346.47265625 1669.40722656 261.756835938 1695.1171875 225 c 4
 1716.4296875 194.53125 1746 200 1769.05273438 181 c 4
 1783.30371094 169.25390625 1790 151.76171875 1790 111 c 4
 1790 64.240234375 1760.88964844 25.4345703125 1710 0.0791015625 c 4
 1646.34960938 -31.634765625 1550.3203125 -44 1454 -44 c 4
 1329.13183594 -44 1202.02636719 -39.490234375 1126 -9.6240234375 c 4
 1077.70214844 9.349609375 1053 42.134765625 1053 89 c 4
 1053 130.288085938 1062.33691406 148.131835938 1074.8515625 162 c 4
 1095.05078125 184.384765625 1119.13574219 188.172851562 1143.61621094 210 c 4
 1164.77441406 228.865234375 1187 263.676757812 1187 361 c 6
 1187 451 l 6
 1187 536 1178 556 1149 556 c 4
 1125 556 1103.2578125 511.46484375 1074 456 c 6
 863 56 l 6
 834.825195312 2.5888671875 819 -9 807 -9 c 4
 793 -9 782.708007812 1.38671875 759 55 c 6
 583 453 l 6
 559.833007812 505.388671875 531 558 509 558 c 4
 485 558 469.856445312 543.965820312 464 428 c 6
 461 333 l 6
 460.1015625 304.5546875 459 295.658203125 459 268 c 4
 459 242.360351562 464.62109375 219.172851562 476.0703125 205 c 4
 494.665039062 181.981445312 532.35546875 177.5546875 553.884765625 160 c 4
 572.469726562 144.845703125 582 126.563476562 582 97 c 4
 582 -21 467 -35 301 -35 c 4
 128 -35 27 -17 27 72 c 4
 27 103.986328125 34.7265625 129.443359375 52.451171875 149 c 4
 74.546875 173.37890625 117.841796875 175.643554688 144.430664062 203 c 4
 164.79296875 223.950195312 169.51171875 259.55859375 176 297 c 4
 186.591796875 358.12109375 198.263671875 468.8203125 203 634 c 6
EndSplineSet
AlternateSubs2: "'swsh' Swash in Latin lookup 1-1" M.swsh
EndChar

StartChar: N
Encoding: 78 78 14
Width: 1700
VWidth: 1920
Flags: HMW
AnchorPoint: "top" 804 1400 basechar 0
AnchorPoint: "bottom" 805 0 basechar 0
LayerCount: 2
Fore
SplineSet
215 551 m 2
 215 688 l 2
 215 943 190 1051 172 1117 c 0
 165 1142 160.87109375 1157.85742188 141 1176 c 0
 118 1197 77 1205 55 1226 c 0
 36 1244 27 1256 27 1288 c 0
 27 1332 59 1375 95 1397 c 0
 137 1422 261 1434 442 1434 c 0
 537 1434 552 1401 599 1359 c 2
 1106 898 l 2
 1133 873 1166 853 1197 853 c 0
 1230 853 1244 910 1244 1016 c 2
 1244 1056 l 2
 1244 1126 1221 1173 1202 1196 c 0
 1175 1228 1144 1214 1120 1238 c 0
 1108 1250 1096 1273 1096 1304 c 0
 1096 1402 1141 1442 1367 1442 c 0
 1590 1442 1673 1407 1673 1318 c 0
 1673 1280 1663 1255 1642 1238 c 0
 1614 1215 1565 1210 1547 1170 c 0
 1527 1127 1510 979 1510 819 c 2
 1510 439 l 2
 1510 55 1458 -14 1386 -14 c 0
 1350 -14 1301 17 1274 42 c 2
 663 597 l 2
 623 634 583 657 561 657 c 0
 537 657 504 646 504 471 c 2
 504 424 l 2
 504 377 518 287 533 256 c 0
 544 233 569.24609375 214.41015625 597 206 c 0
 630 196 652 165 652 125 c 0
 652 27 529 -25 363 -25 c 0
 200 -25 64 -1 64 104 c 0
 64 145.58203125 79.400390625 172.74609375 100.28515625 189 c 0
 124.778320312 208.0625 156.815429688 215.497070312 180.3984375 264 c 0
 204.67578125 313.9296875 215 430.774414062 215 551 c 2
EndSplineSet
AlternateSubs2: "'swsh' Swash in Latin lookup 1-1" N.swsh
EndChar

StartChar: O
Encoding: 79 79 15
Width: 1618
VWidth: 1920
Flags: HMW
AnchorPoint: "bottom" 830 0 basechar 0
AnchorPoint: "top" 838 1400 basechar 0
LayerCount: 2
Fore
SplineSet
59 671 m 256
 59 1132 411 1450 846 1450 c 256
 1273 1450 1559 1114 1559 718 c 256
 1559 295 1227 -55 800 -55 c 256
 357 -55 59 256 59 671 c 256
894 254 m 256
 998 254 1064 341 1064 451 c 256
 1064 779 912 1132 731 1132 c 256
 645 1132 569 1056 569 917 c 256
 569 614 711 254 894 254 c 256
EndSplineSet
EndChar

StartChar: P
Encoding: 80 80 16
Width: 1410
VWidth: 1920
Flags: HMW
AnchorPoint: "top" 632 1400 basechar 0
AnchorPoint: "bottom" 433 0 basechar 0
LayerCount: 2
Fore
SplineSet
714 744 m 0
 840 744 901 833 901 973 c 0
 901 1103 818 1199 736 1199 c 0
 718.169921875 1199 699.963867188 1195.12011719 691.216796875 1184 c 4
 676.571289062 1165.38183594 673 1100.98535156 673 1044 c 2
 673 968 l 2
 673 916 673.328125 818.9375 676 794 c 0
 679 766 676 744 714 744 c 0
683 476 m 2
 683 393 l 2
 683 283.475585938 702.064453125 242.139648438 727.229492188 218 c 0
 751.33203125 194.879882812 786.560546875 191.66015625 809.344726562 176 c 0
 827.106445312 163.791992188 838 147.720703125 838 113 c 0
 838 67.9912109375 818.520507812 25.96484375 763 -1.49609375 c 0
 702.149414062 -31.59375 598.20703125 -45 434 -45 c 0
 332.454101562 -45 223.404296875 -43.869140625 146 -17.9111328125 c 0
 83.02734375 3.20703125 41 43.462890625 41 91 c 0
 41 124.712890625 52.126953125 152.696289062 75.6279296875 168 c 0
 97.859375 182.4765625 138.825195312 187.124023438 165.934570312 219 c 0
 194 252 206 375.245117188 206 591 c 2
 206 898 l 2
 206 1088.08789062 196.7734375 1164.17871094 163.55859375 1190 c 0
 129.791992188 1216.24902344 75.8359375 1205.81640625 52 1228.45605469 c 0
 39.162109375 1240.65039062 27 1249.46972656 27 1298 c 0
 27 1382 102 1417 169 1417 c 0
 237 1417 286 1411 388 1411 c 0
 550 1411 727 1446 896 1446 c 0
 1173 1446 1383 1306 1383 1036 c 0
 1383 712 1191 507 897 507 c 0
 756 507 726 508 709 508 c 0
 699 508 683 501 683 476 c 2
EndSplineSet
AlternateSubs2: "'swsh' Swash in Latin lookup 1-1" P.swsh
EndChar

StartChar: Q
Encoding: 81 81 17
Width: 1618
VWidth: 1920
Flags: HMW
AnchorPoint: "top" 895 1400 basechar 0
LayerCount: 2
Fore
SplineSet
1113 -81 m 4
 1190.45703125 -107.729492188 1270 -122 1351 -122 c 4
 1430 -122 1462 -108 1475 -102 c 4
 1483.12109375 -98.251953125 1490 -93 1503 -93 c 4
 1536 -93 1568 -142 1568 -192 c 4
 1568 -311 1355 -455 1117 -455 c 4
 759 -455 385 -128 199 -128 c 4
 178 -128 137 -129 124 -129 c 4
 80 -129 56 -108 56 -72 c 4
 56 -21 98 87 206 87 c 4
 228 87 241.017578125 84.6240234375 252 84 c 4
 268.782226562 83.0458984375 280.002929688 88.173828125 284.443359375 96 c 4
 289.311523438 104.578125 286.03125 116.3984375 273 127 c 4
 155 223 50 412 50 672 c 4
 50 1154 390 1445 836 1445 c 4
 1295 1445 1565 1076 1565 658 c 4
 1565 318 1343 32 1114 -38 c 4
 1092.93945312 -44.4375 1075 -41 1075 -53 c 4
 1075 -66 1085.60644531 -71.546875 1113 -81 c 4
888 254 m 260
 992 254 1058 341 1058 451 c 260
 1058 779 906 1132 725 1132 c 260
 639 1132 563 1056 563 917 c 260
 563 614 705 254 888 254 c 260
EndSplineSet
EndChar

StartChar: R
Encoding: 82 82 18
Width: 1615
VWidth: 1920
Flags: HMW
AnchorPoint: "top" 710 1400 basechar 0
AnchorPoint: "bottom" 881 0 basechar 0
LayerCount: 2
Fore
SplineSet
657 526 m 2
 657 414 l 2
 657 329.081054688 663.65625 250.068359375 683.8046875 217 c 0
 707.538085938 178.047851562 739.620117188 173.676757812 766.44921875 152 c 0
 784.141601562 137.705078125 798 125.377929688 798 83 c 0
 798 42.373046875 766.985351562 3.2646484375 697 -14.76171875 c 0
 639.123046875 -29.669921875 551.174804688 -37 423 -37 c 0
 270.174804688 -37 172.244140625 -34.5888671875 113 -14.1328125 c 0
 56.251953125 5.4609375 35 42.107421875 35 87 c 0
 35 132.892578125 45.748046875 150.274414062 64.7060546875 164 c 0
 84.8740234375 178.6015625 122.689453125 174.653320312 144.388671875 225 c 4
 168.877929688 281.819335938 182 411.59765625 182 611 c 2
 182 890 l 2
 182 1048.96289062 176.147460938 1140.24609375 142.1328125 1185 c 0
 117.677734375 1217.17675781 73.8251953125 1217.18554688 51.0166015625 1235 c 0
 35.798828125 1246.88574219 27 1267.05761719 27 1299 c 0
 27 1364 85 1425 212 1425 c 0
 310 1425 466 1417 568 1417 c 0
 720 1417 773 1426 922 1426 c 0
 1179 1426 1368 1276 1368 1066 c 0
 1368 909 1309 801 1198 754 c 0
 1179.83789062 746.309570312 1158 732 1158 714 c 0
 1158 697 1180.17675781 681.688476562 1197 677 c 0
 1258 660 1342.66308594 624.7421875 1388 525 c 0
 1463 360 1433.35839844 230.635742188 1496 192 c 0
 1528.75488281 171.797851562 1551 171 1567 163 c 0
 1591.14941406 150.924804688 1600 136 1600 105 c 0
 1600 9 1478 -61 1288 -61 c 0
 1148 -61 1039.49414062 -24.560546875 989 42 c 0
 901 158 896.958007812 358.974609375 827 497 c 0
 790 570 751 571 719 571 c 0
 698 571 683.592773438 569.979492188 673 565 c 0
 663.602539062 560.583007812 657 551 657 526 c 2
721 800 m 0
 827 800 855 882 855 1012 c 0
 855 1122 813 1197 721 1197 c 0
 696 1197 670 1197 661 1171 c 0
 653.135742188 1148.28125 646 1088 646 1013 c 2
 646 938 l 2
 646 886 647 853 649 828 c 0
 652 800 673 800 721 800 c 0
EndSplineSet
AlternateSubs2: "'swsh' Swash in Latin lookup 1-1" R.swsh
EndChar

StartChar: S
Encoding: 83 83 19
Width: 1273
VWidth: 1920
Flags: HMW
AnchorPoint: "top" 607 1400 basechar 0
AnchorPoint: "bottom" 607 0 basechar 0
LayerCount: 2
Fore
SplineSet
281 411 m 0
 341 301 463 257 552 257 c 256
 652 257 705 284 705 335 c 256
 705 391 674.834960938 413.911132812 503 464 c 0
 239.28515625 540.87109375 49 688 49 963 c 256
 49 1273 325 1439 613 1439 c 256
 777 1439 799 1409 837 1409 c 0
 874 1409 903 1440 947 1440 c 0
 1052 1440 1185 1241 1185 1104 c 0
 1185 1021 1119 959 1054 959 c 0
 1008.94726562 959 973.78125 974.134765625 941 1002.50195312 c 0
 916.475585938 1023.72460938 891.874023438 1049.45605469 866 1072.92871094 c 0
 819.073242188 1115.5 761.65625 1151 683 1151 c 256
 616 1151 571 1119 571 1069 c 256
 571 991 677 974 799 942 c 0
 1034.84570312 880.138671875 1233 777 1233 508 c 256
 1233 191 942 -35 593 -35 c 256
 384 -35 209.78125 21.6279296875 130 101 c 0
 96.3046875 134.522460938 40 294 40 419 c 0
 40 493 73 535 130 535 c 0
 206 535 257.4140625 454.240234375 281 411 c 0
EndSplineSet
EndChar

StartChar: T
Encoding: 84 84 20
Width: 1385
VWidth: 1920
Flags: HMW
AnchorPoint: "top" 678 1400 basechar 0
AnchorPoint: "bottom" 678 0 basechar 0
LayerCount: 2
Fore
SplineSet
454 631 m 2
 454 861 l 2
 454 989 451.740234375 1070.84863281 431 1096 c 0
 411.608398438 1119.515625 385.330078125 1118.44824219 365 1086 c 0
 327.393554688 1025.97753906 296 980 249 923 c 0
 214.829101562 881.55859375 178 873 129 873 c 0
 41 873 0 947 0 1032 c 0
 0 1222 149 1439 232 1439 c 0
 289 1439 291 1420 404 1420 c 2
 946 1420 l 2
 1069 1420 1080 1450 1147 1450 c 0
 1230 1450 1385 1281 1385 1081 c 0
 1385 926 1302 895 1224 895 c 0
 1175 895 1134 910 1102 951 c 0
 1059.58203125 1005.34765625 1053.09179688 1053.90820312 1004 1103 c 0
 984 1123 965 1124 951 1114 c 0
 932.073242188 1100.48046875 922 1014 922 874 c 2
 922 614 l 2
 922 458 930.198242188 403.122070312 935 350 c 0
 940.051757812 294.114257812 954.890625 271.8125 977 256.325195312 c 0
 1004.39453125 237.135742188 1043.08398438 232.6796875 1068.11523438 216 c 0
 1089.10058594 202.015625 1104 182.626953125 1104 127 c 0
 1104 68.486328125 1064 29 1001 3.994140625 c 0
 939.141601562 -20.55859375 838.907226562 -35 680 -35 c 0
 494.1875 -35 404.069335938 -23.1787109375 338 16.6904296875 c 0
 275.952148438 54.1318359375 268 95.0029296875 268 124 c 0
 268 155.838867188 280.760742188 176.875 298.217773438 195 c 0
 324.958007812 222.763671875 373.670898438 223.211914062 402.950195312 250 c 0
 420.372070312 265.939453125 425.936523438 294.63671875 432 321 c 0
 446.069335938 382.171875 454 457 454 631 c 2
EndSplineSet
AlternateSubs2: "'swsh' Swash in Latin lookup 1-1" T.swsh
EndChar

StartChar: U
Encoding: 85 85 21
Width: 1672
VWidth: 1920
Flags: HMW
AnchorPoint: "ogonek" 909 0 basechar 0
AnchorPoint: "top" 943 1400 basechar 0
AnchorPoint: "bottom" 814 0 basechar 0
LayerCount: 2
Fore
SplineSet
1494 884 m 2
 1486 534 l 18
 1477.78417969 154.004882812 1256 -45 799 -45 c 0
 402 -45 164 151 164 528 c 2
 164 891 l 2
 164 1058.97265625 148.349609375 1096.8359375 124.16015625 1125 c 0
 103.830078125 1148.67089844 74.8525390625 1153.52636719 55.2861328125 1171 c 0
 39.298828125 1185.27636719 27 1205.09570312 27 1258 c 0
 27 1296.27441406 42.123046875 1333.9296875 85 1363.26074219 c 0
 152.170898438 1409.20996094 256.822265625 1445 428 1445 c 0
 562.883789062 1445 661.03515625 1438.2734375 726 1412.16992188 c 0
 793.315429688 1385.12207031 825 1336.00683594 825 1287 c 0
 825 1239.56445312 809.272460938 1215.54492188 794.704101562 1204 c 0
 775.024414062 1188.40429688 748.552734375 1180.19824219 725.50390625 1164 c 0
 692.548828125 1140.83984375 674 1089.88671875 674 867 c 2
 674 648 l 2
 674 388 782 325 959 325 c 0
 1136 325 1198 409 1198 658 c 2
 1198 947 l 2
 1198 1060.12011719 1187.23144531 1155.40332031 1160.875 1187 c 0
 1133.20410156 1220.17285156 1088.65234375 1213.54296875 1065.35546875 1235 c 0
 1048.12597656 1250.86816406 1036 1261.84472656 1036 1304 c 0
 1036 1399 1138 1455 1344 1455 c 0
 1537 1455 1645 1395 1645 1310 c 0
 1645 1261.17480469 1632.75683594 1240.97167969 1615.23144531 1226 c 0
 1593.52636719 1207.45703125 1543.71875 1204.9375 1519.03613281 1158 c 0
 1495.82519531 1113.86035156 1497.14648438 1029.51367188 1494 884 c 2
EndSplineSet
EndChar

StartChar: V
Encoding: 86 86 22
Width: 1626
VWidth: 1920
Flags: HMW
AnchorPoint: "top" 839 1400 basechar 0
AnchorPoint: "bottom" 800 0 basechar 0
LayerCount: 2
Fore
SplineSet
1095 1058 m 0
 1107 1086 1119 1123 1119 1154 c 0
 1119 1174 1113 1193 1097 1203 c 0
 1077 1215 1057 1218 1042 1235 c 0
 1034 1243 1022 1260 1022 1292 c 0
 1022 1406 1186 1435 1359 1435 c 0
 1550 1435 1636 1369 1636 1301 c 0
 1636 1259 1619 1233 1595 1218 c 0
 1562 1197 1517 1210 1482 1187 c 0
 1438 1158 1414 1096 1373 998 c 2
 1169 514 l 2
 1081 306 1018 146 988 85 c 0
 947 0 899 -67 804 -67 c 0
 685 -67 632.666015625 29.85546875 575 164 c 0
 434 492 333.002929688 675.069335938 201 1000 c 0
 173.452148438 1067.80957031 148.947265625 1112.78222656 110.990234375 1134 c 0
 77 1153 47 1144 19.333984375 1163 c 0
 0.1669921875 1176.1640625 -10 1200.18457031 -10 1234 c 0
 -10 1298.01855469 26.20703125 1340.65234375 94 1371.95800781 c 0
 188.0078125 1415.37011719 335.448242188 1425 456 1425 c 0
 575.634765625 1425 688.798828125 1410.93359375 753 1369.61230469 c 0
 794.598632812 1342.83789062 811 1300.56054688 811 1257 c 0
 811 1220.82128906 791.3125 1199.96386719 772 1192.14648438 c 0
 757.841796875 1186.41503906 746.814453125 1188.54199219 732.256835938 1181 c 0
 720.802734375 1175.06640625 717 1166.76074219 717 1140 c 0
 717 1108 740.228515625 1063.72265625 751 1035 c 0
 769 987 792 943 822 882 c 0
 843.732421875 837.810546875 884 733 926 733 c 0
 963 733 981 801 1005 854 c 0
 1036 924 1051.24121094 955.896484375 1095 1058 c 0
EndSplineSet
EndChar

StartChar: W
Encoding: 87 87 23
Width: 2364
VWidth: 1920
Flags: HMW
AnchorPoint: "top" 1156 1400 basechar 0
AnchorPoint: "bottom" 1158 0 basechar 0
LayerCount: 2
Fore
SplineSet
1842 1055 m 4
 1858 1103 1873 1134 1873 1165 c 4
 1873 1191.30957031 1858.15332031 1209.8203125 1838.8203125 1220 c 4
 1819.39257812 1230.22949219 1799.5234375 1236.65234375 1784 1248.16503906 c 4
 1772.72558594 1256.52636719 1758 1272.81835938 1758 1310 c 4
 1758 1424 1883 1441 2096 1441 c 4
 2327 1441 2374 1384 2374 1316 c 4
 2374 1276.76367188 2361 1256 2335.25878906 1240 c 4
 2302.15917969 1219.42578125 2251.03222656 1222.6328125 2210.67773438 1191 c 4
 2166.35351562 1156.25488281 2122.93066406 1054.03808594 2088 973 c 4
 1910.33203125 560.810546875 1807 261 1720 60 c 4
 1683 -25 1653 -71 1568 -71 c 4
 1489 -71 1460 5 1402 139 c 4
 1333 299 1284 411 1223 573 c 4
 1207 615 1196 623 1178 623 c 4
 1160 623 1146 603 1130 557 c 4
 1047 321 1006 198 946 60 c 4
 909 -25 879 -71 794 -71 c 4
 725 -71 681 -65 623 69 c 4
 482 397 349.240234375 715.548828125 196 1028 c 4
 173.864257812 1073.13476562 140.146484375 1148.31054688 107 1160.82519531 c 4
 77.9365234375 1171.79882812 56.337890625 1166.51660156 28.451171875 1178 c 4
 3.7080078125 1188.18847656 -10 1211.0703125 -10 1249 c 4
 -10 1283.16210938 2.943359375 1324.86230469 49 1355.68652344 c 4
 120.85546875 1403.77734375 258.97265625 1430 444 1430 c 4
 562.1015625 1430 668.41015625 1417.19628906 732 1384.4375 c 4
 772.938476562 1363.34765625 795 1332.81542969 795 1296 c 4
 795 1269.31933594 792.326171875 1259.71582031 782.41796875 1249 c 4
 772.916015625 1238.72363281 759.8984375 1228.9921875 749.02734375 1217 c 4
 739.5625 1206.55859375 734 1190.99609375 734 1164 c 4
 734 1132 757.767578125 1087.91894531 768 1059 c 4
 791 994 805 963 849 869 c 4
 869.546875 825.104492188 896 766 921 766 c 4
 942 766 949.828125 788.655273438 976 841 c 4
 986 861 996 882 1012 920 c 4
 1024.39941406 949.44921875 1034 973 1034 988 c 4
 1034 1004 1026.39355469 1023.01464844 1011 1056 c 4
 1004 1071 996 1094 986 1119 c 4
 965.279296875 1170.80273438 960.509765625 1188.69140625 942.513671875 1199 c 4
 924.8046875 1209.14453125 908.513671875 1217.56347656 888.815429688 1235 c 4
 873 1249 865 1265.32714844 865 1298 c 4
 865 1357.91894531 895.325195312 1383.71191406 958 1403.44335938 c 4
 1037.80761719 1428.56835938 1166.71777344 1430 1304 1430 c 4
 1399.57617188 1430 1503.79980469 1425.05371094 1569 1401.37109375 c 4
 1618.40625 1383.42578125 1642 1351.31445312 1642 1322 c 4
 1642 1290.65234375 1635.13964844 1267.95703125 1620.27050781 1257 c 4
 1603.45898438 1244.61132812 1579.87890625 1237.67773438 1560.63476562 1228 c 4
 1541.72363281 1218.49023438 1527 1202.33105469 1527 1175 c 4
 1527 1143 1536.86621094 1124.953125 1547 1096 c 4
 1568 1036 1587 997 1633 881 c 4
 1650.86621094 835.946289062 1674 778 1705 778 c 4
 1731 778 1746.50976562 810.319335938 1772 863 c 4
 1787 894 1811.8984375 964.6953125 1842 1055 c 4
EndSplineSet
EndChar

StartChar: X
Encoding: 88 88 24
Width: 1596
VWidth: 1920
Flags: HMW
LayerCount: 2
Fore
SplineSet
919 1088 m 10
 950 1145 l 2
 965.551757812 1173.59472656 974 1191 974 1212 c 0
 974 1223.10546875 965.970703125 1232.30761719 957 1237.78515625 c 0
 941.174804688 1247.44824219 927.192382812 1248.41015625 910 1257.10742188 c 0
 898.8671875 1262.73828125 882 1281.12890625 882 1305 c 0
 882 1409 957 1442 1220 1442 c 0
 1471 1442 1486 1354 1486 1316 c 0
 1486 1266.1171875 1465.03125 1236.71191406 1427 1221.4140625 c 0
 1388.60449219 1205.96972656 1349.70703125 1210.19921875 1314 1202.18066406 c 0
 1278.51855469 1194.21289062 1239.90136719 1176.23925781 1169 1076 c 2
 1024 871 l 2
 1014.06640625 856.955078125 1004 846 1004 838 c 0
 1004 830 1014.23535156 818.430664062 1022 808 c 2
 1386 319 l 2
 1413.33105469 276.907226562 1432.45410156 257.188476562 1460 242.627929688 c 0
 1495.72753906 223.743164062 1535.07324219 218.079101562 1560 201.705078125 c 0
 1582.17871094 187.13671875 1596 165.612304688 1596 131 c 0
 1596 74.310546875 1570.22753906 32.5712890625 1502 3.8759765625 c 0
 1432.85253906 -25.2060546875 1320.36816406 -35 1188 -35 c 0
 1023.35058594 -35 922.947265625 -32.4384765625 862 -17.109375 c 0
 790 1 768 43.365234375 768 81 c 0
 768 116.287109375 777.573242188 140.86328125 789.290039062 155 c 0
 806.458984375 175.71484375 830.405273438 178.317382812 840 183.086914062 c 0
 846.650390625 186.392578125 849 195.315429688 849 203 c 0
 849 225 838.65625 240.609375 826 260 c 2
 731 406 l 2
 715.7578125 429.424804688 708 434 696 434 c 0
 685 434 673.3515625 420.01953125 656 393 c 2
 586 284 l 2
 565.256835938 251.69921875 555 233 555 214 c 0
 555 194.30078125 560.84375 183.1796875 569.942382812 171 c 0
 580.436523438 156.954101562 603.287109375 147.211914062 617.215820312 134 c 0
 631.684570312 120.275390625 642 102.806640625 642 74 c 0
 642 -10 563 -45 300 -45 c 0
 49 -45 0 -8 0 70 c 0
 0 136.581054688 35.7822265625 166.428710938 66 176.982421875 c 0
 93.412109375 186.556640625 127.495117188 178.93359375 167 187.155273438 c 0
 213.9375 196.923828125 264.227539062 249.228515625 316 325 c 2
 508 606 l 2
 519.166015625 622.341796875 536 648 536 662 c 0
 536 672 532.883789062 675.821289062 523 689 c 2
 235 1073 l 2
 211.342773438 1104.54296875 180.495117188 1132.26464844 152 1152.50390625 c 0
 123.073242188 1173.04980469 82.9267578125 1168.98046875 54 1190.43261719 c 0
 31.087890625 1207.42382812 17 1228.94433594 17 1264 c 0
 17 1315.42871094 37.498046875 1348.32519531 76 1372.13867188 c 0
 161.381835938 1424.94628906 331.384765625 1438 535 1438 c 0
 638.2734375 1438 709.677734375 1430.16796875 756 1409.8046875 c 0
 813.646484375 1384.46289062 833 1341.359375 833 1289 c 0
 833 1250.57617188 824.703125 1235.01953125 812.848632812 1224 c 0
 803.166015625 1214.99902344 792.735351562 1208.15332031 782.708984375 1203 c 0
 773.831054688 1198.43652344 767 1192.34472656 767 1181 c 0
 767 1168 771.014648438 1159.42773438 784 1145 c 2
 838 1085 l 2
 852.029296875 1070.97070312 867 1052 879 1052 c 0
 892 1052 910 1073 919 1088 c 10
EndSplineSet
EndChar

StartChar: Y
Encoding: 89 89 25
Width: 1527
VWidth: 1920
Flags: HMW
AnchorPoint: "top" 860 1400 basechar 0
LayerCount: 2
Fore
SplineSet
925 1093 m 2
 971 1164 l 2
 983.188476562 1182.81152344 988 1192 988 1203 c 0
 988 1218.59667969 981.749023438 1224.87011719 973 1231.05078125 c 0
 961.772460938 1238.98339844 946.875976562 1239.82421875 933.901367188 1256 c 0
 926.373046875 1265.38574219 919 1274.73046875 919 1306 c 0
 919 1391 974.079101562 1443 1270 1443 c 0
 1481 1443 1527 1416 1527 1321 c 0
 1527 1276.03808594 1510.61425781 1250.25097656 1487 1234.69921875 c 0
 1454.08886719 1213.02539062 1411.31738281 1218.82226562 1364 1197.92480469 c 0
 1336.7578125 1185.89257812 1312.40820312 1162.88574219 1288 1132 c 2
 1028 803 l 2
 1003.59375 772.116210938 1003 755 1003 718 c 0
 1003 462 1003.52246094 348.12109375 1021 288 c 0
 1027.37695312 266.064453125 1035.80859375 248.369140625 1050.34960938 237 c 0
 1070.24511719 221.443359375 1104.18652344 215.623046875 1122.97460938 200 c 0
 1143.45410156 182.970703125 1151 157 1151 123 c 0
 1151 86.2275390625 1136.89160156 44.40625 1089 17.6865234375 c 0
 1034.35351562 -12.802734375 935 -33 757 -33 c 0
 654.926757812 -33 530.284179688 -31.3447265625 445 -3.6875 c 0
 385.383789062 15.646484375 345 50.2421875 345 95 c 0
 345 135.603515625 358.39453125 159.09375 378.778320312 178 c 0
 403.524414062 200.952148438 444.173828125 207.620117188 467.94921875 232 c 0
 484.768554688 249.247070312 487.646484375 272.8515625 491 298 c 0
 499.24609375 359.846679688 495 434 495 678 c 0
 495 727 484.323242188 746.122070312 465 770 c 2
 185 1116 l 2
 171.973632812 1132.09667969 153.741210938 1154.83691406 126 1169.39160156 c 0
 97.3447265625 1184.42578125 58.013671875 1190.39550781 32.6953125 1214 c 0
 10.2158203125 1234.95800781 0 1256.89160156 0 1296 c 0
 0 1341.79492188 36.119140625 1378.53027344 90 1398.09277344 c 0
 185.900390625 1432.90917969 338.069335938 1435 443 1435 c 0
 545.036132812 1435 651.663085938 1431.10742188 718 1413.73046875 c 0
 782.706054688 1396.78125 819 1355.89648438 819 1311 c 0
 819 1273.82910156 804.856445312 1259.61035156 792.017578125 1247 c 0
 783.400390625 1238.53515625 773.118164062 1230.25 765.67578125 1222 c 0
 759.294921875 1214.92578125 754 1209.67382812 754 1195 c 0
 754 1183 770.50390625 1154.65820312 781 1140 c 2
 839 1059 l 2
 845.53515625 1049.87402344 858 1045 870 1045 c 0
 892 1045 903.9765625 1060.55078125 925 1093 c 2
EndSplineSet
AlternateSubs2: "'swsh' Swash in Latin lookup 1-1" Y.swsh
EndChar

StartChar: Z
Encoding: 90 90 26
Width: 1390
VWidth: 1920
Flags: HMW
AnchorPoint: "top" 650 1400 basechar 0
LayerCount: 2
Fore
SplineSet
455 -17 m 0
 369 -17 206 -26 122 -26 c 0
 69 -26 28 4 28 45 c 0
 28 88 54.046875 118.322265625 85 174 c 2
 577 1059 l 2
 589.263671875 1081.05957031 605 1105 605 1125 c 0
 605 1163 552 1185 488 1185 c 0
 446 1185 407 1178 362 1165 c 4
 335.73046875 1157.41113281 306.384765625 1133.93261719 286.909179688 1106 c 0
 260.665039062 1068.359375 245.075195312 1018.44140625 229.0546875 983 c 0
 210.203125 941.295898438 181.962890625 915 145 915 c 0
 60 915 15 991 15 1069 c 0
 15 1192 119 1446 195 1446 c 0
 249 1446 271 1427 319 1427 c 0
 465 1427 536 1427 791 1427 c 0
 877 1427 1076 1437 1160 1437 c 0
 1223 1437 1266 1407 1266 1363 c 0
 1266 1319 1245.63867188 1289.72460938 1228 1256 c 2
 751 344 l 2
 742.908203125 328.528320312 725 298 725 277 c 0
 725 242 763 223 857 223 c 0
 939 223 957 228 998 235 c 0
 1052.09179688 244.235351562 1076.55957031 273.760742188 1098.21875 306 c 0
 1132.48339844 357.001953125 1152.40136719 419.765625 1173.92675781 458 c 0
 1185.88867188 479.24609375 1206.45410156 493 1232 493 c 0
 1317 493 1375 430 1375 352 c 0
 1375 149 1254 -40 1188 -40 c 0
 1134 -40 1085 -19 1037 -19 c 0
 891 -19 750 -17 455 -17 c 0
EndSplineSet
EndChar

StartChar: a
Encoding: 97 97 27
Width: 1186
VWidth: 1920
Flags: HMW
AnchorPoint: "ogonek" 778 100 basechar 0
AnchorPoint: "top" 543 1000 basechar 0
LayerCount: 2
Fore
SplineSet
96 757 m 0
 96 816.956054688 116.768554688 861.916015625 162 901.739257812 c 0
 275.346679688 1001.53222656 478.015625 1050 611 1050 c 0
 833 1050 1042 953 1042 719 c 2
 1042 514 l 2
 1042 316 1065 268 1104 261 c 0
 1117.78027344 258.526367188 1131.03125 257.747070312 1140 257 c 0
 1152 256 1159 248 1159 228 c 0
 1159 112 1011 -16 834 -16 c 0
 758 -16 720 -13 666 62 c 0
 656.416015625 75.310546875 645 79 636 79 c 0
 627 79 607.162109375 67.736328125 579 43 c 0
 505 -22 412 -25 349 -25 c 0
 165 -25 27 76 27 260 c 0
 27 464 226 596 483 596 c 0
 523 596 565 591 584 591 c 0
 602 591 604 598 604 627 c 2
 604 641 l 2
 604 795 575 869 516 869 c 0
 482 869 461.397460938 852.75 438 828 c 0
 418.934570312 807.83203125 376.34765625 731.57421875 350 708 c 0
 312 674 267 646 212 646 c 0
 151 646 96 685 96 757 c 0
604 346 m 2
 604 379 l 2
 604 395.083007812 602.098632812 412.627929688 594.294921875 424 c 0
 586.797851562 434.92578125 573.69921875 440 559 440 c 0
 501 440 447 396 447 322 c 0
 447 254 472 204 535 204 c 0
 574 204 604 221 604 346 c 2
EndSplineSet
EndChar

StartChar: l
Encoding: 108 108 28
Width: 760
VWidth: 1920
Flags: HMW
AnchorPoint: "top" 404 1387 basechar 0
LayerCount: 2
Fore
SplineSet
204 591 m 6
 204 813 l 6
 204 960 186 1051 134 1082 c 4
 103.936523438 1099.921875 85.9072265625 1099.48046875 67 1106 c 4
 38 1116 20 1142 20 1172 c 4
 20 1224 39.62890625 1252.15429688 82 1279 c 4
 213 1362 436 1411 567 1411 c 4
 608 1411 633 1405 633 1361 c 4
 633 1235 614 1022 614 836 c 6
 614 604 l 6
 614 348 625 286 642 240 c 4
 650.432617188 216.576171875 662.358398438 202.889648438 675 193.133789062 c 4
 690.625976562 181.075195312 709.344726562 175.01953125 721.9140625 163 c 4
 733.356445312 152.056640625 740 138.668945312 740 110 c 4
 740 34 656 -15 417 -15 c 4
 167 -15 40 7 40 94 c 4
 40 133 59 152 78 163 c 4
 93.578125 172.018554688 116 180 131 188 c 4
 147.764648438 196.94140625 164.266601562 212.583984375 171 240 c 4
 185 297 204 427 204 591 c 6
EndSplineSet
EndChar

StartChar: v
Encoding: 118 118 29
Width: 1222
VWidth: 1920
Flags: HMW
LayerCount: 2
Fore
SplineSet
788 765 m 4
 795.291015625 782.31640625 797 796 797 809 c 4
 797 824.23828125 792.797851562 834.967773438 782 842.75390625 c 4
 775.051757812 847.763671875 760.877929688 851.456054688 749.1015625 864 c 4
 738.2734375 875.533203125 728 891.059570312 728 924 c 4
 728 1030 874 1045 994 1045 c 4
 1149 1045 1223 1037 1223 948 c 4
 1223 895 1189 852 1119 842 c 4
 1081.38183594 836.625976562 1060.28808594 821.193359375 1033 754 c 6
 856 306 l 2
 814.055664062 202.717773438 759.739257812 98.1181640625 743 61 c 0
 720 10 682 -49 623 -49 c 0
 562 -49 511.083984375 11.767578125 466 88 c 0
 356 274 290.28515625 449.249023438 206 640 c 0
 168 726 142 770 112 783.416015625 c 0
 87.37890625 794.426757812 62 789 40 798.841796875 c 0
 14.318359375 810.331054688 -10 833.065429688 -10 886 c 0
 -10 921.305664062 -2.708984375 948.931640625 23 974.868164062 c 0
 67.8115234375 1020.07617188 208.350585938 1045 364 1045 c 0
 583 1045 676 1012 676 921 c 0
 676 893 662.90625 870.31640625 624 846 c 0
 600 831 597 814 597 798 c 0
 597 788 600.430664062 779.178710938 604 770 c 0
 618 734 643 686 650 670 c 0
 661.8359375 642.946289062 675 619 699 619 c 0
 731 619 744.53125 653.6171875 759 686 c 0
 780 733 780 746 788 765 c 4
EndSplineSet
EndChar

StartChar: paragraph
Encoding: 182 182 32
Width: 1727
Flags: HMW
LayerCount: 2
Fore
SplineSet
50 708 m 0
 50 1272 480 1480 894 1480 c 0
 1158 1480 1324.65722656 1400.62402344 1394 1347 c 0
 1443.30761719 1308.87011719 1455 1274 1455 1190 c 0
 1455 1109.90039062 1434 188 1434 28 c 0
 1434 -128.051757812 1460 -208 1512 -208 c 16
 1564 -208 1633 -162 1665 -162 c 16
 1697 -162 1722 -173.887695312 1722 -215 c 0
 1722 -286 1478 -356 1406 -356 c 16
 1334 -356 1290 -284 1290 -215 c 16
 1290 -146 1330 928 1330 1036 c 16
 1330 1144 1302 1192 1254 1248 c 16
 1206 1304 1088 1376 890 1376 c 0
 642 1376 422 1226 422 746 c 0
 422 256 649.493164062 90 843 90 c 0
 1055 90 1080 271.75 1080 400 c 0
 1080 748 1038 923.252929688 1038 1000 c 0
 1038 1068 1060 1100 1102 1100 c 0
 1154 1100 1188 1056 1188 982 c 0
 1188 887.501953125 1192 360.111328125 1192 288 c 0
 1192 210 1182 144 1156 118 c 0
 1118.92578125 80.92578125 1024 -22 742 -22 c 0
 430 -22 50 244 50 708 c 0
EndSplineSet
Validated: 1
EndChar

StartChar: b
Encoding: 98 98 33
Width: 1334
VWidth: 1920
Flags: HMW
LayerCount: 2
Fore
SplineSet
164 618 m 6
 165 724 l 6
 165 910 162 958 150 1000 c 4
 144.814453125 1017.6328125 137.745117188 1039.92089844 118 1051.20996094 c 4
 91.404296875 1066.41503906 52.140625 1066.80664062 28.8232421875 1084 c 4
 11.9931640625 1096.40917969 0 1123.37304688 0 1149 c 4
 0 1200 33.3994140625 1249.28320312 83 1271 c 4
 268 1352 431 1389 552 1389 c 4
 585 1389 612 1363 612 1336 c 4
 612 1260 594 1195 594 1049 c 6
 594 993 l 6
 594 929 602 906 616 906 c 4
 629 906 645.129882812 926.85546875 683 961 c 4
 744 1016 833 1047 910 1047 c 4
 1152 1047 1299 837 1299 590 c 4
 1299 179 983 -35 683 -35 c 4
 507 -35 414 31 342 79 c 4
 321.961914062 92.3583984375 312 103 303 103 c 4
 294 103 280.540039062 95.2451171875 258 85 c 4
 236 75 205 66 175 66 c 4
 142 66 127 90 127 117 c 4
 127 161 157 215 157 322 c 4
 157 377 163.35546875 440.001953125 164 618 c 6
717 173 m 4
 806 173 838 274 838 439 c 4
 838 634 745 701 684 701 c 4
 638.833984375 701 602 678 602 573 c 6
 602 303 l 6
 602 245 619 173 717 173 c 4
EndSplineSet
EndChar

StartChar: o
Encoding: 111 111 34
Width: 1205
VWidth: 1920
Flags: HMW
AnchorPoint: "top" 606 1000 basechar 0
LayerCount: 2
Fore
SplineSet
35 496 m 256
 35 790 287 1045 644 1045 c 256
 936 1045 1170 848 1170 531 c 256
 1170 220 904 -28 574 -28 c 256
 270 -28 35 182 35 496 c 256
640 200 m 256
 699 200 734 264 734 329 c 256
 734 484 687 793 566 793 c 256
 513 793 474 741 474 667 c 256
 474 489 522 200 640 200 c 256
EndSplineSet
EndChar

StartChar: n
Encoding: 110 110 35
Width: 1372
VWidth: 1920
Flags: HMW
AnchorPoint: "bottom" 543 0 basechar 0
AnchorPoint: "top" 87.9453 1054.1 basechar 0
LayerCount: 2
Fore
SplineSet
156 481 m 6
 156 559 l 6
 156 626 148 672 125 701 c 4
 103.250976562 728.421875 73.0498046875 731.272460938 50 750 c 4
 34 763 20 783 20 808 c 4
 20 847 28.2294921875 876.08984375 91 910 c 4
 178 957 368 1043 528 1043 c 4
 569 1043 595 1039 595 1001 c 4
 595 972 589 935 589 907 c 4
 589 878 599 857 619 857 c 4
 632 857 642 866 662 897 c 4
 726.533203125 997.02734375 814 1028 920 1028 c 4
 1042 1028 1140.10058594 979.073242188 1184 919 c 4
 1241 841 1257 791 1257 444 c 4
 1257 388 1259.6875 298.487304688 1264 262 c 4
 1267.515625 232.251953125 1273.56542969 209.529296875 1283.44042969 195 c 4
 1295.93945312 176.608398438 1316.36328125 169.541015625 1329.21484375 158 c 4
 1343.75292969 144.9453125 1352 130.004882812 1352 99 c 4
 1352 43 1288 -16 1059 -16 c 4
 859 -16 742 -2 742 93 c 4
 742 125.651367188 748.51953125 139.340820312 759.118164062 151 c 4
 767.440429688 160.155273438 781.920898438 168.23046875 793.618164062 187 c 4
 802.321289062 200.96484375 806.383789062 221.502929688 812 256 c 4
 819.834960938 304.130859375 822 377 822 471 c 4
 822 665 773 716 692 716 c 4
 587 716 584 648 584 474 c 4
 584 358 585 283 587 247 c 4
 588.456054688 220.791992188 598 208 608 198 c 4
 624.970703125 181.029296875 636.130859375 169.836914062 646 155 c 4
 653.092773438 144.336914062 661 127 661 108 c 4
 661 6 536 -15 337 -15 c 4
 157 -15 25 33 25 110 c 4
 25 136.567382812 31.279296875 150.5625 41.3447265625 162 c 4
 55.4951171875 178.080078125 75.154296875 183.967773438 94.779296875 201 c 4
 112.873046875 216.703125 127.65625 237.473632812 136.799804688 282 c 4
 149.599609375 344.328125 156 409.299804688 156 481 c 6
EndSplineSet
EndChar

StartChar: d
Encoding: 100 100 36
Width: 1346
VWidth: 1920
Flags: HMW
LayerCount: 2
Fore
SplineSet
627 253 m 0
 696 253 741.115234375 300.14453125 746 465 c 6
 754 735 l 6
 755.362304688 780.989257812 706.803710938 811 655 811 c 0
 572 811 511 702 511 508 c 0
 511 350 558 253 627 253 c 0
35 496 m 0
 35 840 261 1045 548 1045 c 0
 606 1045 646 1031 667 1022 c 0
 693.126953125 1010.80273438 710 996 730 996 c 0
 746 996 746 1017 746 1035 c 2
 746 1041 l 2
 746 1068 746 1094 735 1118 c 0
 727.6171875 1134.10839844 718 1140 701 1147 c 0
 683.430664062 1154.234375 667.740234375 1150.57714844 643 1159 c 0
 625.595703125 1164.92480469 609 1181 609 1221 c 0
 609 1264 631 1299 681 1319 c 0
 833.397460938 1379.95898438 1033 1415 1134 1415 c 0
 1167 1415 1190 1402 1190 1372 c 0
 1190 1296 1184 1220 1184 894 c 2
 1184 604 l 2
 1184 488 1188 402 1188 355 c 0
 1188 315 1196.65527344 278.051757812 1222 262 c 0
 1252 243 1260.9140625 247.669921875 1287 235 c 0
 1322 218 1326 198 1326 162 c 0
 1326 133 1299.74023438 97.779296875 1234 59 c 0
 1133.61621094 -0.21484375 994 -33 868 -33 c 0
 798 -33 783 -29 781 8 c 0
 780.244140625 21.9794921875 779 40 779 57 c 0
 779 76 769 92 750 92 c 0
 737 92 729.872070312 81.05078125 706 60 c 0
 636.266601562 -1.494140625 590 -25 479 -25 c 0
 225 -25 35 222 35 496 c 0
EndSplineSet
EndChar

StartChar: c
Encoding: 99 99 37
Width: 1087
VWidth: 1920
Flags: HMW
AnchorPoint: "top" 603 1030 basechar 0
AnchorPoint: "bottom" 594 0 basechar 0
LayerCount: 2
Fore
SplineSet
638 1055 m 0
 904 1055 1060 895 1060 730 c 0
 1060 644 992 537 874 537 c 0
 780 537 711.276367188 571.461914062 692 640 c 0
 674 704 664 767 592 767 c 0
 509 767 466 712 466 598 c 0
 466 460 592 340 740 340 c 0
 829 340 841 389 936 389 c 0
 985 389 1028 359 1028 288 c 0
 1028 147 820 -25 550 -25 c 0
 256 -25 35 222 35 486 c 0
 35 880 341 1055 638 1055 c 0
EndSplineSet
EndChar

StartChar: e
Encoding: 101 101 38
Width: 1090
VWidth: 1920
Flags: HMW
AnchorPoint: "ogonek" 591 1 basechar 0
AnchorPoint: "bottom" 517 0 basechar 0
AnchorPoint: "top" 586 1073 basechar 0
LayerCount: 2
Fore
SplineSet
613 1055 m 0
 869 1055 1060 838 1060 633 c 0
 1060 566 1034 511 1023 499 c 0
 1006 480 993 473 909 473 c 2
 515 475 l 2
 471 475 455 465 455 438 c 0
 455 426 459 411 465 397 c 0
 496 327 573 245 685 245 c 0
 824 245 916 336 951 336 c 0
 987 336 1029 293 1029 232 c 0
 1029 131 802 -36 572 -36 c 0
 258 -36 35 175 35 509 c 0
 35 873 336 1055 613 1055 c 0
613 662 m 2
 659.998046875 661.698242188 691 673 691 707 c 0
 691 801 648 860 577 860 c 0
 513.903320312 860 480.313476562 818.254882812 464.806640625 774 c 0
 453.307617188 741.181640625 454 710.265625 454 692 c 0
 454 669 479 664 520 664 c 2
 613 662 l 2
EndSplineSet
EndChar

StartChar: f
Encoding: 102 102 39
Width: 853
VWidth: 1920
Flags: HMW
LayerCount: 2
Fore
SplineSet
136 600 m 6
 75 600 l 6
 35 600 15 615 15 655 c 4
 15 700 23 756 35 797 c 4
 40.6875 816.43359375 50 820 67 820 c 6
 92 820 l 6
 112 820 121 829 121 848 c 6
 121 851 l 6
 121 908 50 920 50 1069 c 4
 50 1334 299 1412 476 1412 c 4
 723 1412 853 1278 853 1157 c 4
 853 1064 782 992 701 992 c 4
 528 992 524 1168 416 1168 c 4
 383 1168 355 1139 355 1092 c 4
 355 976 560.704101562 918.182617188 574 865 c 6
 575 861 l 6
 581.8125 833.75 607 832 632 832 c 6
 724 832 l 6
 769 832 792 830 792 795 c 4
 792 770 783.422851562 686.977539062 781 663 c 4
 776.248046875 615.974609375 775 603 735 603 c 6
 674 603 l 6
 617 603 602 576 602 519 c 6
 602 512 l 6
 602 418 610 365 615 328 c 4
 621.03125 283.372070312 635.092773438 259.747070312 657 242.66796875 c 4
 686.178710938 219.921875 720.279296875 221.075195312 746.692382812 202 c 4
 767.036132812 187.307617188 782 159.653320312 782 126 c 4
 782 10 601 -18 372 -18 c 4
 172 -18 31 14 31 117 c 4
 31 152.939453125 53.7109375 179.978515625 72.4619140625 193 c 4
 93.4716796875 207.590820312 114.810546875 210.8828125 137.282226562 229 c 4
 155.108398438 243.372070312 163.147460938 265.475585938 167 304 c 4
 173 364 181 468 181 512 c 6
 181 536 l 6
 181 575 175 600 136 600 c 6
EndSplineSet
EndChar

StartChar: g
Encoding: 103 103 40
Width: 1154
VWidth: 1920
Flags: HMW
AnchorPoint: "top" 624 1000 basechar 0
LayerCount: 2
Fore
SplineSet
552 521 m 0
 591 521 615 560 615 625 c 0
 615 760 582 832 527 832 c 0
 480 832 457 797 457 723 c 0
 457 575 500 521 552 521 c 0
43 656 m 0
 43 900 291 1038 518 1038 c 0
 636 1038 675 1026 725 1005 c 0
 745 997 769 987 805 987 c 0
 824 987 844 996 861 1003 c 0
 941 1036 992 1107 1042 1107 c 0
 1076 1107 1121 1060 1121 988 c 0
 1121 911 1099 860 1055 814 c 0
 1036 794 1021 788 1021 777 c 0
 1021 763 1024 719 1024 693 c 0
 1024 442 757 325 527 325 c 0
 476 325 443 337 429 337 c 0
 422 337 414 335 407 331 c 0
 401 327 396 322 396 313 c 0
 396 268 462 243 519 243 c 0
 607 243 674 284 861 284 c 0
 1015 284 1139 196 1139 17 c 0
 1139 -250 828 -414 529 -414 c 0
 189 -414 27 -282 27 -137 c 0
 27 -71 64 -17 113 8 c 0
 119 11 122 13 122 17 c 0
 122 20 117 25 113 28 c 0
 88 48 27 94 27 182 c 0
 27 301 105 354 165 385 c 0
 177 391 187 394 187 399 c 0
 187 403 179 406 165 415 c 0
 97 458 43 559 43 656 c 0
330 -96 m 0
 330 -144 400 -203 559 -203 c 0
 652 -203 707 -159 707 -122 c 0
 707 -96 691 -84 645 -84 c 0
 599 -84 554 -96 463 -96 c 0
 399 -96 368 -90 352 -84 c 0
 347 -82 341 -80 338 -80 c 0
 335 -80 333 -81 332 -83 c 0
 331 -85 330 -88 330 -96 c 0
EndSplineSet
EndChar

StartChar: i
Encoding: 105 105 41
Width: 727
VWidth: 1920
Flags: HMW
AnchorPoint: "ogonek" 432 10 basechar 0
LayerCount: 2
Fore
SplineSet
38 1243 m 0
 38 1380 242 1438 399 1438 c 0
 526 1438 598 1380 598 1303 c 0
 598 1177 419 1094 232 1094 c 0
 125 1094 38 1147 38 1243 c 0
150 421 m 6
 150 479 l 6
 150 566 145.913085938 687.375 121 720 c 4
 100.389648438 746.990234375 63.64453125 748.068359375 47 763 c 4
 28.111328125 779.944335938 20 798 20 820 c 4
 20 884 45.505859375 907.36328125 155 954 c 4
 263 1000 457 1044 548 1044 c 4
 589 1044 603 1032 603 995 c 4
 603 919 598 838 598 602 c 6
 598 424 l 6
 598 348 599.228515625 302.39453125 604 269 c 4
 608.16015625 239.881835938 622.201171875 217.467773438 634.087890625 206 c 4
 650.538085938 190.129882812 668.790039062 187.036132812 684.291015625 171 c 4
 700.095703125 154.650390625 707 138.124023438 707 97 c 4
 707 1 572 -30 373 -30 c 4
 163 -30 23 -1 23 96 c 4
 23 123.165039062 30.748046875 145.361328125 45.666015625 162 c 4
 61.87109375 180.075195312 84.99609375 188.951171875 102.606445312 203 c 4
 119.252929688 216.280273438 131.759765625 233.715820312 136 251 c 4
 147.637695312 298.4296875 150 337 150 421 c 6
EndSplineSet
EndChar

StartChar: h
Encoding: 104 104 42
Width: 1372
VWidth: 1920
Flags: HMW
AnchorPoint: "top" 243 1400 basechar 0
LayerCount: 2
Fore
SplineSet
156 506 m 2
 156 674 l 2
 156 911 148 1057 125 1086 c 0
 103.250976562 1113.421875 73.0498046875 1116.27246094 50 1135 c 0
 34 1148 20 1168 20 1193 c 0
 20 1232 28.2294921875 1261.08984375 91 1295 c 0
 178 1342 371 1405 531 1405 c 0
 572 1405 598 1402 598 1364 c 0
 598 1315 589 1130 589 902 c 0
 589 873 599 852 619 852 c 0
 632 852 642 861 662 892 c 0
 726.533203125 992.02734375 814 1023 920 1023 c 0
 1042 1023 1140.10058594 974.073242188 1184 914 c 0
 1241 836 1257 786 1257 439 c 0
 1257 383 1259.6875 293.487304688 1264 257 c 0
 1267.515625 227.251953125 1273.56542969 204.529296875 1283.44042969 190 c 0
 1295.93945312 171.608398438 1316.36328125 164.541015625 1329.21484375 153 c 0
 1343.75292969 139.9453125 1352 125.004882812 1352 94 c 0
 1352 38 1288 -21 1059 -21 c 0
 859 -21 742 -7 742 88 c 0
 742 120.651367188 748.51953125 134.340820312 759.118164062 146 c 0
 767.440429688 155.155273438 781.920898438 163.23046875 793.618164062 182 c 0
 802.321289062 195.96484375 806.383789062 216.502929688 812 251 c 0
 819.834960938 299.130859375 822 372 822 466 c 0
 822 660 773 711 692 711 c 0
 587 711 584 643 584 469 c 0
 584 353 585 278 587 242 c 0
 588.456054688 215.791992188 598 203 608 193 c 0
 624.970703125 176.029296875 636.130859375 164.836914062 646 150 c 0
 653.092773438 139.336914062 661 122 661 103 c 0
 661 1 536 -20 337 -20 c 0
 157 -20 25 28 25 105 c 0
 25 131.567382812 31.279296875 145.5625 41.3447265625 157 c 0
 55.4951171875 173.080078125 75.154296875 178.967773438 94.779296875 196 c 0
 112.873046875 211.703125 127.65625 232.473632812 136.799804688 277 c 0
 149.599609375 339.328125 156 434.299804688 156 506 c 2
EndSplineSet
EndChar

StartChar: r
Encoding: 114 114 43
Width: 1133
VWidth: 1920
Flags: HMW
AnchorPoint: "bottom" 572 15 basechar 0
AnchorPoint: "top" 618 1000 basechar 0
LayerCount: 2
Fore
SplineSet
152 416 m 2
 152 484 l 2
 152 638.491210938 149.920898438 694.774414062 124.609375 720 c 0
 101.267578125 743.262695312 60.328125 739.412109375 41 755.97265625 c 0
 29.5478515625 765.78515625 21 778.2890625 21 817 c 0
 21 882 46.9072265625 901.215820312 93 921 c 0
 312 1015 521 1031 552 1031 c 0
 582 1031 592.6484375 1005.04003906 594 978 c 0
 595 958 596 935 596 910 c 0
 596 881 613 871 623 871 c 0
 641 871 664.119477852 921.083386082 678 943 c 0
 716 1003 767 1048 873 1048 c 0
 1025 1048 1118 940 1118 795 c 0
 1118 659 1023 543 897 543 c 0
 671 543 711 699 669 699 c 0
 660.163085938 699 640.634765625 697.975585938 624.291015625 681 c 0
 609.913085938 666.06640625 598 638.787109375 598 589 c 0
 598 473 602.229492188 338.8515625 614 280 c 0
 621.055664062 244.721679688 635.38671875 229.569335938 655 219.419921875 c 0
 679 207 724.60546875 199.573242188 751.50390625 183 c 0
 770.72265625 171.158203125 784 150.220703125 784 107 c 0
 784 11 622 -22 403 -22 c 0
 183 -22 20 -14 20 103 c 0
 20 145.278320312 30.1005859375 167.297851562 45.1015625 182 c 0
 72.330078125 208.686523438 88.65625 207.48046875 114.009765625 226 c 0
 129.91015625 237.615234375 136.584960938 260.479492188 139 290 c 0
 141.532226562 320.9453125 152 402 152 416 c 2
EndSplineSet
EndChar

StartChar: j
Encoding: 106 106 44
Width: 787
VWidth: 1920
Flags: HMW
LayerCount: 2
Fore
SplineSet
37 1247 m 0
 37 1384 241 1442 398 1442 c 0
 525 1442 597 1384 597 1307 c 0
 597 1181 418 1098 231 1098 c 0
 124 1098 37 1151 37 1247 c 0
162 519 m 2
 161.766601562 625.959960938 162.100585938 669.719726562 144.331054688 692 c 0
 122 720 80.873046875 720.1015625 52 741.038085938 c 0
 35.376953125 753.091796875 19 776.78125 19 811 c 0
 19 856 45.841796875 894.165039062 101 920 c 0
 284.072265625 1005.74707031 442 1038 583 1038 c 0
 624 1038 659 1020 659 973 c 0
 659 897 659 838 659 512 c 2
 659 204 l 2
 659 57 659.853515625 -38.6171875 650 -117 c 0
 628 -292 531 -386 284 -386 c 0
 137 -386 1 -326 1 -226 c 0
 1 -183 30 -140 81 -140 c 0
 98.3056640625 -140 110.93359375 -141.025390625 121 -142.1484375 c 0
 133.159179688 -143.50390625 141.583007812 -145 150 -145 c 0
 178 -145 196 -133 196 -112 c 0
 196 -87 163.296875 -74.9990234375 163 61 c 2
 162 519 l 2
EndSplineSet
EndChar

StartChar: k
Encoding: 107 107 45
Width: 1555
VWidth: 1920
Flags: HMW
AnchorPoint: "bottom" 816 0 basechar 0
LayerCount: 2
Fore
SplineSet
189 591 m 6
 189 901 l 6
 189 986.440429688 187.103515625 1052.49707031 161.948242188 1080 c 4
 130.520507812 1114.36035156 72.3232421875 1099.76367188 46 1116.828125 c 4
 30.3818359375 1126.95214844 20 1147.18164062 20 1176 c 4
 20 1211 41.6962890625 1237.48046875 86 1261 c 4
 248 1347 436 1411 547 1411 c 4
 608 1411 646 1388 646 1331 c 4
 646 1275 630 1250 630 1114 c 6
 630 796 l 6
 630 774 637 741 667 741 c 4
 681 741 690 742 714 754 c 6
 795 795 l 6
 832 814 844 820 844 834 c 4
 844 842.967773438 842.012695312 849.017578125 836.494140625 856 c 4
 831.319335938 862.548828125 821.797851562 869.040039062 815.958007812 877 c 4
 807.817382812 888.096679688 802 903.05078125 802 924 c 4
 802 986 874 1035 1084 1035 c 4
 1301 1035 1388 1003 1388 894 c 4
 1388 863 1372 848 1350 840 c 4
 1322 830 1285 834 1250 829 c 4
 1230 826 1211 818 1196 807 c 6
 1078 720 l 6
 1052 697 1053 689 1080 653 c 6
 1377 272 l 6
 1399 243 1425 226 1447 213 c 4
 1470 199 1495 194 1513 183 c 4
 1538 167 1555 145 1555 91 c 4
 1555 37 1521 -9 1431 -9 c 6
 1181 -9 l 6
 1068 -9 1007 -19 979 2 c 4
 962 15 946 36 884 122 c 6
 726 340 l 6
 707 365 696 378 679 378 c 4
 666 378 647 365 647 330 c 4
 647 299 647 263 651 237 c 4
 654.163085938 216.439453125 663.068359375 201.798828125 674.234375 191 c 4
 687.006835938 178.647460938 704.736328125 172.014648438 718.211914062 161 c 4
 734.818359375 147.424804688 746 129.232421875 746 97 c 4
 746 -17 583 -25 384 -25 c 4
 204 -25 58 1 58 88 c 4
 58 113.07421875 62.8291015625 125.375 72.810546875 137 c 4
 87.498046875 154.10546875 118.22265625 164.079101562 137.629882812 182 c 4
 161.409179688 203.959960938 173.7109375 231.84375 180 269 c 4
 186.192382812 305.587890625 189 447 189 591 c 6
EndSplineSet
EndChar

StartChar: m
Encoding: 109 109 46
Width: 2042
VWidth: 1920
Flags: HMW
LayerCount: 2
Fore
SplineSet
156 481 m 2
 156 559 l 2
 156 626 148 672 125 701 c 0
 103.250976562 728.421875 73.0498046875 731.272460938 50 750 c 0
 34 763 20 783 20 808 c 0
 20 847 28.2294921875 876.08984375 91 910 c 0
 178 957 368 1043 528 1043 c 0
 569 1043 595 1039 595 1001 c 0
 595 972 589 935 589 907 c 0
 589 878 599 857 619 857 c 0
 632 857 642 866 662 897 c 0
 726.533203125 997.02734375 814 1028 940 1028 c 0
 1102 1028 1157.19335938 977.631835938 1194 919 c 0
 1215.58984375 884.607421875 1232.66308594 857 1259 857 c 0
 1273 857 1282 866 1302 897 c 0
 1366.53320312 997.02734375 1484 1028 1590 1028 c 0
 1712 1028 1810.10058594 979.073242188 1854 919 c 0
 1911 841 1927 791 1927 444 c 0
 1927 388 1929.6875 298.487304688 1934 262 c 0
 1937.515625 232.251953125 1943.56542969 209.529296875 1953.44042969 195 c 0
 1965.93945312 176.608398438 1986.36328125 169.541015625 1999.21484375 158 c 0
 2013.75292969 144.9453125 2022 130.004882812 2022 99 c 0
 2022 43 1958 -16 1729 -16 c 0
 1529 -16 1412 -2 1412 93 c 0
 1412 125.651367188 1418.51953125 139.340820312 1429.11816406 151 c 0
 1437.44042969 160.155273438 1451.92089844 168.23046875 1463.61816406 187 c 0
 1472.32128906 200.96484375 1476.38378906 221.502929688 1482 256 c 0
 1489.83496094 304.130859375 1492 377 1492 471 c 0
 1492 665 1443 716 1362 716 c 0
 1267 716 1257 581.557617188 1257 444 c 0
 1257 388 1259.6875 298.487304688 1264 262 c 0
 1267.515625 232.251953125 1273.56542969 209.529296875 1283.44042969 195 c 0
 1295.93945312 176.608398438 1316.36328125 169.541015625 1329.21484375 158 c 0
 1343.75292969 144.9453125 1352 130.004882812 1352 99 c 0
 1352 43 1288 -16 1059 -16 c 0
 859 -16 742 -2 742 93 c 0
 742 125.651367188 748.51953125 139.340820312 759.118164062 151 c 0
 767.440429688 160.155273438 781.920898438 168.23046875 793.618164062 187 c 0
 802.321289062 200.96484375 806.383789062 221.502929688 812 256 c 0
 819.834960938 304.130859375 822 377 822 471 c 0
 822 665 773 716 692 716 c 0
 587 716 584 648 584 474 c 0
 584 358 585 283 587 247 c 0
 588.456054688 220.791992188 598 208 608 198 c 0
 624.970703125 181.029296875 636.130859375 169.836914062 646 155 c 0
 653.092773438 144.336914062 661 127 661 108 c 0
 661 6 536 -15 337 -15 c 0
 157 -15 25 33 25 110 c 0
 25 136.567382812 31.279296875 150.5625 41.3447265625 162 c 0
 55.4951171875 178.080078125 75.154296875 183.967773438 94.779296875 201 c 0
 112.873046875 216.703125 127.65625 237.473632812 136.799804688 282 c 0
 149.599609375 344.328125 156 409.299804688 156 481 c 2
EndSplineSet
EndChar

StartChar: p
Encoding: 112 112 47
Width: 1356
VWidth: 1920
Flags: HMW
LayerCount: 2
Fore
SplineSet
178 254 m 6
 178 344 l 6
 178 591 171 666 136 686 c 4
 105.611328125 703.365234375 90 696 60 711 c 4
 42.111328125 719.944335938 20 738 20 783 c 4
 20 818 31.53515625 844.53125 60 869 c 4
 167.388671875 961.311523438 451 1062 562 1062 c 4
 601 1062 617 1041 617 1014 c 4
 617 998 616 986 616 968 c 4
 616 948 621.916992188 923 638 923 c 4
 652 923 661.10546875 940.626953125 685 965 c 4
 735 1016 834 1055 928 1055 c 4
 1180 1055 1321 795 1321 508 c 4
 1321 237 1129 -43 899 -43 c 4
 832 -43 749 -34 687 7 c 4
 662.2421875 23.3720703125 651 27 644 27 c 4
 632 27 632 -3 632 -25 c 4
 632 -65 635.329101562 -119.454101562 643 -140 c 4
 650.795898438 -160.879882812 663 -172 679 -186 c 4
 690.2890625 -195.877929688 714 -212 729 -222 c 4
 746.47265625 -233.6484375 759 -248 759 -282 c 4
 759 -357 668 -404 570 -404 c 4
 491 -404 344 -393 236 -355 c 4
 105.655273438 -309.137695312 45 -262 45 -196 c 4
 45 -159 58.25 -133.568359375 76 -126 c 4
 95.2578125 -117.7890625 111.2734375 -124.416015625 128 -115 c 4
 151.005859375 -102.048828125 161.298828125 -66.9091796875 165 -39 c 4
 172.436523438 17.0771484375 178 70 178 254 c 6
704 227 m 4
 813 227 857 300 857 455 c 4
 857 630 809 742 708 742 c 4
 655 742 627.786132812 711.981445312 626 638 c 6
 619 348 l 6
 616.490234375 244.036132812 634 227 704 227 c 4
EndSplineSet
EndChar

StartChar: q
Encoding: 113 113 48
Width: 1336
VWidth: 1920
Flags: HMW
LayerCount: 2
Fore
SplineSet
643 812 m 4
 594 812 515 756 515 621 c 4
 515 446 564 254 665 254 c 4
 726 254 749 293 749 403 c 6
 745 614 l 6
 743.030273438 717.924804688 701 812 643 812 c 4
932 1013 m 4
 959.83984375 1013 988.1484375 1020.75390625 1025 1033.88769531 c 4
 1048.89453125 1042.40332031 1067.11816406 1050.88574219 1079 1053 c 4
 1099.55761719 1056.65917969 1113 1058 1134 1058 c 4
 1184 1058 1223 1035 1223 991 c 4
 1223 943 1206.90429688 804.8984375 1201 737 c 4
 1195 668 1192 579 1192 472 c 6
 1192 207 l 6
 1192 117 1195.57519531 44.142578125 1197 9 c 4
 1198.98046875 -39.837890625 1208.44628906 -84.603515625 1226.65234375 -108 c 4
 1245.68261719 -132.456054688 1271.16503906 -138.985351562 1291.01757812 -162 c 4
 1307.63476562 -181.264648438 1316 -207.971679688 1316 -249 c 4
 1316 -317 1231 -371 1023 -371 c 4
 894 -371 803 -366 729 -333 c 4
 633.854492188 -290.5703125 610 -262 610 -216 c 4
 610 -187.385742188 620.493164062 -162.920898438 631.2578125 -152 c 4
 647.138671875 -135.888671875 666.137695312 -131.58203125 686.215820312 -121 c 4
 705.408203125 -110.884765625 720.692382812 -95.9990234375 731 -62 c 4
 739.337890625 -34.49609375 741 -15 741 14 c 4
 741 36 733 56 715 56 c 4
 700 56 682.869140625 44.4951171875 656 23 c 4
 616 -9 551 -35 467 -35 c 4
 235 -35 35 163 35 500 c 4
 35 821 276 1043 636 1043 c 4
 710.30859375 1043 756.618164062 1034.20410156 799 1028.44726562 c 4
 862.6171875 1019.80566406 896.106445312 1013 932 1013 c 4
EndSplineSet
EndChar

StartChar: s
Encoding: 115 115 49
Width: 964
VWidth: 1920
Flags: HMW
AnchorPoint: "bottom" 340 0 basechar 0
AnchorPoint: "top" 366 1030 basechar 0
LayerCount: 2
Fore
SplineSet
237 293 m 4
 299.547851562 214.815429688 354 186 398 186 c 260
 435 186 456 210 456 235 c 260
 456 285 434.8984375 300.708984375 321 349 c 4
 182.693359375 407.639648438 63 521 63 692 c 260
 63 875 218 1050 439 1050 c 260
 520 1050 575 1027 608 1027 c 4
 644 1027 676 1061 720 1061 c 4
 799 1061 891 891 891 803 c 4
 891 724 842 693 801 693 c 4
 760 693 729 704 695 728 c 4
 672.56640625 743.834960938 637.795898438 782.533203125 618 800 c 4
 601 815 577 834 539 834 c 260
 504 834 485 811 485 780 c 260
 485 737 508 714 678 635 c 4
 827.158203125 565.685546875 914 463 914 313 c 260
 914 120 740 -27 522 -27 c 260
 428.232421875 -27 360.299804688 -8.02734375 323 -8.02734375 c 4
 258 -8.02734375 212 -31 166.408203125 -4 c 4
 99.8115234375 35.4404296875 40 161.5234375 40 265 c 4
 40 314 65 365 110 365 c 4
 163 365 201 338 237 293 c 4
EndSplineSet
EndChar

StartChar: t
Encoding: 116 116 50
Width: 944
Flags: HMW
AnchorPoint: "bottom" 311 0 basechar 0
LayerCount: 2
Fore
SplineSet
624 455 m 6
 624 350 661 289 732 289 c 4
 768 289 800 307 820 322 c 4
 832.211914062 331.158203125 843 338 857 338 c 4
 888 338 929 281 929 226 c 4
 929 122 718 -17 538 -17 c 4
 335.123046875 -17 242.915039062 57.6943359375 201.57421875 157 c 4
 173.836914062 223.629882812 169 301.33984375 169 375 c 6
 169 806 l 6
 169 826 165 835 143 835 c 6
 40 835 l 6
 6 835 0 845 0 866 c 4
 0 897 0.662109375 941.975585938 2 960 c 4
 3.1171875 975.051757812 3.1689453125 983.684570312 23 997 c 6
 443 1279 l 6
 467.258789062 1295.28808594 493 1309 546 1309 c 4
 598 1309 636 1285 636 1224 c 4
 636 1166 632 1097 632 1076 c 4
 632 1055 638 1053 660 1053 c 6
 864 1053 l 6
 906 1053 921 1047 921 1020 c 4
 921 1017 920.506835938 1006.97460938 920 997 c 6
 914 879 l 6
 911.489257812 825.447265625 891 825 846 825 c 6
 644 825 l 6
 628 825 624 820 624 805 c 6
 624 455 l 6
EndSplineSet
EndChar

StartChar: u
Encoding: 117 117 51
Width: 1332
VWidth: 1920
Flags: HMW
AnchorPoint: "ogonek" 922 10 basechar 0
AnchorPoint: "top" 639 1000 basechar 0
LayerCount: 2
Fore
SplineSet
1194 623 m 2
 1194 555 l 2
 1194 369.802734375 1195.3515625 316.428710938 1219.15136719 287 c 0
 1238.30078125 263.3203125 1267.1015625 252.255859375 1282.49121094 241 c 0
 1303 226 1312 209.546875 1312 183 c 0
 1312 158 1290.46875 110.956054688 1251 80 c 0
 1149 0 957 -35 836 -35 c 0
 815 -35 805 -29 793 -5 c 0
 784 13 784 37 784 65 c 0
 784 84 776 103 760 103 c 0
 741 103 734.942382812 86.2392578125 716 69 c 0
 627 -12 567 -41 441 -41 c 0
 329 -41 247 9 200 75 c 0
 157 135 148 245 148 380 c 0
 148 496 148 677 148 720 c 0
 148 759.248046875 131.580078125 772.545898438 110 785.196289062 c 0
 91.279296875 796.170898438 61.4814453125 802.428710938 41.646484375 821 c 0
 27.2607421875 834.46875 20 858.27734375 20 895 c 0
 20 927.625976562 36.515625 963.025390625 79 979.732421875 c 0
 217 1034 400.872070312 1051 501 1051 c 0
 541 1051 580 1023 580 976 c 0
 580 908 573 731 573 423 c 0
 573 271 624 265 685 265 c 0
 748 265 779 316 779 460 c 0
 779 520 777 553 777 621 c 0
 777 685 776.870117188 740.958984375 770 763 c 0
 763.594726562 783.548828125 752.631835938 791.970703125 740 802.204101562 c 0
 721.0625 817.545898438 698.373046875 829.720703125 681.666992188 845 c 0
 668.166992188 857.345703125 658 873.000976562 658 901 c 0
 658 957.094726562 704.407226562 989.764648438 735 1007 c 0
 806 1047 985.840820312 1063 1104 1063 c 2
 1114 1063 l 2
 1184 1063 1203 1020 1203 973 c 0
 1203 885 1194 762 1194 623 c 2
EndSplineSet
EndChar

StartChar: w
Encoding: 119 119 52
Width: 1921
VWidth: 1920
Flags: HMW
AnchorPoint: "bottom" 998 0 basechar 0
AnchorPoint: "top" 1064 1000 basechar 0
LayerCount: 2
Fore
SplineSet
1497 787 m 0
 1506.30566406 805.612304688 1512 818 1512 831 c 0
 1512 850.333984375 1506.95898438 858.806640625 1499.64257812 867 c 0
 1489.93164062 877.874023438 1474.21386719 882.970703125 1462.95214844 895 c 0
 1452.71289062 905.9375 1445 920.796875 1445 951 c 0
 1445 1027 1518 1058 1719 1058 c 0
 1876 1058 1931 1030 1931 965 c 0
 1931 931.572265625 1927.6640625 900.0078125 1902.87695312 878 c 0
 1874.56445312 852.862304688 1846.40136719 859.248046875 1811.07519531 845 c 0
 1779.17578125 832.133789062 1759.8125 807.251953125 1727 726 c 0
 1617.828125 455.6640625 1494.00097656 186 1419 58 c 0
 1387.86425781 4.8623046875 1358 -36 1313 -36 c 0
 1266 -36 1205.51660156 39.76953125 1152 127 c 0
 1086.515625 233.73828125 1058 289 1013 384 c 0
 1000.51953125 410.348632812 992 426 971 426 c 0
 959 426 939 423 927 393 c 0
 868 250 809.840820312 143.081054688 765 55 c 0
 737 0 704 -40 653 -40 c 0
 598 -40 568 -10 519 77 c 0
 404.346679688 280.567382812 311.513671875 461.477539062 190 664 c 0
 155.987304688 720.6875 144.607421875 756.14453125 114 775.879882812 c 0
 89 792 42.0517578125 800.305664062 17.599609375 820 c 0
 0.828125 833.5078125 -10 850.444335938 -10 879 c 0
 -10 907.938476562 -5.587890625 934.798828125 17 956.958007812 c 0
 72.9326171875 1011.82910156 199.258789062 1043 346 1043 c 0
 422.421875 1043 512.663085938 1041.43359375 575 1025.84277344 c 0
 641.8671875 1009.11914062 677 964.8203125 677 907 c 0
 677 885.584960938 672.889648438 876.265625 667.485351562 870 c 0
 661.970703125 863.606445312 656.110351562 861.43359375 650.897460938 856 c 0
 646.311523438 851.220703125 642 845.91796875 642 833 c 0
 642 820 651.479492188 789.799804688 659 771 c 0
 673 736 685 707 703 669 c 0
 716.99609375 639.452148438 728 622 750 622 c 0
 771 622 778.241210938 633.37890625 789 654 c 0
 801 677 806.4609375 685.676757812 815 703 c 0
 824.471679688 722.213867188 829 731 829 741 c 0
 829 751 824.880859375 760.934570312 820 770 c 0
 813 783 813.936523438 783.998046875 804 799 c 0
 789.774414062 820.477539062 780.897460938 830.7109375 769.139648438 837 c 0
 756.659179688 843.67578125 742.205078125 844.12109375 730 853.615234375 c 0
 719.670898438 861.651367188 706 872.87109375 706 916 c 0
 706 948.641601562 725.573242188 983.005859375 750 1001.40429688 c 0
 811.74609375 1047.91113281 953.458007812 1054 1066 1054 c 0
 1155.99121094 1054 1244.09375 1048.56640625 1298 1024.91308594 c 0
 1337.85742188 1007.42382812 1362 978.48046875 1362 928 c 0
 1362 905.491210938 1354.39746094 887.688476562 1342.75 873 c 0
 1335.16601562 863.434570312 1321.71484375 854.765625 1314.48339844 846 c 0
 1304.60253906 834.0234375 1300 822.8671875 1300 808 c 0
 1300 787 1305.94433594 767.110351562 1315 749 c 0
 1324 731 1336 710 1347 690 c 0
 1362.51855469 661.783203125 1381 637 1396 637 c 0
 1415 637 1427.37011719 657.287109375 1439 682 c 0
 1455 716 1472 737 1497 787 c 0
EndSplineSet
EndChar

StartChar: x
Encoding: 120 120 53
Width: 1229
VWidth: 1920
Flags: HMW
LayerCount: 2
Fore
SplineSet
832 799 m 2
 847 823 l 2
 858.611328125 841.578125 864 854 864 867 c 0
 864 874.763671875 862.955078125 879.443359375 860.198242188 885 c 0
 855.904296875 893.654296875 845.749023438 899.372070312 839.854492188 908 c 0
 834.383789062 916.0078125 830 926.383789062 830 949 c 0
 830 1005 880 1047 1038 1047 c 0
 1189 1047 1229 1011 1229 958 c 0
 1229 911.514648438 1216.75 895.479492188 1197.76074219 886 c 0
 1182.33691406 878.299804688 1162.99609375 877.59765625 1136 865.294921875 c 0
 1111.06835938 853.93359375 1085.67089844 842.005859375 1053 793 c 2
 909 577 l 2
 904.146484375 569.719726562 894 555 894 542 c 0
 894 531 902.92578125 514.5625 906 510 c 2
 1063 262 l 2
 1074.33398438 245.333007812 1088.80371094 231.076171875 1103 221.325195312 c 0
 1131.96972656 201.427734375 1161.96289062 196.965820312 1185 181.756835938 c 0
 1204.06835938 169.16796875 1218 149.641601562 1218 120 c 0
 1218 14.2900390625 1054 -9 874 -9 c 0
 693 -9 499 -24 499 90 c 0
 499 120.140625 506.212890625 136.764648438 518.306640625 148 c 0
 532.734375 161.404296875 550.263671875 168.137695312 563.13671875 180 c 0
 570.549804688 186.831054688 577 195.461914062 577 210 c 0
 577 229 571.336914062 235.387695312 563 248 c 2
 524 307 l 2
 512.217773438 324.82421875 502 334 482 334 c 0
 465 334 452.646484375 326.155273438 441 310 c 2
 410 267 l 2
 384.588867188 231.751953125 369 196 369 183 c 0
 369 169.692382812 372.198242188 160.458984375 376.92578125 153 c 0
 383.26953125 142.991210938 394.385742188 136.240234375 403.188476562 128 c 0
 410.8828125 120.797851562 417 110.67578125 417 83 c 0
 417 27 366 -19 208 -19 c 0
 57 -19 0 20 0 73 c 0
 0 100.006835938 11.0126953125 118.588867188 24 129.760742188 c 0
 42.71484375 145.859375 70.0380859375 147.715820312 98 159.740234375 c 0
 124.244140625 171.026367188 146.049804688 191.866210938 166 225 c 2
 341 519 l 2
 346.80078125 528.634765625 354 541 354 552 c 0
 354 566 347.599609375 578.200195312 341 587 c 2
 238 724 l 2
 210.306640625 760.924804688 183.362304688 793.266601562 155 809.053710938 c 0
 117.142578125 830.126953125 83.1044921875 828.524414062 58 845.342773438 c 0
 40.1455078125 857.3046875 28 875.8359375 28 905 c 0
 28 1021 246 1044 416 1044 c 0
 627 1044 755 1035 755 954 c 0
 755 929.59375 749.853515625 916.244140625 741.1640625 905 c 0
 734.008789062 895.740234375 726.857421875 890.64453125 721.200195312 883 c 0
 714.333984375 873.720703125 711 862.092773438 711 851 c 0
 711 832 714.258789062 819.237304688 723 807 c 2
 733 793 l 2
 746.513671875 774.081054688 758 766 782 766 c 0
 800 766 817.583007812 775.93359375 832 799 c 2
EndSplineSet
EndChar

StartChar: y
Encoding: 121 121 54
Width: 1251
VWidth: 1920
Flags: HMW
AnchorPoint: "top" 750 1070 basechar 0
LayerCount: 2
Fore
SplineSet
25 -127 m 0
 25 -4 102 90 203 90 c 0
 296 90 347 36 363 -16 c 0
 382 -76 377 -134 420 -134 c 0
 430 -134 440 -131 449 -126 c 0
 458 -121 466 -114 473 -104 c 0
 481 -91 487 -75 487 -56 c 0
 487 -23 474 43 436 118 c 0
 340 308 262 491 169 678 c 0
 129 759 112 771 92 787 c 0
 74 802 40 804 21 820 c 0
 3 835 -10 853 -10 882 c 0
 -10 936 18 973 67 998 c 0
 142 1037 264 1049 403 1049 c 0
 582 1049 698 1043 698 913 c 0
 698 883 690 866 680 854 c 0
 665 836 652 828 652 808 c 0
 652 800 655 789 659 777 c 0
 672 739 699 678 719 643 c 0
 741 604 748 591 763 591 c 0
 802 591 831 626 845 674 c 0
 853 702 858 725 860 743 c 0
 863 765 863 779 863 787 c 0
 863 813 856 828 845 841 c 0
 835 853 819 861 809 874 c 0
 800 886 793 898 793 923 c 0
 793 1031 925 1057 1055 1057 c 0
 1210 1057 1261 1009 1261 930 c 0
 1261 857 1206 849 1142 824 c 0
 1091 804 1047 688 999 554 c 2
 881 220 l 2
 845 119 802 -13 756 -92 c 0
 662 -253 526 -353 330 -353 c 0
 143 -353 25 -237 25 -127 c 0
EndSplineSet
EndChar

StartChar: z
Encoding: 122 122 55
Width: 1066
VWidth: 1920
Flags: HMW
AnchorPoint: "top" 501 1000 basechar 0
LayerCount: 2
Fore
SplineSet
331 -4 m 0
 285 -4 225 -6 161 -6 c 0
 98 -6 60 11 60 63 c 0
 60 86 69.77734375 115.748046875 91 155 c 2
 410 745 l 2
 418.103515625 759.98828125 428 779 428 789 c 0
 428 803 413 818 379 818 c 0
 327 818 306.086914062 814.765625 274 803 c 0
 214 781 214 713 183 665 c 0
 170.521484375 645.678710938 146 631 125 631 c 0
 80 631 15 665 15 743 c 0
 15 836 103 1066 199 1066 c 0
 253 1066 285 1039 363 1039 c 0
 449 1039 698 1037 743 1037 c 0
 819 1037 835 1047 889 1047 c 0
 952 1047 995 1010 995 956 c 0
 995 932 972.786132812 890.662109375 959 864 c 2
 671 307 l 2
 665.115234375 295.618164062 661 288 661 278 c 0
 661 261 684 251 708 251 c 0
 750 251 779 258 802 269 c 0
 844 289 883 317 898 367 c 0
 904.665039062 389.216796875 918 408 950 408 c 0
 995 408 1051 356 1051 298 c 0
 1051 165 949 -32 863 -32 c 0
 809 -32 802 2 724 2 c 0
 648 2 416 -4 331 -4 c 0
EndSplineSet
EndChar

StartChar: period
Encoding: 46 46 56
Width: 569
VWidth: 1920
Flags: HMW
LayerCount: 2
Fore
SplineSet
144 123 m 4
 144 200 207 263 284 263 c 4
 361 263 424 200 424 123 c 4
 424 46 361 -17 284 -17 c 4
 207 -17 144 46 144 123 c 4
EndSplineSet
EndChar

StartChar: comma
Encoding: 44 44 57
Width: 569
VWidth: 1920
Flags: MW
LayerCount: 2
Fore
SplineSet
240 -261 m 4
 240 -236 259 -222 280 -209 c 4
 306 -193 356 -104 356 -44 c 4
 356 -14 346 -9 335 -9 c 4
 326 -9 312 -17 284 -17 c 4
 207 -17 144 46 144 123 c 4
 144 200 207 263 284 263 c 4
 392 263 452 152 452 10 c 4
 452 -148 344 -298 280 -298 c 4
 256 -298 240 -285 240 -261 c 4
EndSplineSet
Validated: 1
EndChar

StartChar: uniFB00
Encoding: 64256 64256 58
Width: 1671
VWidth: 1920
Flags: HMW
LayerCount: 2
Fore
SplineSet
136 600 m 6
 75 600 l 6
 35 600 15 615 15 655 c 4
 15 700 23 756 35 797 c 4
 40.6875 816.43359375 50 820 67 820 c 6
 92 820 l 6
 112 820 121 829 121 848 c 6
 121 851 l 6
 121 908 50 920 50 1069 c 4
 50 1334 299 1412 476 1412 c 4
 648.027879728 1412 797.617834694 1347.57038184 872 1267 c 4
 882.083757921 1256.07732488 883 1252 889 1252 c 4
 894.162109375 1252 895 1258 900 1267 c 4
 973 1415 1155.47534246 1463 1294 1463 c 4
 1541 1463 1671 1329 1671 1208 c 4
 1671 1115 1600 1043 1519 1043 c 4
 1454.61757673 1043 1407.64160156 1067.37597656 1379 1097.98339844 c 4
 1353.57617188 1125.15332031 1340.18066406 1154.17871094 1318.27832031 1178 c 4
 1296.46289062 1201.72558594 1267.83547874 1219 1234 1219 c 4
 1201 1219 1173 1190 1173 1143 c 4
 1173 1027 1390.13180218 979.518726029 1392 916 c 6
 1393 882 l 6
 1394.10052939 844.582000864 1425 832 1450 832 c 6
 1542 832 l 6
 1587 832 1610 830 1610 795 c 4
 1610 770 1601.42285156 686.977539062 1599 663 c 4
 1594.24804688 615.974609375 1593 603 1553 603 c 6
 1492 603 l 6
 1435 603 1420 576 1420 519 c 6
 1420 512 l 6
 1420 418 1428 365 1433 328 c 4
 1439.03125 283.372070312 1453.09277344 259.747070312 1475 242.66796875 c 4
 1504.17871094 219.921875 1538.27929688 221.075195312 1564.69238281 202 c 4
 1585.03613281 187.307617188 1600 159.653320312 1600 126 c 4
 1600 10 1419 -18 1190 -18 c 4
 990 -18 849 14 849 117 c 4
 849 152.939453125 871.7109375 179.978515625 890.461914062 193 c 4
 911.471679688 207.590820312 932.810546875 210.8828125 955.282226562 229 c 4
 973.108398438 243.372070312 981.147460938 265.475585938 985 304 c 4
 991 364 999 468 999 512 c 6
 999 536 l 6
 999 575 993 600 954 600 c 6
 674 600 l 6
 617 600 602 576 602 519 c 6
 602 512 l 6
 602 418 610 365 615 328 c 4
 621.03125 283.372070312 635.092773438 259.747070312 657 242.66796875 c 4
 686.178710938 219.921875 720.279296875 221.075195312 746.692382812 202 c 4
 767.036132812 187.307617188 782 159.653320312 782 126 c 4
 782 10 601 -18 372 -18 c 4
 172 -18 31 14 31 117 c 4
 31 152.939453125 53.7109375 179.978515625 72.4619140625 193 c 4
 93.4716796875 207.590820312 114.810546875 210.8828125 137.282226562 229 c 4
 155.108398438 243.372070312 163.147460938 265.475585938 167 304 c 4
 173 364 181 468 181 512 c 6
 181 536 l 6
 181 575 175 600 136 600 c 6
858 1022 m 4
 833 1003 802.763995054 992 771 992 c 4
 716.585180016 992 671.964749779 1009.41224844 633 1033.28316885 c 4
 589.958392643 1059.65168885 563.818359375 1093.90136719 529 1121.26757812 c 4
 495.126953125 1147.890625 452.505854854 1168 416 1168 c 4
 383 1168 355 1139 355 1092 c 4
 355 976 560.704101562 918.182617188 574 865 c 6
 575 861 l 6
 581.8125 833.75 607 832 632 832 c 6
 910 832 l 6
 930 832 939 841 939 860 c 6
 939 863 l 6
 939 904.84841363 900 943 880 1020 c 4
 878 1028 877 1032 874 1032 c 4
 871 1032 867 1029 858 1022 c 4
EndSplineSet
LCarets2: 1 0
Ligature2: "'liga' Standard Ligatures lookup" f f
EndChar

StartChar: uniFB01
Encoding: 64257 64257 59
Width: 1575
VWidth: 1920
Flags: HMW
LayerCount: 2
Fore
SplineSet
998 421 m 6
 998 509 l 6
 998 566.869140625 980 692 907.6484375 692 c 6
 674 692 l 6
 617 692 602 665 602 608 c 6
 602 512 l 6
 602 418 610 365 615 328 c 4
 621.03125 283.372070312 635.092773438 259.747070312 657 242.66796875 c 4
 686.178710938 219.921875 720.279296875 221.075195312 746.692382812 202 c 4
 767.036132812 187.307617188 782 159.653320312 782 126 c 4
 782 10 601 -18 372 -18 c 4
 172 -18 31 14 31 117 c 4
 31 152.939453125 53.7109375 179.978515625 72.4619140625 193 c 4
 93.4716796875 207.590820312 114.810546875 210.8828125 137.282226562 229 c 4
 155.108398438 243.372070312 163.147460938 265.475585938 167 304 c 4
 173 364 181 468 181 512 c 6
 181 625 l 6
 181 664 175 689 136 689 c 6
 75 689 l 6
 35 689 15 704 15 744 c 4
 15 789 23 845 35 886 c 4
 40.6875 905.43359375 50 909 67 909 c 6
 92 909 l 6
 112 909 121 918 121 937 c 6
 121 940 l 6
 121 997 50 979 50 1128 c 4
 50 1393 409 1471 706 1471 c 4
 1093 1471 1283 1278 1283 1157 c 4
 1283 1064 1222 1031 1091 1031 c 4
 960.611328125 1031 917.815429688 1053.4453125 889 1089.36328125 c 4
 866.609375 1117.2734375 869.500838589 1150.21856631 853 1177.27734375 c 4
 827.940429688 1218.37109375 753.860351562 1247 636 1247 c 4
 523 1247 405 1218 405 1151 c 4
 405 1035 560.704101562 1007.18261719 574 954 c 6
 575 950 l 6
 581.8125 922.75 607 921 632 921 c 6
 1374 921 l 6
 1446 921 1446 901 1446 782 c 6
 1446 424 l 6
 1446 348 1447.22851562 302.39453125 1452 269 c 4
 1456.16015625 239.881835938 1470.20117188 217.467773438 1482.08789062 206 c 4
 1498.53808594 190.129882812 1516.79003906 187.036132812 1532.29101562 171 c 4
 1548.09570312 154.650390625 1555 138.124023438 1555 97 c 4
 1555 1 1420 -30 1221 -30 c 4
 1011 -30 871 -1 871 96 c 4
 871 123.165039062 878.748046875 145.361328125 893.666015625 162 c 4
 909.87109375 180.075195312 932.99609375 188.951171875 950.606445312 203 c 4
 967.252929688 216.280273438 979.759765625 233.715820312 984 251 c 4
 995.637695312 298.4296875 998 337 998 421 c 6
EndSplineSet
LCarets2: 1 0
Ligature2: "'liga' Standard Ligatures lookup" f i
EndChar

StartChar: uniFB02
Encoding: 64258 64258 60
Width: 1613
VWidth: 1920
Flags: HMW
LayerCount: 2
Fore
SplineSet
121 848 m 6
 121 851 l 6
 121 908 50 920 50 1069 c 4
 50 1334 359 1412 626 1412 c 4
 791.779012306 1412 934 1381 1004 1350.03417969 c 4
 1026.24581385 1340.19332434 1034.10942934 1334.39465315 1046.99999538 1334.39465315 c 4
 1079 1334.39465315 1321.58503662 1411 1420 1411 c 4
 1461 1411 1486 1405 1486 1361 c 4
 1486 1235 1467 1022 1467 836 c 6
 1467 604 l 6
 1467 348 1478 286 1495 240 c 4
 1503.43261719 216.576171875 1515.35839844 202.889648438 1528 193.133789062 c 4
 1543.62597656 181.075195312 1562.34472656 175.01953125 1574.9140625 163 c 4
 1586.35644531 152.056640625 1593 138.668945312 1593 110 c 4
 1593 34 1509 -15 1270 -15 c 4
 1020 -15 893 7 893 94 c 4
 893 133 912 152 931 163 c 4
 946.578125 172.018554688 969 180 984 188 c 4
 1000.76464844 196.94140625 1017.26660156 212.583984375 1024 240 c 4
 1038 297 1057 427 1057 591 c 6
 1057 813 l 6
 1057 887.843652257 1046.61208291 947.458934232 1040.89019855 993.453392209 c 4
 1033.8402896 1050.12296469 774.9921875 1198 556 1198 c 4
 433 1198 355 1149 355 1092 c 4
 355 976 560.704101562 918.182617188 574 865 c 6
 575 861 l 6
 581.8125 833.75 607 832 632 832 c 6
 724 832 l 6
 769 832 792 830 792 795 c 4
 792 770 783.422851562 686.977539062 781 663 c 4
 776.248046875 615.974609375 775 603 735 603 c 6
 674 603 l 6
 617 603 602 576 602 519 c 6
 602 512 l 6
 602 418 610 365 615 328 c 4
 621.03125 283.372070312 635.092773438 259.747070312 657 242.66796875 c 4
 686.178710938 219.921875 720.279296875 221.075195312 746.692382812 202 c 4
 767.036132812 187.307617188 782 159.653320312 782 126 c 4
 782 10 601 -18 372 -18 c 4
 172 -18 31 14 31 117 c 4
 31 152.939453125 53.7109375 179.978515625 72.4619140625 193 c 4
 93.4716796875 207.590820312 114.810546875 210.8828125 137.282226562 229 c 4
 155.108398438 243.372070312 163.147460938 265.475585938 167 304 c 4
 173 364 181 468 181 512 c 6
 181 536 l 6
 181 575 175 600 136 600 c 6
 75 600 l 6
 35 600 15 615 15 655 c 4
 15 700 23 756 35 797 c 4
 40.6875 816.43359375 50 820 67 820 c 6
 92 820 l 6
 112 820 121 829 121 848 c 6
EndSplineSet
LCarets2: 1 0
Ligature2: "'liga' Standard Ligatures lookup" f l
EndChar

StartChar: uniFB03
Encoding: 64259 64259 61
Width: 2345
VWidth: 1920
Flags: HMW
LayerCount: 2
Fore
SplineSet
1808 421 m 6
 1808 509 l 6
 1808 566.869140625 1790 692 1717.6484375 692 c 6
 1484 692 l 6
 1427 692 1412 665 1412 608 c 6
 1412 512 l 6
 1412 418 1420 365 1425 328 c 4
 1431.03125 283.372070312 1445.09277344 259.747070312 1467 242.66796875 c 4
 1496.17871094 219.921875 1530.27929688 221.075195312 1556.69238281 202 c 4
 1577.03613281 187.307617188 1592 159.653320312 1592 126 c 4
 1592 10 1411 -18 1182 -18 c 4
 982 -18 841 14 841 117 c 4
 841 152.939453125 863.7109375 179.978515625 882.461914062 193 c 4
 903.471679688 207.590820312 924.810546875 210.8828125 947.282226562 229 c 4
 965.108398438 243.372070312 973.147460938 265.475585938 977 304 c 4
 983 364 991 468 991 512 c 6
 991 625 l 6
 991 664 985 689 946 689 c 6
 674 689 l 6
 617 689 602 666 602 609 c 6
 602 512 l 6
 602 418 610 365 615 328 c 4
 621.03125 283.372070312 635.092773438 259.747070312 657 242.66796875 c 4
 686.178710938 219.921875 720.279296875 221.075195312 746.692382812 202 c 4
 767.036132812 187.307617188 782 159.653320312 782 126 c 4
 782 10 601 -18 372 -18 c 4
 172 -18 31 14 31 117 c 4
 31 152.939453125 53.7109375 179.978515625 72.4619140625 193 c 4
 93.4716796875 207.590820312 114.810546875 210.8828125 137.282226562 229 c 4
 155.108398438 243.372070312 163.147460938 265.475585938 167 304 c 4
 173 364 181 468 181 512 c 6
 181 616 l 6
 181 655 175 680 136 680 c 6
 75 680 l 6
 35 680 15 695 15 735 c 4
 15 780 23 836 35 877 c 4
 40.6875 896.43359375 50 900 67 900 c 6
 92 900 l 6
 112 900 121 909 121 928 c 6
 121 931 l 6
 121 968 50 990 50 1109 c 4
 50 1344 299 1412 476 1412 c 4
 621.966357809 1412 812.255133566 1388.65194899 911.999997026 1332.35821912 c 4
 922.3621759 1326.5100413 933 1319.73632812 940.00390625 1319.73632812 c 4
 945.031878428 1319.73632812 949.822500473 1322.87786595 954.999995688 1327.26930394 c 4
 1081.6005982 1434.64916084 1313.24742736 1471.00000047 1516 1471 c 4
 1903 1471 2093 1278 2093 1157 c 4
 2093 1064 2032 1031 1901 1031 c 4
 1770.61132812 1031 1727.81542969 1053.4453125 1699 1089.36328125 c 4
 1676.609375 1117.2734375 1679.50097656 1150.21875 1663 1177.27734375 c 4
 1637.94042969 1218.37109375 1563.86035156 1247 1446 1247 c 4
 1333 1247 1215 1218 1215 1151 c 4
 1215 1035 1370.70410156 1007.18261719 1384 954 c 6
 1385 950 l 6
 1391.8125 922.75 1417 921 1442 921 c 6
 2184 921 l 6
 2256 921 2256 901 2256 782 c 6
 2256 424 l 6
 2256 348 2257.22851562 302.39453125 2262 269 c 4
 2266.16015625 239.881835938 2280.20117188 217.467773438 2292.08789062 206 c 4
 2308.53808594 190.129882812 2326.79003906 187.036132812 2342.29101562 171 c 4
 2358.09570312 154.650390625 2365 138.124023438 2365 97 c 4
 2365 1 2230 -30 2031 -30 c 4
 1821 -30 1681 -1 1681 96 c 4
 1681 123.165039062 1688.74804688 145.361328125 1703.66601562 162 c 4
 1719.87109375 180.075195312 1742.99609375 188.951171875 1760.60644531 203 c 4
 1777.25292969 216.280273438 1789.75976562 233.715820312 1794 251 c 4
 1805.63769531 298.4296875 1808 337 1808 421 c 6
902 909 m 6
 922 909 931 918 931 937 c 6
 931 940 l 6
 931 979.747298128 875.576270317 971 875.576270317 1031.89078059 c 4
 875.576270317 1034.65607556 871.450909196 1040.48270616 863 1048.23817524 c 4
 844.980265266 1064.77503445 807.293945312 1109.08203125 748 1135.17871094 c 4
 674.436811548 1167.5556249 563.745117188 1188 446 1188 c 4
 383 1188 355 1139 355 1092 c 4
 355 976 560.704101562 995.182617188 574 942 c 6
 575 938 l 6
 581.8125 910.75 607 909 632 909 c 6
 902 909 l 6
EndSplineSet
LCarets2: 2 0 0
Ligature2: "'liga' Standard Ligatures lookup" f f i
EndChar

StartChar: uniFB04
Encoding: 64260 64260 62
Width: 2345
VWidth: 1920
Flags: HMW
LayerCount: 2
Fore
SplineSet
902 909 m 2
 922 909 931 918 931 937 c 2
 931 940 l 2
 931 979.747298128 875.576270317 971 875.576270317 1031.89078059 c 0
 875.576270317 1034.65607556 871.450909196 1040.48270616 863 1048.23817524 c 0
 844.980265266 1064.77503445 807.293945312 1109.08203125 748 1135.17871094 c 0
 674.436811548 1167.5556249 563.745117188 1188 446 1188 c 0
 383 1188 355 1139 355 1092 c 0
 355 976 560.704101562 995.182617188 574 942 c 2
 575 938 l 2
 581.8125 910.75 607 909 632 909 c 2
 902 909 l 2
674 689 m 2
 617 689 602 666 602 609 c 2
 602 512 l 2
 602 418 610 365 615 328 c 0
 621.03125 283.372070312 635.092773438 259.747070312 657 242.66796875 c 0
 686.178710938 219.921875 720.279296875 221.075195312 746.692382812 202 c 0
 767.036132812 187.307617188 782 159.653320312 782 126 c 0
 782 10 601 -18 372 -18 c 0
 172 -18 31 14 31 117 c 0
 31 152.939453125 53.7109375 179.978515625 72.4619140625 193 c 0
 93.4716796875 207.590820312 114.810546875 210.8828125 137.282226562 229 c 0
 155.108398438 243.372070312 163.147460938 265.475585938 167 304 c 0
 173 364 181 468 181 512 c 2
 181 616 l 2
 181 655 175 680 136 680 c 2
 75 680 l 2
 35 680 15 695 15 735 c 0
 15 780 23 836 35 877 c 0
 40.6875 896.43359375 50 900 67 900 c 2
 92 900 l 2
 112 900 121 909 121 928 c 2
 121 931 l 2
 121 968 50 990 50 1109 c 0
 50 1344 299 1412 476 1412 c 0
 621.966357809 1412 822.254882812 1358.65234375 922 1302.35839844 c 0
 932.362304688 1296.50976562 943 1289.73632812 950.00390625 1289.73632812 c 0
 955.032226562 1289.73632812 959.822265625 1292.87792969 965 1297.26953125 c 0
 1066.44121592 1383.30977977 1298.32645195 1412.00000008 1436 1412 c 0
 1601.77929688 1412 1744 1381 1814 1350.03417969 c 0
 1836.24609375 1340.19335938 1844.109375 1334.39453125 1857 1334.39453125 c 0
 1889 1334.39453125 2131.58496094 1411 2230 1411 c 0
 2271 1411 2296 1405 2296 1361 c 0
 2296 1235 2277 1022 2277 836 c 2
 2277 604 l 2
 2277 348 2288 286 2305 240 c 0
 2313.43261719 216.576171875 2325.35839844 202.889648438 2338 193.133789062 c 0
 2353.62597656 181.075195312 2372.34472656 175.01953125 2384.9140625 163 c 0
 2396.35644531 152.056640625 2403 138.668945312 2403 110 c 0
 2403 34 2319 -15 2080 -15 c 0
 1830 -15 1703 7 1703 94 c 0
 1703 133 1722 152 1741 163 c 0
 1756.578125 172.018554688 1779 180 1794 188 c 0
 1810.76464844 196.94140625 1827.26660156 212.583984375 1834 240 c 0
 1848 297 1867 427 1867 591 c 2
 1867 813 l 2
 1867 887.84375 1856.61230469 947.458984375 1850.890625 993.453125 c 0
 1843.83984375 1050.12304688 1584.9921875 1198 1366 1198 c 0
 1243 1198 1165 1149 1165 1092 c 0
 1165 976 1370.70410156 918.182617188 1384 865 c 2
 1385 861 l 2
 1391.8125 833.75 1417 832 1442 832 c 2
 1534 832 l 2
 1579 832 1602 830 1602 795 c 0
 1602 770 1593.42285156 686.977539062 1591 663 c 0
 1586.24804688 615.974609375 1585 603 1545 603 c 2
 1484 603 l 2
 1427 603 1412 576 1412 519 c 2
 1412 512 l 2
 1412 418 1420 365 1425 328 c 0
 1431.03125 283.372070312 1445.09277344 259.747070312 1467 242.66796875 c 0
 1496.17871094 219.921875 1530.27929688 221.075195312 1556.69238281 202 c 0
 1577.03613281 187.307617188 1592 159.653320312 1592 126 c 0
 1592 10 1411 -18 1182 -18 c 0
 982.267578125 -18 841 13.9071036302 841 117 c 0
 841 152.939453125 863.7109375 179.978515625 882.461914062 193 c 0
 903.471679688 207.590820312 924.810546875 210.8828125 947.282226562 229 c 0
 965.108398438 243.372070312 973.147460938 265.475585938 977 304 c 0
 983 364 991 468 991 512 c 2
 991 625 l 2
 991 664 985 689 946 689 c 2
 674 689 l 2
EndSplineSet
LCarets2: 2 0 0
Ligature2: "'liga' Standard Ligatures lookup" f f l
EndChar

StartChar: quotesingle
Encoding: 39 39 63
Width: 569
VWidth: 1920
Flags: HMW
LayerCount: 2
Fore
SplineSet
229 979 m 4
 206 979 203 994 203 1024 c 4
 203 1054.78417969 212.543945312 1094.77050781 212.543945312 1160 c 4
 212.543945312 1213.70019531 205 1281.82910156 205 1342 c 4
 205 1407 277 1453 344 1453 c 4
 389 1453 414 1435 414 1400 c 4
 414 1341.19433594 335.352539062 1217.45410156 310.293945312 1127 c 4
 274.833984375 999 254.833984375 979 229 979 c 4
EndSplineSet
Validated: 1
EndChar

StartChar: quoteright
Encoding: 8217 8217 66
Width: 569
VWidth: 1920
Flags: HMW
LayerCount: 2
Fore
SplineSet
250 977 m 4
 250 1002 273.513671875 1017.61132812 290 1036 c 4
 316 1065 336 1106 336 1166 c 4
 336 1196 326 1201 315 1201 c 4
 306 1201 300 1197 272 1197 c 4
 205 1197 134 1246 134 1323 c 4
 134 1400 187 1453 264 1453 c 4
 372 1453 422 1372 422 1230 c 4
 422 1062 334 940 280 940 c 4
 266 940 250 953 250 977 c 4
EndSplineSet
Validated: 1
EndChar

StartChar: quoteleft
Encoding: 8216 8216 67
Width: 569
VWidth: 1920
Flags: HMW
LayerCount: 2
Fore
SplineSet
319 1436 m 4
 319 1411 295.486328125 1395.38867188 279 1377 c 4
 253 1348 233 1307 233 1247 c 4
 233 1217 243 1212 254 1212 c 4
 263 1212 269 1216 297 1216 c 4
 364 1216 435 1167 435 1090 c 4
 435 1013 382 960 305 960 c 4
 197 960 147 1041 147 1183 c 4
 147 1351 235 1473 289 1473 c 4
 303 1473 319 1460 319 1436 c 4
EndSplineSet
Validated: 1
EndChar

StartChar: hyphen
Encoding: 45 45 71
Width: 569
Flags: HMW
LayerCount: 2
Fore
SplineSet
64 446 m 4
 64 470 90 523 118 553 c 4
 132 568 145 576 166 576 c 4
 229 576 255 561 308 561 c 4
 400 561 419 577 474 577 c 4
 493 577 506 560 506 541 c 4
 506 517 493 478 476 447 c 4
 467 430 453 421 434 421 c 4
 384 421 312 434 176 434 c 4
 152 434 108 418 93 418 c 4
 79 418 64 428 64 446 c 4
EndSplineSet
EndChar

StartChar: exclam
Encoding: 33 33 73
Width: 569
VWidth: 1920
Flags: MW
LayerCount: 2
Fore
SplineSet
154 1313 m 4
 154 1420 207 1473 284 1473 c 4
 361 1473 414 1420 414 1313 c 4
 414 1201.91015625 339.16796875 565.01953125 333.7890625 528 c 4
 326.236328125 476.016601562 329.910630452 433 284 433 c 4
 238.089370282 433 241.763671875 476.016601562 234.2109375 528 c 4
 228.83203125 565.01953125 154 1201.91015625 154 1313 c 4
144 123 m 0
 144 200 207 263 284 263 c 0
 361 263 424 200 424 123 c 0
 424 46 361 -17 284 -17 c 0
 207 -17 144 46 144 123 c 0
EndSplineSet
Validated: 1
EndChar

StartChar: question
Encoding: 63 63 74
Width: 797
VWidth: 1920
Flags: HMW
LayerCount: 2
Fore
SplineSet
394 418 m 4
 348 418 322 490 322 584 c 4
 322 758 512 945 512 1172 c 4
 512 1289 414 1348 340 1348 c 4
 286 1348 256 1326 256 1311 c 4
 256 1286 282 1278 282 1228 c 12
 282 1178 255 1113 186 1113 c 4
 127 1113 86 1169 86 1219 c 4
 86 1329 242 1454 450 1454 c 4
 608 1454 696 1341 696 1200 c 4
 696 989 408 750 408 621 c 4
 408 532 442 500 442 468 c 4
 442 436 420 418 394 418 c 4
268 103 m 4
 268 170 315 223 388 223 c 4
 460 223 508 170 508 103 c 4
 508 36 460 -17 388 -17 c 4
 315 -17 268 36 268 103 c 4
EndSplineSet
EndChar

StartChar: ampersand
Encoding: 38 38 75
Width: 1595
Flags: HMW
LayerCount: 2
Fore
SplineSet
914 415 m 0
 845 415 785 464 785 576 c 0
 785 954.850585938 1284 997.99609375 1284 1112 c 0
 1284 1135 1266 1153 1243 1153 c 0
 1200 1153 1193 1144 1175 1144 c 0
 1153 1144 1138 1155 1138 1178 c 0
 1138 1325 1291 1384 1417 1384 c 0
 1563 1384 1695 1265 1695 1107 c 0
 1695 649.754882812 968 660.978515625 968 550 c 0
 968 516.84765625 987.55859375 496.67578125 987.55859375 471 c 0
 987.55859375 437 961.510742188 415 914 415 c 0
820 1131 m 0
 792.987610478 1131 772.849609375 1144.36035156 751 1162.97070312 c 0
 723.80859375 1186.12988281 687.269317664 1208 640 1208 c 0
 575 1208 541 1139 541 1075 c 0
 541 931 558 876 606 876 c 0
 624 876 601 866 601 833 c 0
 601 805 630 804 616 804 c 0
 572 804 543 809 543 635 c 0
 543 411 739 237 932 237 c 0
 1075 237 1186 352 1186 490 c 0
 1186 618 1081 619 932 656 c 1
 1338 729 l 1
 1464.64355469 712.154296875 1577 613.782226562 1577 493 c 0
 1577 172 1202 -45 743 -45 c 0
 334 -45 7 192 7 463 c 0
 7 844 418 967 609 967 c 0
 729 967 759 908 759 851 c 0
 759 804 715 693 515 693 c 0
 275 693 133 835 133 1065 c 0
 133 1305 375 1457 628 1457 c 0
 811.133789062 1457 949 1368 949 1244 c 0
 949 1180 879 1131 820 1131 c 0
EndSplineSet
EndChar

StartChar: one
Encoding: 49 49 76
Width: 797
VWidth: 1920
Flags: MW
LayerCount: 2
Fore
SplineSet
330 591 m 6
 330 791 l 6
 330 1038 325 1067 260 1067 c 4
 205 1067 188 1027 158 1027 c 4
 138 1027 126 1041 126 1061 c 4
 126 1086 134 1111 240 1161 c 4
 297 1188 392 1220 422 1227 c 4
 447 1233 509 1247 536 1247 c 4
 570 1247 586 1236 586 1211 c 4
 586 1198 583.799123407 1177.83200173 554 1172 c 4
 526.92740583 1166.70160871 514.232421875 1153.30664062 503.98828125 1129 c 4
 486.838867188 1088.30664062 478 1015.45375797 478 894 c 6
 478 604 l 6
 478 348 483 191 502 146 c 4
 523 95 556 75 602 75 c 4
 656 75 662 92 691 92 c 4
 709 92 720 81 720 65 c 4
 720 29 685 -15 386 -15 c 4
 106 -15 76 21 76 58 c 4
 76 75 90 87 108 87 c 4
 136 87 145 70 202 70 c 4
 271 70 293 105 304 131 c 4
 328 189 330 307 330 591 c 6
EndSplineSet
Validated: 1
EndChar

StartChar: two
Encoding: 50 50 77
Width: 1024
Flags: HMW
LayerCount: 2
Fore
SplineSet
98 876 m 4
 79 876 72 897 72 939 c 4
 72 1061 218 1281 524 1281 c 4
 760 1281 898 1106 898 944 c 4
 898 732 709 542 436 296 c 4
 382 247 340 211 340 199 c 4
 340 183 371 182 424 182 c 22
 766 182 l 6
 871 182 892 214 906 279 c 4
 911 304 929 310 946 310 c 4
 974 310 992 292 992 258 c 4
 992 158 892 -94 834 -94 c 4
 805 -94 796 -77 796 -66 c 4
 796 -47 806 -40 806 -20 c 4
 806 -7 794 0 772 0 c 6
 162 0 l 22
 114 0 96 7 96 41 c 4
 96 73 122 88 158 124 c 20
 194 160 222 192 406 376 c 20
 590 560 712 726 712 866 c 4
 712 1016 614 1132 454 1132 c 4
 314 1132 209 1066 162 980 c 4
 124 910 126 876 98 876 c 4
EndSplineSet
EndChar

StartChar: three
Encoding: 51 51 78
Width: 1316
Flags: HMW
LayerCount: 2
Fore
SplineSet
148 847 m 0
 103 847 57 912 57 972 c 0
 57 1018 101 1101 331 1175 c 0
 422 1204 522 1209 598 1209 c 0
 873 1209 1080 1101 1080 946 c 0
 1080 871 1045 793 964 722 c 0
 950 710 919 686 919 679 c 0
 919 668 947 651 968 651 c 0
 1117 649 1264 545 1264 338 c 0
 1264 -59 865 -221 494 -221 c 0
 183 -221 54 -137 54 -67 c 0
 54 -2 84 62 162 62 c 0
 191 62 211 60 232 55 c 0
 286 41 335 28 382 28 c 0
 552 28 670 97 670 229 c 0
 670 333 561 377 472 377 c 0
 407 377 344 357 319 357 c 0
 286 357 230 423 230 506 c 0
 230 553 238 572 256 577 c 0
 347 602 494 680 494 783 c 0
 494 856 431 916 345 916 c 0
 281 916 240 884 202 864 c 0
 184 854 167 847 148 847 c 0
EndSplineSet
EndChar

StartChar: four
Encoding: 52 52 79
Width: 1194
Flags: HMW
LayerCount: 2
Fore
SplineSet
569 590 m 0
 569 628 569 614 569 678 c 0
 569 762 561 784 534 784 c 0
 509 784 493.122291559 757.616503501 474 736 c 2
 405 658 l 2
 388.555760503 639.410859699 358 601 358 575 c 4
 358 553 375 548 410 548 c 4
 491.500976562 548 487.259765625 548 519 548 c 0
 565 548 569 562 569 590 c 0
513 207 m 2
 129 207 l 2
 80 207 15 227 15 304 c 2
 15 406 l 2
 15 474 28.69140625 511.946289062 71 571 c 2
 498 1037 l 2
 614.711591956 1164.37143291 738 1348 898 1348 c 0
 986 1348 1022 1290 1022 1217 c 0
 1022 1121 1003 962 1003 772 c 2
 1003 614 l 2
 1003 588 1008 583 1024 583 c 0
 1054 583 1064 585 1086 585 c 0
 1116 585 1127 560 1127 538 c 0
 1127 486 1130 302 1130 286 c 0
 1130 250 1101 217 1065 217 c 0
 1058 217 1049 218 1043 218 c 0
 1030 218 1026 204 1026 184 c 2
 1026 96 l 10
 1026 54 1032 23 1032 11 c 0
 1032 -5 1023 -15 999 -25 c 0
 966 -39 739 -32 618 -32 c 0
 584 -32 558 -22 558 10 c 0
 558 32 560 38 560 102 c 2
 560 172 l 2
 560 194 552 207 513 207 c 2
EndSplineSet
EndChar

StartChar: five
Encoding: 53 53 80
Width: 912
Flags: HMW
LayerCount: 2
Fore
SplineSet
290 1248 m 6
 681 1248 l 6
 716 1248 738 1258 750 1281 c 4
 762 1304 774 1323 796 1323 c 4
 815 1323 831 1306 831 1276 c 4
 831 1270 830 1263 828 1255 c 6
 772 1091 l 6
 760 1053 738 1047 672 1047 c 6
 294 1047 l 6
 271 1047 267.25390625 1036.2421875 264 1025 c 6
 220 826 l 6
 217 816 215 803 215 791 c 4
 215 776 219 763 233 763 c 4
 591 763 862 599 862 309 c 4
 862 19 640 -225 306 -225 c 4
 92 -225 50 -171.135742188 50 -138 c 4
 50 -112 59 -98 89 -98 c 12
 119 -98 162 -124 309 -124 c 12
 456 -124 674 -15 674 219 c 4
 674 493 469 582 165 582 c 4
 111 582 91 593 91 631 c 4
 91 646 95 666 101 692 c 6
 222 1179 l 6
 233 1223 250 1248 290 1248 c 6
EndSplineSet
EndChar

StartChar: six
Encoding: 54 54 81
Width: 1026
Flags: HMW
LayerCount: 2
Fore
SplineSet
227 461 m 4
 227 292 363 47 555 47 c 4
 717 47 823 182 823 351 c 4
 823 570 687 779 495 779 c 4
 353 779 227 680 227 461 c 4
67 507 m 4
 67 871 313 1210 625 1353 c 4
 680 1378 739 1407 797 1407 c 4
 824 1407 843 1391 843 1374 c 4
 843 1360 831 1346 803 1339 c 4
 553 1278 390 1087 285 830 c 4
 280 818 277 809 277 802 c 4
 277 794 282 789 289 789 c 4
 297 789 310 796 325 809 c 4
 380 858 467 909 599 909 c 4
 791 909 959 712 959 463 c 12
 959 214 773 -20 551 -20 c 4
 329 -20 67 123 67 507 c 4
EndSplineSet
EndChar

StartChar: seven
Encoding: 55 55 82
Width: 1024
Flags: HMW
LayerCount: 2
Fore
SplineSet
265 1252 m 4
 309 1252 771 1268 815 1268 c 12
 859 1268 917 1280 955 1280 c 12
 993 1280 1005 1254 1005 1234 c 12
 1005 1214 998 1194 985 1158 c 14
 547 -112 l 14
 530 -160 503 -186 481 -186 c 4
 436 -186 380 -171 380 -135 c 4
 380 -100 418 -60 457 40 c 14
 823 978 l 6
 833 1004 837 1014 837 1040 c 12
 837 1066 823 1076 781 1076 c 12
 739 1076 303 1048 229 1048 c 4
 185 1048 170 1027 170 1001 c 4
 170 975 177 960 177 946 c 4
 177 922 161 902 135 902 c 4
 109 902 69 909 69 965 c 4
 69 997 72 1106 73 1144 c 4
 75 1202 107 1278 151 1278 c 4
 195 1278 221 1252 265 1252 c 4
EndSplineSet
EndChar

StartChar: eight
Encoding: 56 56 83
Width: 1221
Flags: HMW
LayerCount: 2
Fore
SplineSet
10 927 m 0
 10 1201 277 1352 617 1352 c 0
 937 1352 1153 1230 1153 1020 c 0
 1153 906 1079 840 1019 798 c 0
 996.504882812 782.252929688 989 779 989 774 c 0
 989 767 995.877929688 766.502929688 1007 759 c 0
 1176 645 1211 575 1211 422 c 0
 1211 164 968 -33 604 -33 c 0
 250 -33 15 144 15 356 c 0
 15 488 90 574 155 611 c 0
 159.916015625 613.798828125 173 624 173 632 c 0
 173 639 162 650 131 671 c 0
 45 729 10 825 10 927 c 0
384.122070312 494 m 4
 374.904296875 485.653320312 367 469.458984375 367 427 c 0
 367 293 482 191 594 191 c 0
 696 191 741 243 741 287 c 0
 741 351 677 420 463 479 c 0
 432.514648438 487.405273438 416 500 400 500 c 0
 395.099609375 500 389.396484375 498.775390625 384.122070312 494 c 4
731 920 m 0
 748.883789062 944.302734375 762 984 762 1014 c 0
 762 1092 694 1142 606 1142 c 0
 558 1142 504 1110 504 1064 c 0
 504 1030 524 993 656 921 c 0
 683.551757812 905.971679688 689 904 703 904 c 0
 716 904 722.576171875 908.552734375 731 920 c 0
EndSplineSet
EndChar

StartChar: nine
Encoding: 57 57 84
Width: 1026
Flags: HMW
LayerCount: 2
Fore
SplineSet
799 827 m 4
 799 996 663 1241 471 1241 c 4
 309 1241 203 1106 203 937 c 4
 203 718 339 509 531 509 c 4
 673 509 799 608 799 827 c 4
959 781 m 4
 959 371.909179688 716 68 584 -39.9384765625 c 4
 501.265625 -107.591796875 462.006835938 -124 404 -124 c 4
 374 -124 353 -108 353 -91 c 4
 353 -77 365.94921875 -66.0615234375 393 -56 c 4
 557 5 716 287 741 458 c 4
 742.880859375 470.86328125 744 480 744 487 c 4
 744 495 739 500 732 500 c 4
 724 500 711 493 696 480 c 4
 641 431 559 379 427 379 c 4
 235 379 67 576 67 825 c 12
 67 1074 253 1308 475 1308 c 4
 697 1308 959 1165 959 781 c 4
EndSplineSet
EndChar

StartChar: figuredash
Encoding: 8210 8210 85
Width: 1859
Flags: HMW
LayerCount: 2
Fore
SplineSet
64 458 m 0
 64 482 90 535 118 565 c 0
 132 580 145 588 166 588 c 0
 229 588 1545 573 1598 573 c 0
 1690 573 1709 589 1764 589 c 0
 1783 589 1796 572 1796 553 c 0
 1796 529 1773 478 1756 447 c 0
 1747 430 1733 421 1714 421 c 0
 1686 421 1637 440 1574 440 c 2
 274 440 l 2
 194 440 108 430 93 430 c 0
 79 430 64 440 64 458 c 0
EndSplineSet
EndChar

StartChar: slash
Encoding: 47 47 86
Width: 700
Flags: HMW
LayerCount: 2
Fore
SplineSet
136 -112 m 4
 119.418945312 -160.14453125 92 -186 60 -186 c 4
 26.6650390625 -186 10.0000002385 -172.496806434 10 -135 c 4
 10 -100 39.4130859375 -60.5283203125 77 40 c 4
 246.82081316 484.512520173 409.554924996 936.11174167 564 1396 c 4
 580.581054688 1444.14453125 608 1470 640 1470 c 4
 673.352539062 1470 689.999999761 1456.48157027 690 1419 c 4
 690 1384 660.586914062 1344.52832031 623 1244 c 4
 453.17918684 799.487479827 290.445075004 347.88825833 136 -112 c 4
EndSplineSet
EndChar

StartChar: endash
Encoding: 8211 8211 87
Width: 1119
Flags: HMW
LayerCount: 2
Fore
SplineSet
64 458 m 4
 64 482 90 535 118 565 c 4
 132 580 145 588 166 588 c 4
 229 588 805 573 858 573 c 4
 950 573 969 589 1024 589 c 4
 1043 589 1056 572 1056 553 c 4
 1056 529 1033 478 1016 447 c 4
 1007 430 993 421 974 421 c 4
 946 421 897 440 834 440 c 6
 274 440 l 6
 194 440 108 430 93 430 c 4
 79 430 64 440 64 458 c 4
EndSplineSet
EndChar

StartChar: emdash
Encoding: 8212 8212 88
Width: 1859
Flags: HMW
LayerCount: 2
Fore
SplineSet
64 458 m 0
 64 482 90 535 118 565 c 0
 132 580 145 588 166 588 c 0
 229 588 1545 573 1598 573 c 0
 1690 573 1709 589 1764 589 c 0
 1783 589 1796 572 1796 553 c 0
 1796 529 1773 478 1756 447 c 0
 1747 430 1733 421 1714 421 c 0
 1686 421 1637 440 1574 440 c 2
 274 440 l 2
 194 440 108 430 93 430 c 0
 79 430 64 440 64 458 c 0
EndSplineSet
EndChar

StartChar: uni2015
Encoding: 8213 8213 89
Width: 1859
Flags: HMW
LayerCount: 2
Fore
SplineSet
64 458 m 0
 64 482 90 535 118 565 c 0
 132 580 145 588 166 588 c 0
 229 588 1545 573 1598 573 c 0
 1690 573 1709 589 1764 589 c 0
 1783 589 1796 572 1796 553 c 0
 1796 529 1773 478 1756 447 c 0
 1747 430 1733 421 1714 421 c 0
 1686 421 1637 440 1574 440 c 2
 274 440 l 2
 194 440 108 430 93 430 c 0
 79 430 64 440 64 458 c 0
EndSplineSet
EndChar

StartChar: numbersign
Encoding: 35 35 90
Width: 1163
Flags: HMW
LayerCount: 2
Fore
SplineSet
839 1200 m 4
 866 1200 880 1185 880 1155 c 4
 880 1135 862 1098 850 1042 c 14
 612 -52 l 22
 601 -101 568 -126 546 -126 c 4
 521 -126 505 -111 505 -75 c 4
 505 -40 549 -4 572 100 c 14
 748 898 l 22
 776.965228069 1029.33097727 781 1114 781 1140 c 4
 781 1180 811 1200 839 1200 c 4
489 1200 m 4
 516 1200 530 1185 530 1155 c 4
 530 1135 512 1098 500 1042 c 14
 262 -52 l 22
 251 -101 218 -126 196 -126 c 4
 171 -126 155 -111 155 -75 c 4
 155 -40 199 -4 222 100 c 14
 398 898 l 22
 426.965228069 1029.33097727 431 1114 431 1140 c 4
 431 1180 461 1200 489 1200 c 4
81 738 m 0
 81 762 107 815 135 845 c 0
 149 860 162 868 183 868 c 0
 246 868 842 853 895 853 c 0
 987 853 1006 869 1061 869 c 0
 1080 869 1093 852 1093 833 c 0
 1093 809 1070 758 1053 727 c 0
 1044 710 1030 701 1011 701 c 0
 983 701 934 720 871 720 c 2
 291 720 l 2
 211 720 124 710 109 710 c 0
 95 710 81 720 81 738 c 0
21 318 m 0
 21 342 47 395 75 425 c 0
 89 440 102 448 123 448 c 0
 186 448 782 433 835 433 c 0
 927 433 946 449 1001 449 c 0
 1020 449 1033 432 1033 413 c 0
 1033 389 1010 338 993 307 c 0
 984 290 970 281 951 281 c 0
 923 281 874 300 811 300 c 2
 231 300 l 2
 151 300 64 290 49 290 c 0
 35 290 21 300 21 318 c 0
EndSplineSet
EndChar

StartChar: underscore
Encoding: 95 95 91
Width: 1024
VWidth: 2048
Flags: HMW
LayerCount: 2
Fore
SplineSet
486 -452 m 6
 160 -452 96 -459 20 -459 c 4
 -7 -459 -20 -456 -20 -435 c 6
 -20 -375 l 6
 -20 -354 -7 -351 20 -351 c 4
 96 -351 160 -358 486 -358 c 6
 507 -358 l 6
 833 -358 928 -351 1004 -351 c 4
 1031 -351 1044 -354 1044 -375 c 6
 1044 -435 l 6
 1044 -456 1031 -459 1004 -459 c 4
 928 -459 833 -452 507 -452 c 6
 486 -452 l 6
EndSplineSet
EndChar

StartChar: dollar
Encoding: 36 36 92
Width: 1226
VWidth: 1920
Flags: HMW
LayerCount: 2
Fore
SplineSet
298 309 m 4
 354 227 431 195 490 195 c 260
 558 195 606 217 606 268 c 260
 606 344 500.287109375 355.856445312 280 476 c 4
 119.02734375 563.793945312 16 628 16 813 c 260
 16 1153 344 1275 662 1275 c 260
 886 1275 1016.98144531 1185.97363281 1049 1164 c 4
 1100 1129 1121 1084 1121 1045 c 4
 1121 962 1030 886 952 886 c 4
 900 886 822.306640625 931.068359375 779 1000 c 4
 745.186859657 1053.82073522 688 1074 608 1074 c 260
 541 1074 492 1046 492 986 c 260
 492 916 635.193359375 877.528320312 872 784 c 4
 1110 690 1180 617 1180 388 c 260
 1180 51 745 -5 516 -5 c 260
 267 -5 130 86 64 148 c 4
 39.564453125 170.955078125 21 214 21 279 c 4
 21 363 83 411 170 411 c 4
 236 411 270.159598622 349.766302018 298 309 c 4
688 -4 m 6
 688 -46 710 -77 710 -89 c 4
 710 -105 701 -115 677 -125 c 4
 644 -139 522 -160 501 -160 c 4
 487 -160 471 -152 471 -120 c 4
 471 -98 496 -22 496 122 c 6
 496 1260 l 6
 496 1302 474 1333 474 1345 c 4
 474 1361 483 1371 507 1381 c 4
 540 1395 662 1416 683 1416 c 4
 697 1416 713 1408 713 1376 c 4
 713 1354 688 1278 688 1134 c 6
 688 -4 l 6
EndSplineSet
EndChar

StartChar: at
Encoding: 64 64 93
Width: 1518
VWidth: 1920
Flags: HMW
LayerCount: 2
Fore
SplineSet
90 412 m 0
 90 924 506 1157 859 1157 c 0
 1234 1157 1428 874 1428 612 c 0
 1428 332 1184 162 996 162 c 0
 916 162 899 189 899 234 c 0
 899 264 903 287 903 306 c 0
 903 320 900 325 896 325 c 0
 892 325 888 314 880 304 c 0
 838 249 743 156 636 156 c 0
 522 156 424 251 424 369 c 0
 424 616 638 846 830 846 c 0
 876 846 913 790 930 760 c 0
 940 743 941 740 948 740 c 0
 957 740 958 762 959 792 c 0
 959 805 968 827 986 827 c 0
 1048 827 1082 835 1099 835 c 0
 1115 835 1119 826 1119 818 c 0
 1119 796 1105 780 1091 727 c 0
 1061 613 1031 476 1031 336 c 0
 1031 281 1049 250 1080 250 c 0
 1169 250 1358 385 1358 612 c 0
 1358 854 1168 1094 858 1094 c 4
 577 1094 169 817 169 402 c 4
 169 36 473 -152 752 -152 c 0
 992 -152 1124 -50 1219 32 c 0
 1228.24036692 39.9758956578 1241 48 1254 48 c 0
 1274 48 1280 33 1280 20 c 0
 1280 0 1263.13454635 -13.1608112668 1250 -24 c 0
 1147 -109 988 -211 751 -211 c 0
 412 -211 90 38 90 412 c 0
796 768 m 0
 685 768 590 531 590 385 c 0
 590 325 616 252 689 252 c 0
 790 252 919 421 919 600 c 0
 919 683 866 768 796 768 c 0
EndSplineSet
EndChar

StartChar: braceleft
Encoding: 123 123 95
Width: 750
Flags: HMW
LayerCount: 2
Fore
SplineSet
156 594 m 0
 156 513 212 505 236 363 c 0
 248.256835938 290.482421875 280 -51 289 -108 c 0
 298 -165 306.591796875 -181.385742188 332 -191 c 0
 369 -205 425 -210 483 -210 c 0
 561 -210 602 -205 637 -205 c 0
 667.149414062 -205 680 -221 680 -254 c 0
 680 -287.611328125 668.951171875 -300.115234375 642 -308.439453125 c 0
 607.530273438 -319.084960938 551.991210938 -336 445 -336 c 0
 358 -336 252.544921875 -311.915039062 205 -303 c 0
 157 -294 133 -273 133 -234 c 0
 133 -195 139 222 139 351 c 0
 139 430 42 480 42 594 c 0
 42 708 139 758 139 837 c 0
 139 966 133 1383 133 1422 c 0
 133 1461 157 1482 205 1491 c 0
 252.544921875 1499.91503906 358 1524 445 1524 c 0
 551.991210938 1524 607.530273438 1507.08496094 642 1496.43945312 c 0
 668.951171875 1488.11523438 680 1475.61132812 680 1442 c 0
 680 1409 667.149414062 1393 637 1393 c 0
 602 1393 541 1398 463 1398 c 0
 405 1398 369 1393 332 1379 c 0
 306.591796875 1369.38574219 298 1353 289 1296 c 0
 280 1239 248.256835938 897.517578125 236 825 c 0
 212 683 156 675 156 594 c 0
EndSplineSet
EndChar

StartChar: bar
Encoding: 124 124 96
Width: 428
VWidth: 1920
Flags: HMW
LayerCount: 2
Fore
SplineSet
261 146 m 6
 261 -180 268 -244 268 -320 c 4
 268 -347 265 -360 244 -360 c 6
 184 -360 l 6
 163 -360 160 -347 160 -320 c 4
 160 -244 167 -180 167 146 c 6
 167 863 l 6
 167 1189 160 1284 160 1360 c 4
 160 1387 163 1400 184 1400 c 6
 244 1400 l 6
 265 1400 268 1387 268 1360 c 4
 268 1284 261 1189 261 863 c 6
 261 146 l 6
EndSplineSet
EndChar

StartChar: braceright
Encoding: 125 125 97
Width: 750
Flags: HMW
LayerCount: 2
Fore
SplineSet
594 594 m 0
 594 675 538 683 514 825 c 0
 501.743164062 897.517578125 470 1239 461 1296 c 0
 452 1353 443.408203125 1369.38574219 418 1379 c 0
 381 1393 325 1398 267 1398 c 0
 189 1398 148 1393 113 1393 c 0
 82.8505859375 1393 70 1409 70 1442 c 0
 70 1475.61132812 81.048828125 1488.11523438 108 1496.43945312 c 0
 142.469726562 1507.08496094 198.008789062 1524 305 1524 c 0
 392 1524 497.455078125 1499.91503906 545 1491 c 0
 593 1482 617 1461 617 1422 c 0
 617 1383 611 966 611 837 c 0
 611 758 708 708 708 594 c 4
 708 480 611 430 611 351 c 0
 611 222 617 -195 617 -234 c 0
 617 -273 593 -294 545 -303 c 0
 497.455078125 -311.915039062 392 -336 305 -336 c 0
 198.008789062 -336 142.469726562 -319.084960938 108 -308.439453125 c 0
 81.048828125 -300.115234375 70 -287.611328125 70 -254 c 0
 70 -221 82.8505859375 -205 113 -205 c 0
 148 -205 209 -210 287 -210 c 0
 345 -210 381 -205 418 -191 c 0
 443.408203125 -181.385742188 452 -165 461 -108 c 0
 470 -51 501.743164062 290.482421875 514 363 c 0
 538 505 594 513 594 594 c 0
EndSplineSet
EndChar

StartChar: bracketleft
Encoding: 91 91 98
Width: 740
Flags: HMW
LayerCount: 2
Fore
SplineSet
139 837 m 2
 139 966 133 1383 133 1422 c 0
 133 1461 157 1482 205 1491 c 0
 252.544921875 1499.91503906 358 1524 445 1524 c 0
 551.991210938 1524 607.530273438 1507.08496094 642 1496.43945312 c 0
 668.951171875 1488.11523438 680 1480.61132812 680 1457 c 0
 680 1424 667.149414062 1423 637 1423 c 0
 509 1423 419 1423 382 1410 c 0
 356.369140625 1400.99511719 348 1384 339 1327 c 0
 330 1270 301 998.545898438 301 725 c 2
 301 463 l 2
 301 189.454101562 330 -82 339 -139 c 0
 348 -196 356.369140625 -212.995117188 382 -222 c 0
 419 -235 509 -235 637 -235 c 0
 667.149414062 -235 680 -236 680 -269 c 0
 680 -292.611328125 668.951171875 -300.115234375 642 -308.439453125 c 0
 607.530273438 -319.084960938 551.991210938 -336 445 -336 c 0
 358 -336 252.544921875 -311.915039062 205 -303 c 0
 157 -294 133 -273 133 -234 c 0
 133 -195 139 222 139 351 c 2
 139 837 l 2
EndSplineSet
EndChar

StartChar: bracketright
Encoding: 93 93 99
Width: 740
Flags: HMW
LayerCount: 2
Fore
SplineSet
601 351 m 2
 601 222 607 -195 607 -234 c 0
 607 -273 583 -294 535 -303 c 0
 487.455078125 -311.915039062 382 -336 295 -336 c 0
 188.008789062 -336 132.469726562 -319.084960938 98 -308.439453125 c 0
 71.048828125 -300.115234375 60 -292.611328125 60 -269 c 0
 60 -236 72.8505859375 -235 103 -235 c 0
 231 -235 321 -235 358 -222 c 4
 383.630859375 -212.995117188 392 -196 401 -139 c 4
 410 -82 439 189.454101562 439 463 c 6
 439 725 l 6
 439 998.545898438 410 1270 401 1327 c 4
 392 1384 383.630859375 1400.99511719 358 1410 c 4
 321 1423 231 1423 103 1423 c 0
 72.8505859375 1423 60 1424 60 1457 c 0
 60 1480.61132812 71.048828125 1488.11523438 98 1496.43945312 c 0
 132.469726562 1507.08496094 188.008789062 1524 295 1524 c 0
 382 1524 487.455078125 1499.91503906 535 1491 c 0
 583 1482 607 1461 607 1422 c 0
 607 1383 601 966 601 837 c 2
 601 351 l 2
EndSplineSet
EndChar

StartChar: parenleft
Encoding: 40 40 100
Width: 700
Flags: HMW
LayerCount: 2
Fore
SplineSet
72 594 m 0
 72 678 77 833 139 1092 c 0
 201.915039062 1354.82226562 370 1534 503 1534 c 0
 551 1534 608 1527 642 1516 c 0
 669 1508 680 1496 680 1472 c 0
 680 1449 667 1433 637 1433 c 0
 602 1433 585 1438 538 1438 c 0
 436 1438 336 1293 295 958 c 0
 278.391601562 822.293945312 276 655 276 594 c 0
 276 533 278.391601562 365.706054688 295 230 c 0
 336 -105 436 -250 538 -250 c 0
 585 -250 602 -245 637 -245 c 0
 667 -245 680 -261 680 -284 c 0
 680 -308 669 -320 642 -328 c 0
 608 -339 551 -346 503 -346 c 0
 370 -346 201.915039062 -166.822265625 139 96 c 0
 77 355 72 510 72 594 c 0
EndSplineSet
EndChar

StartChar: parenright
Encoding: 41 41 101
Width: 700
Flags: HMW
LayerCount: 2
Fore
SplineSet
628 594 m 0
 628 510 623 355 561 96 c 0
 498.084960938 -166.822265625 330 -346 197 -346 c 0
 149 -346 92 -339 58 -328 c 0
 31 -320 20 -308 20 -284 c 0
 20 -261 33 -245 63 -245 c 0
 98 -245 115 -250 162 -250 c 0
 264 -250 364 -105 405 230 c 0
 421.608398438 365.706054688 424 533 424 594 c 0
 424 655 421.608398438 822.293945312 405 958 c 0
 364 1293 264 1438 162 1438 c 0
 115 1438 98 1433 63 1433 c 0
 33 1433 20 1449 20 1472 c 4
 20 1496 31 1508 58 1516 c 0
 92 1527 149 1534 197 1534 c 0
 330 1534 498.084960938 1354.82226562 561 1092 c 0
 623 833 628 678 628 594 c 0
EndSplineSet
EndChar

StartChar: backslash
Encoding: 92 92 102
Width: 700
Flags: HMW
LayerCount: 2
Fore
SplineSet
564 -112 m 4
 409.5546875 347.888671875 246.821289062 799.487304688 77 1244 c 4
 39.4130859375 1344.52832031 10 1384 10 1419 c 4
 10 1456.48144531 26.6474609375 1470 60 1470 c 4
 92 1470 119.418945312 1444.14453125 136 1396 c 4
 290.4453125 936.111328125 453.178710938 484.512695312 623 40 c 4
 660.586914062 -60.5283203125 690 -100 690 -135 c 4
 690 -172.497070312 673.334960938 -186 640 -186 c 4
 608 -186 580.581054688 -160.14453125 564 -112 c 4
EndSplineSet
EndChar

StartChar: asterisk
Encoding: 42 42 103
Width: 1080
VWidth: 1920
Flags: HMW
LayerCount: 2
Back
SplineSet
454 995 m 0
 454 1042 492 1080 539 1080 c 0
 586 1080 624 1042 624 995 c 0
 624 948 586 910 539 910 c 0
 492 910 454 948 454 995 c 0
40 993 m 0
 40 1050.75 87.25 1088 145 1088 c 0
 223.793945312 1088 390.875976562 1031.83984375 540 1015.08691406 c 1
 689.124023438 1041.83984375 856.206054688 1088 935 1088 c 0
 992.75 1088 1040 1050.75 1040 993 c 0
 1040 935.25 992.75 898 935 898 c 0
 856.206054688 898 689.124023438 954.16015625 540 970.913085938 c 1
 390.875976562 954.16015625 223.793945312 898 145 898 c 0
 87.25 898 40 935.25 40 993 c 0
EndSplineSet
Fore
SplineSet
40 993 m 0
 40 1051 87 1088 145 1088 c 0
 210 1088 335 1050 460 1027 c 0
 486.823529412 1021.03921569 486.823529412 1021.03921569 468 1043 c 0
 383 1139 292 1232 260 1288 c 0
 231 1338 240 1397 290 1426 c 0
 340 1455 396 1433 425 1383 c 0
 457 1327 486 1200 529 1080 c 0
 538 1056 538 1056 547 1080 c 0
 587 1202 622 1327 655 1383 c 0
 684 1433 740 1455 790 1426 c 0
 840 1397 849 1338 820 1288 c 0
 787 1232 691 1142 608 1044 c 0
 591.000848896 1023.60101868 590.894736842 1023.47368421 617 1030 c 0
 743 1056 870 1088 935 1088 c 0
 993 1088 1040 1051 1040 993 c 0
 1040 935 993 898 935 898 c 0
 869 898 743 937 616 960 c 0
 587.941176471 966.235294118 587.941176471 966.235294118 607 944 c 0
 690 846 787 755 820 698 c 0
 849 648 840 589 790 560 c 0
 740 531 684 553 655 603 c 0
 622 660 593 790 549 911 c 0
 540.1875 934.5 540.1875 934.5 531 910 c 0
 487 789 458 660 425 603 c 0
 396 553 340 531 290 560 c 0
 240 589 231 648 260 698 c 0
 293 755 389 845 472 943 c 0
 491.294117647 965.509803922 491.294117647 965.509803922 462 959 c 0
 336 936 210 898 145 898 c 0
 87 898 40 935 40 993 c 0
EndSplineSet
EndChar

StartChar: plus
Encoding: 43 43 104
Width: 1222
Flags: HMW
LayerCount: 2
Fore
SplineSet
657 456 m 2
 657 280 664 166 664 90 c 0
 664 63 661 50 640 50 c 2
 580 50 l 2
 559 50 556 63 556 90 c 0
 556 166 563 280 563 456 c 2
 563 533 l 2
 563 709 556 854 556 930 c 0
 556 957 559 970 580 970 c 2
 640 970 l 2
 661 970 664 957 664 930 c 0
 664 854 657 709 657 533 c 2
 657 456 l 2
130 478 m 4
 130 502 141 515 169 545 c 4
 183 560 196 568 217 568 c 4
 280 568 841 553 894 553 c 4
 986 553 1005 569 1060 569 c 4
 1079 569 1092 552 1092 533 c 4
 1092 509 1084 498 1067 467 c 4
 1058 450 1044 441 1025 441 c 4
 997 441 948 460 885 460 c 6
 340 460 l 6
 260 460 174 450 159 450 c 4
 145 450 130 460 130 478 c 4
EndSplineSet
EndChar

StartChar: uni2768
Encoding: 10088 10088 105
Width: 2954
Flags: HMW
LayerCount: 2
Fore
SplineSet
433 -241 m 0
 277 -241 100 -162 100 45 c 0
 100 262 322 423 667 489 c 0
 715 498 768 508 825 519 c 1
 680 565 529 685 529 856 c 0
 529 1081 727 1215 971 1250 c 1
 905 1297 857 1357 857 1435 c 0
 857 1568 968 1643 1097 1643 c 0
 1196 1643 1264 1584 1264 1544 c 0
 1264 1504 1234 1478 1189 1478 c 0
 1153 1478 1139 1518 1089 1518 c 0
 1049 1518 1002 1479 1002 1415 c 0
 1002 1343 1073 1291 1140 1259 c 1
 1371 1251 1585 1152 1739 1031 c 1
 1768 1063 1795 1094 1819 1122 c 0
 1951 1278 2170 1437 2374 1437 c 0
 2508 1437 2640 1368 2714 1309 c 1
 2714 1511 l 2
 2714 1545.69871855 2770.90164932 1548 2786 1548 c 0
 2796.29111218 1548 2854 1546.46353978 2854 1512 c 2
 2854 43 l 2
 2854 12.3080414971 2803.99965783 2 2780 2 c 0
 2760 2 2714 12.2333984375 2714 38 c 2
 2714 447 l 1
 2671 340 2566 152 2326 152 c 0
 2065 152 1752 447 1533 686 c 1
 1432 589 1234 454 682 363 c 0
 403 317 235 178 235 34 c 0
 235 -50 307 -131 442 -131 c 0
 577 -131 640 -39 642 37 c 0
 643 74 665 119 705 119 c 0
 745 119 770 88 770 22 c 0
 770 -104 639 -241 433 -241 c 0
1827 953 m 1
 2037 764 2244 622 2450 622 c 0
 2588 622 2670 699 2714 760 c 1
 2714 1122 l 1
 2628 1264 2510 1290 2368 1290 c 0
 2215 1290 2062 1191 1939 1065 c 0
 1909 1035 1871 996 1827 953 c 1
1164 600 m 0
 1218 617 1267 635 1306 654 c 0
 1352 677 1407 716 1463 763 c 1
 1263 973 1098 1056 930 1056 c 0
 770 1056 642 988 642 830 c 0
 642 692 800 580 1000 580 c 0
 1079 580 1129 589 1164 600 c 0
EndSplineSet
EndChar

StartChar: uni2698
Encoding: 9880 9880 107
Width: 1981
Flags: HMW
LayerCount: 2
Fore
SplineSet
202 -146 m 0
 150 -146 100 -100 100 -14 c 0
 100 72 172 138 268 138 c 0
 334 138 374 126 454 91 c 0
 648 6 875 -85 1073 -85 c 0
 1170 -85 1306 -11 1306 81 c 0
 1306 177 1271 215 1244 215 c 0
 1214 215 1163 44 1044 44 c 0
 854 44 716 167 565 192 c 0
 463 209 279 248 279 417 c 0
 279 548 350 546 350 585 c 0
 350 624 113 618 113 858 c 0
 113 1018 148 1043 205 1130 c 0
 262 1217 295 1275 337 1365 c 0
 379 1455 483 1509 564 1509 c 0
 669 1509 691 1412 728 1412 c 0
 765 1412 761 1584 1006 1584 c 0
 1201 1584 1230 1489 1365 1464 c 0
 1505 1438 1600 1345 1600 1240 c 0
 1600 1165 1584 1157 1584 1124 c 0
 1584 1099 1657 1092 1726 1047 c 0
 1795 1002 1873 891 1873 790 c 0
 1873 689 1814 635 1747 558 c 0
 1689 491 1706 378 1646 291 c 0
 1602 227 1558 204 1518 204 c 0
 1481 204 1457 205 1428 205 c 0
 1410 205 1398 202 1398 194 c 0
 1398 173 1427 154 1427 95 c 0
 1427 5.0966796875 1392 -9.740234375 1392 -42 c 0
 1392 -54 1399 -63 1417 -63 c 0
 1423 -63 1431 -61 1441 -59 c 0
 1596 -20 1674 57 1750 142 c 0
 1774 170 1794 189 1822 189 c 0
 1850 189 1881 171 1881 123 c 0
 1881 95 1868 60 1830 26 c 0
 1695 -94 1520 -212 1162 -212 c 0
 854 -212 613 -102 363 -7 c 0
 331 5 312 10 288 10 c 0
 254 10 248 0 248 -20 c 0
 248 -40 268 -52 268 -84 c 0
 268 -116 254 -146 202 -146 c 0
846 978 m 0
 770 978 738 1089 707 1180 c 0
 676 1271 644 1342 551 1342 c 0
 438 1342 410 1203 351 1129 c 0
 292 1055 259 977 259 879 c 0
 259 781 331 731 441 731 c 0
 561 731 633 792 707 792 c 0
 761 792 804 766 804 716 c 0
 804 666 787 607 697 604 c 0
 587 600 447 573 447 443 c 0
 447 313 624 340 684 312 c 0
 788 263 914 170 984 170 c 0
 1044 170 1119 226 1119 319 c 0
 1119 432 1013 575 1013 631 c 0
 1013 667 1037 697 1086 697 c 0
 1165 697 1192 672 1208 611 c 0
 1218 572 1226 532 1259 477 c 0
 1294 418 1352 341 1434 341 c 0
 1546 341 1573 442 1584 493 c 0
 1595 545 1623 614 1671 688 c 0
 1700 733 1722 764 1722 803 c 0
 1722 842 1692 876 1658 908 c 0
 1624 940 1578 969 1537 969 c 0
 1496 969 1469 941 1419 908 c 0
 1376 880 1305 835 1252 835 c 0
 1211 835 1181 865 1181 904 c 0
 1181 963 1264 996 1343 1034 c 0
 1422 1072 1471 1098 1471 1193 c 0
 1471 1288 1331 1317 1233 1366 c 0
 1135 1415 1106 1452 1002 1452 c 0
 898 1452 858 1382 858 1319 c 0
 858 1256 878 1206 917 1165 c 0
 946 1134 964 1117 964 1066 c 0
 964 1015 912 978 846 978 c 0
EndSplineSet
EndChar

StartChar: uni2769
Encoding: 10089 10089 108
Width: 2954
Flags: HMW
LayerCount: 2
Fore
SplineSet
2521 -241 m 0
 2315 -241 2184 -104 2184 22 c 0
 2184 88 2209 119 2249 119 c 0
 2289 119 2311 74 2312 37 c 0
 2314 -39 2377 -131 2512 -131 c 0
 2647 -131 2719 -50 2719 34 c 0
 2719 178 2551 317 2272 363 c 0
 1720 454 1522 589 1421 686 c 1
 1202 447 889 152 628 152 c 0
 388 152 283 340 240 447 c 1
 240 38 l 2
 240 12.2333984375 194 2 174 2 c 0
 150 2 100 12.3076171875 100 43 c 2
 100 1512 l 2
 100 1546.46386719 157.708984375 1548 168 1548 c 0
 183.098632812 1548 240 1545.69824219 240 1511 c 2
 240 1309 l 1
 314 1368 446 1437 580 1437 c 0
 784 1437 1003 1278 1135 1122 c 0
 1159 1094 1186 1063 1215 1031 c 1
 1369 1152 1583 1251 1814 1259 c 1
 1881 1291 1952 1343 1952 1415 c 0
 1952 1479 1905 1518 1865 1518 c 0
 1815 1518 1801 1478 1765 1478 c 0
 1720 1478 1690 1504 1690 1544 c 0
 1690 1584 1758 1643 1857 1643 c 0
 1986 1643 2097 1568 2097 1435 c 0
 2097 1357 2049 1297 1983 1250 c 1
 2227 1215 2425 1081 2425 856 c 0
 2425 685 2274 565 2129 519 c 1
 2186 508 2239 498 2287 489 c 0
 2632 423 2854 262 2854 45 c 0
 2854 -162 2677 -241 2521 -241 c 0
1127 953 m 1
 1083 996 1045 1035 1015 1065 c 0
 892 1191 739 1290 586 1290 c 0
 444 1290 326 1264 240 1122 c 1
 240 760 l 1
 284 699 366 622 504 622 c 0
 710 622 917 764 1127 953 c 1
1790 600 m 0
 1825 589 1875 580 1954 580 c 0
 2154 580 2312 692 2312 830 c 0
 2312 988 2184 1056 2024 1056 c 0
 1856 1056 1691 973 1491 763 c 1
 1547 716 1602 677 1648 654 c 0
 1687 635 1736 617 1790 600 c 0
EndSplineSet
EndChar

StartChar: uni2767
Encoding: 10087 10087 109
Width: 2933
Flags: HMW
LayerCount: 2
Fore
SplineSet
353 505 m 0
 213 505 100 618 100 773 c 0
 100 958 244 1079 439 1079 c 0
 540 1079 625 1050 723 982 c 1
 719 1013 716 1049 716 1086 c 0
 716 1252 864 1414 1122 1414 c 0
 1450 1414 1565 1122 1791 872 c 0
 2000 641 2175 448 2381 448 c 0
 2587 448 2721 616 2721 794 c 0
 2721 972 2583 1070 2457 1070 c 0
 2341 1070 2285 1020 2257 950 c 0
 2248 928 2247 904 2207 904 c 0
 2177 904 2158 913 2158 949 c 0
 2158 1045 2293 1166 2459 1166 c 0
 2695 1166 2833 1006 2833 802 c 0
 2833 618 2688 357 2448 330 c 1
 2397.47460938 127.8984375 2231.04589844 -65 1891 -65 c 4
 1531 -65 1329 80 1192 227 c 2
 694 761 l 2
 573 890 466 947 366 947 c 0
 266 947 196 867 196 771 c 0
 196 665 253 581 351 581 c 0
 392 581 403 560 403 539 c 0
 403 518 383 505 353 505 c 0
884 848 m 1
 910 824 937 797 966 768 c 2
 1451 284 l 2
 1570 167 1724 66 1933 66 c 0
 2079.59730552 66 2280.09960938 97.298828125 2354 319 c 1
 2098 331 1857.46355404 486.984141678 1681 698 c 2
 1395 1040 l 2
 1275.0025961 1183.49339907 1157 1278 1017 1278 c 0
 897 1278 815 1158 815 1064 c 0
 815 1002 841 924 884 848 c 1
EndSplineSet
EndChar

StartChar: bullet
Encoding: 8226 8226 110
Width: 569
Flags: HMW
LayerCount: 2
Fore
SplineSet
88 811 m 4
 88 861 133.456054688 882.947265625 190 900 c 4
 253 919 271 977 335 977 c 4
 378.102539062 977 470 903.655273438 470 717 c 12
 470 639 450 584 389 584 c 4
 357 584 345.287109375 617.942382812 324 669 c 4
 299.818359375 727 287.818359375 741 166 741 c 4
 118 741 88 771 88 811 c 4
EndSplineSet
EndChar

StartChar: equal
Encoding: 61 61 111
Width: 1124
Flags: HMW
LayerCount: 2
Fore
SplineSet
551 318 m 2
 325 318 216 311 140 311 c 0
 113 311 100 314 100 335 c 2
 100 395 l 2
 100 416 113 419 140 419 c 0
 216 419 325 412 551 412 c 2
 572 412 l 2
 798 412 908 419 984 419 c 0
 1011 419 1024 416 1024 395 c 2
 1024 335 l 2
 1024 314 1011 311 984 311 c 0
 908 311 798 318 572 318 c 2
 551 318 l 2
551 608 m 6
 325 608 216 601 140 601 c 4
 113 601 100 604 100 625 c 6
 100 685 l 6
 100 706 113 709 140 709 c 4
 216 709 325 702 551 702 c 6
 572 702 l 6
 798 702 908 709 984 709 c 4
 1011 709 1024 706 1024 685 c 6
 1024 625 l 6
 1024 604 1011 601 984 601 c 4
 908 601 798 608 572 608 c 6
 551 608 l 6
EndSplineSet
EndChar

StartChar: A.swsh
Encoding: 1114112 -1 112
Width: 2017
VWidth: 1920
Flags: HMW
LayerCount: 2
Fore
SplineSet
489 48 m 0
 1181 48 972 1415 1694 1415 c 0
 1777 1415 1801 1371 1801 1288 c 0
 1801 1163 1773 1072 1773 894 c 2
 1773 604 l 2
 1773 348 1776 169 1804 113 c 0
 1816 89 1830 86 1850 86 c 0
 1894 86 1911 105 1940 105 c 0
 1964 105 1976 87 1976 64 c 0
 1976 30 1941 16 1895 7 c 0
 1838 -4 1766 -15 1675 -15 c 0
 1589 -15 1517 -14 1470 -5 c 0
 1421 4 1387 12 1387 45 c 0
 1387 62 1403 85 1431 85 c 0
 1454 85 1476 72 1513 72 c 0
 1532 72 1550 82 1561 108 c 0
 1579 152 1590 245 1594 412 c 0
 1595 460 1595 460 1555 464 c 0
 1490 471 1401 478 1342 478 c 0
 1291 478 1189 470 1130 464 c 0
 1090 460 1090 460 1074 423 c 0
 967 175 832 -36 492 -36 c 0
 260 -36 50 91 50 408 c 0
 50 705 235 778 355 778 c 0
 441 778 504 721 504 664 c 0
 504 607 471 558 405 558 c 0
 340 558 310 651 268 651 c 0
 224 651 132 609 132 428 c 0
 132 150 302 48 489 48 c 0
1596 594 m 2
 1596 901 l 2
 1596 997 1593 1145 1589 1228 c 0
 1587 1267 1587 1280 1571 1280 c 0
 1361 1275 1197 770 1141 596 c 0
 1130 562 1129 561 1155 565 c 0
 1194 570 1275 579 1330 579 c 0
 1413 579 1518 569 1556 569 c 0
 1584 569 1596 576 1596 594 c 2
EndSplineSet
EndChar

StartChar: B.swsh
Encoding: 1114113 -1 113
Width: 1829
VWidth: 1920
Flags: HMW
LayerCount: 2
Fore
SplineSet
848 9 m 0
 762 9 728 -5 633 -5 c 0
 560 -5 543 14 543 41 c 0
 543 94 592 83 657 93 c 0
 727 104 731 179 731 590 c 2
 731 900 l 2
 731 1085 730 1196 721 1254 c 0
 715.2109375 1291.62792969 709.76953125 1317 609 1317 c 0
 392 1317 151 1185 151 887 c 0
 151 706 224 644 268 644 c 0
 310 644 340 737 405 737 c 0
 471 737 504 688 504 631 c 0
 504 574 441 517 355 517 c 0
 235 517 70 590 70 887 c 0
 70 1204 357 1401 612 1401 c 0
 680 1401 690 1400 792 1400 c 0
 914 1400 1034 1408 1153 1408 c 0
 1410 1408 1594 1308 1594 1078 c 0
 1594 982 1557 901 1489 843 c 0
 1455 814 1414 802 1414 783 c 0
 1414 770 1460 752 1505 740 c 0
 1642 702 1727 577 1727 438 c 0
 1727 199 1544 -7 1213 -7 c 0
 1094 -7 962 9 848 9 c 0
1133 772 m 0
 1339 772 1412 912 1412 1032 c 0
 1412 1212 1285 1327 1123 1327 c 0
 958 1327 929 1293 924 1234 c 0
 916 1147 913 1072 913 984 c 0
 913 941 913 864 915 840 c 0
 919 783 925 772 1133 772 c 0
1203 69 m 0
 1399 69 1522 162 1522 362 c 0
 1522 582 1393 693 1253 693 c 0
 1194 693 1060 688 1013 688 c 0
 936 688 913 665 913 624 c 0
 913 579 912 503 912 456 c 0
 912 312 915 203 931 153 c 0
 943 117 995 69 1203 69 c 0
EndSplineSet
EndChar

StartChar: D.swsh
Encoding: 1114114 -1 114
Width: 2017
VWidth: 1920
Flags: HMW
LayerCount: 2
Fore
SplineSet
1176 -13 m 0
 1028 -13 883 6 782 6 c 0
 696 6 652 -5 557 -5 c 0
 484 -5 468 17 468 44 c 0
 468 82 494 97 532 97 c 0
 551 97 574 94 598 94 c 0
 618 94 641 104 654 131 c 0
 680 187 685 314 685 590 c 2
 685 900 l 2
 685 1247 647 1317 589 1317 c 0
 566.19140625 1317 539.450195312 1313.06640625 523.40234375 1313.00097656 c 0
 326.181640625 1288.92089844 131 1155.18066406 131 887 c 0
 131 706 204 644 248 644 c 0
 290 644 320 737 385 737 c 0
 451 737 484 688 484 631 c 0
 484 574 421 517 335 517 c 0
 215 517 50 590 50 887 c 0
 50 1204 337 1401 592 1401 c 0
 660 1401 670 1400 772 1400 c 0
 906.55078125 1400 1085.54394531 1408 1227 1408 c 0
 1674 1408 1974 1157 1974 747 c 0
 1974 407 1760 69 1415 5 c 0
 1337 -9 1256 -13 1176 -13 c 0
1224 77 m 0
 1321 77 1416 77 1507 124 c 0
 1709 228 1780 447 1780 627 c 0
 1780 1017 1576 1329 1206 1329 c 0
 1032 1329 926 1310 914 1301 c 0
 897 1288 891 1245 888 1208 c 0
 880 1111 874 999 874 888 c 0
 874 686 880 401 883 195 c 0
 883 171 890 129 911 120 c 0
 950 103 1050 77 1224 77 c 0
EndSplineSet
EndChar

StartChar: E.swsh
Encoding: 1114115 -1 115
Width: 1702
VWidth: 1920
Flags: HMW
LayerCount: 2
Fore
SplineSet
829 -1 m 0
 743 -1 711 -3 626 -3 c 0
 555 -3 520 17 520 51 c 0
 520 80 537 89 563 89 c 0
 583 89 606 83 635 83 c 0
 688 83 689 135 701 378 c 0
 709 542 711 622 711 820 c 0
 711 1005 709.924804688 1195.98828125 701 1254 c 4
 695.2109375 1291.62792969 689.76953125 1317 589 1317 c 4
 372 1317 131 1185 131 887 c 4
 131 706 204 644 248 644 c 4
 290 644 320 737 385 737 c 4
 451 737 484 688 484 631 c 4
 484 574 421 517 335 517 c 4
 215 517 50 590 50 887 c 4
 50 1204 337 1401 592 1401 c 4
 660 1401 762 1401 864 1401 c 4
 986 1401 1160 1396 1279 1396 c 0
 1392 1396 1433 1426 1470 1426 c 0
 1503 1426 1567 1298 1567 1168 c 0
 1567 1133 1538 1095 1520 1095 c 0
 1500 1095 1489 1134 1467 1183 c 0
 1439 1246 1400 1296 1317 1309 c 0
 1255 1319 1136 1319 1074 1319 c 0
 939 1319 917 1313 911 1244 c 0
 905 1180 895 1021 895 838 c 0
 895 791 907 773 934 763 c 0
 963 753 1009 750 1074 750 c 0
 1208 750 1267 794 1267 858 c 0
 1267 874 1265 885 1265 901 c 0
 1265 914 1272 926 1290 926 c 0
 1347 926 1357 840 1357 716 c 0
 1357 570 1337 495 1293 495 c 0
 1274 495 1265 518 1265 556 c 0
 1265 602 1246 672 1114 672 c 0
 919 672 912 668 906 613 c 0
 901 564 899 521 899 446 c 0
 899 315 905 235 912 135 c 0
 914 113 917 109 943 103 c 0
 990 91 1098 80 1194 80 c 0
 1279 80 1336 81 1389 95 c 0
 1446 110 1492 150 1525 203 c 0
 1564 266 1570 314 1591 314 c 0
 1612 314 1644 277 1644 239 c 0
 1644 166 1536 -27 1490 -27 c 0
 1456 -27 1447 -3 1399 -3 c 0
 1282 -3 1171 -3 1086 -3 c 0
 999 -3 913 -1 829 -1 c 0
EndSplineSet
EndChar

StartChar: F.swsh
Encoding: 1114116 -1 116
Width: 1730
VWidth: 1920
Flags: HMW
LayerCount: 2
Fore
SplineSet
770 590 m 2
 770 900 l 2
 770 1058.70800781 769.881835938 1238.75683594 724 1258.98632812 c 4
 658.325195312 1287.94238281 562.422851562 1314 428 1314 c 4
 301 1314 131 1234 131 956 c 4
 131 775 233 673 367 673 c 4
 429 673 420 786 495 786 c 4
 561 786 594 747 594 680 c 4
 594 623 511 566 425 566 c 4
 245 566 50 669 50 956 c 4
 50 1313 287 1430 542 1430 c 4
 750.305664062 1430 988.048828125 1379 1312 1379 c 4
 1365.00488281 1379 1434.44140625 1383.85058594 1464 1393.79003906 c 4
 1521.86523438 1413.24707031 1523.40039062 1445 1556 1445 c 4
 1597 1445 1612 1414 1612 1374 c 4
 1612 1278 1446.92773438 1238 1142 1238 c 4
 977 1238 972 1233 966 1174 c 4
 958 1100 954 976 954 918 c 0
 954 888 952 848 952 818 c 0
 952 771 952 762 990 754 c 0
 1015 748 1061 745 1142 745 c 0
 1253 745 1347 782 1387 782 c 0
 1413.40136719 782 1424.22753906 756.65234375 1424.22753906 736 c 0
 1424.22753906 705 1418 672.208007812 1418 646 c 0
 1418 594 1426 576 1426 544 c 0
 1426 515 1410 499 1384 499 c 0
 1324 499 1340 621 1264 654 c 0
 1241 664 1211 665 1172 665 c 0
 1090 665 1027 660 996 660 c 0
 966 660 958 646 958 622 c 0
 958 572 956 511 956 436 c 2
 956 328 l 2
 956 11 925.740234375 -50.505859375 906 -127 c 0
 866 -282 757 -369 600 -369 c 0
 433 -369 282 -246 282 -136 c 0
 282 -83 323 -37 384 -37 c 0
 442 -37 477 -85.83984375 477 -134 c 0
 477 -194 491 -296 626 -296 c 0
 734 -296 776 -183 776 -15 c 0
 776 60 770 274 770 590 c 2
EndSplineSet
EndChar

StartChar: G.swsh
Encoding: 1114117 -1 117
Width: 1588
VWidth: 1920
Flags: HMW
LayerCount: 2
Fore
SplineSet
796 -42 m 0
 389 -42 68 283 68 693 c 0
 68 1070 331 1448 816 1448 c 0
 1096 1448 1150 1338 1220 1338 c 0
 1276 1338 1262 1357 1310 1357 c 0
 1350 1357 1386 1231 1386 1115 c 0
 1386 1003 1343 940 1288 940 c 0
 1233 940 1249 1016 1238 1069 c 0
 1205 1226 1015 1369 798 1369 c 0
 393 1369 264 1006 264 758 c 0
 264 388 509 53 846 53 c 0
 1123 53 1182 178 1182 359 c 0
 1182 386 1173 464 1126 464 c 0
 1095 464 1057 444 1032 444 c 0
 1007 444 990 457 990 479 c 0
 990 497 1002 514 1030 525 c 0
 1071 541 1155 557 1276 557 c 0
 1306 557 1397 553 1452 545 c 0
 1496 538 1520 520 1520 485 c 0
 1520 457 1505 450 1486 450 c 0
 1466 450 1452 455 1434 455 c 0
 1416.3255346 455 1396 450 1396 354 c 2
 1396 184 l 2
 1396 -199 1186 -379 1019 -379 c 0
 885 -379 814 -322 814 -257 c 0
 814 -210 849 -188 887 -188 c 0
 980 -188 966 -292 1033 -292 c 0
 1171.50878906 -292 1205.04296875 -94.4169921875 1205.95605469 120.067382812 c 1
 1157.97363281 14.4775390625 994.747212968 -42 796 -42 c 0
EndSplineSet
EndChar

StartChar: M.swsh
Encoding: 1114118 -1 118
Width: 2788
VWidth: 1920
Flags: HMW
LayerCount: 2
Fore
SplineSet
1131 1314 m 0
 1106 1314 1063 1300 1034 1300 c 0
 1014 1300 996 1314 996 1334 c 0
 996 1368 1029 1383 1066 1391 c 0
 1128 1404 1191 1410 1282 1410 c 0
 1303 1410 1378 1408 1401 1403 c 0
 1438 1395 1451 1378 1462 1351 c 2
 1741 441 l 2
 1772 365 1789 352 1807 352 c 0
 1822 352 1836.82226562 369.473632812 1870 441 c 2
 2237 1340 l 2
 2250 1372 2260 1387 2297 1396 c 0
 2325 1403 2390 1410 2432 1410 c 0
 2518 1410 2580 1407 2616 1403 c 0
 2669 1397 2684 1376 2684 1351 c 0
 2684 1321 2668 1310 2646 1310 c 0
 2627 1310 2602 1315 2569 1315 c 0
 2479 1315 2417.61584857 1231.42182426 2487 794 c 2
 2533 504 l 2
 2583.76774613 183.942470075 2633 82 2708 82 c 0
 2733 82 2750 93 2779 93 c 0
 2799 93 2815 77 2815 57 c 0
 2815 23 2782 6 2745 0 c 0
 2683 -10 2622 -15 2531 -15 c 0
 2445 -15 2343 -5 2296 6 c 0
 2244 18 2228 34 2228 59 c 0
 2228 76 2245 94 2273 94 c 0
 2296 94 2315 83 2352 83 c 0
 2412 83 2411.08320747 189.561407036 2348 591 c 2
 2293 941 l 2
 2276.95746828 1043.08883821 2279 1068 2250 1068 c 0
 2226 1068 2208 1018 2187 969 c 2
 1808 46 l 2
 1785 -10 1770 -19 1758 -19 c 0
 1744 -19 1723.77672143 -10.1383592166 1704 45 c 2
 1336 1071 l 2
 1294.81844289 1185.81597172 1280.12788501 1174.98217855 1275.62042243 1124.00007655 c 0
 1210.44730975 386.853131247 928.395642475 -36 492 -36 c 0
 260 -36 40 91 40 408 c 0
 40 705 265 808 385 808 c 0
 471 808 534 751 534 694 c 0
 534 637 501 588 435 588 c 0
 370 588 340 681 298 681 c 0
 254 681 122 609 122 428 c 0
 122 170 312 58 499 58 c 0
 816.19921875 58 1137.03624866 383.774065468 1193.78249417 1261 c 0
 1195.10106788 1281.38349936 1195.10106788 1281.38349936 1179.99999964 1293.4704919 c 0
 1157.88119921 1311.1745226 1141.95178896 1314 1131 1314 c 0
EndSplineSet
EndChar

StartChar: N.swsh
Encoding: 1114119 -1 119
Width: 2595
VWidth: 1920
Flags: HMW
LayerCount: 2
Fore
SplineSet
1106 1314 m 0
 1081 1314 1048 1307 1019 1307 c 0
 999 1307 981 1321 981 1341 c 0
 981 1375 1024 1388 1061 1396 c 0
 1123 1409 1225 1410 1286 1410 c 0
 1352 1410 1377 1393 1405 1359 c 2
 2227 386 l 2
 2250 358 2267 345 2288 345 c 0
 2312 345 2314 410 2314 586 c 2
 2314 876 l 2
 2313 1223 2281 1323 2216 1323 c 0
 2191 1323 2156 1312 2127 1312 c 0
 2107 1312 2091 1328 2091 1348 c 0
 2091 1386 2145 1415 2341 1415 c 0
 2564 1415 2614 1375 2614 1336 c 0
 2614 1319 2597 1301 2569 1301 c 0
 2546 1301 2539 1311 2502 1311 c 0
 2442 1311 2399 1240 2399 829 c 2
 2399 539 l 2
 2399 175 2374 -35 2322 -35 c 0
 2286 -35 2274.14355469 -18.7109375 2252 8 c 2
 1454.47851562 970 l 2
 1414.55078125 1018.16308594 1414.55078125 1018.16308594 1397.74609375 970 c 0
 1187.421875 367.1953125 904.971679688 -36 502 -36 c 0
 270 -36 50 91 50 408 c 0
 50 705 275 808 395 808 c 0
 481 808 544 751 544 694 c 0
 544 637 511 588 445 588 c 0
 380 588 350 681 308 681 c 0
 264 681 132 609 132 428 c 0
 132 170 322 58 509 58 c 0
 801.927734375 58 1115.01367188 378.466796875 1324.03710938 1079 c 0
 1334.64453125 1114.54882812 1334.64453125 1114.54882812 1316.03125 1137 c 2
 1258 1207 l 2
 1193.59765625 1284.68457031 1165.39746094 1314 1106 1314 c 0
EndSplineSet
EndChar

StartChar: P.swsh
Encoding: 1114120 -1 120
Width: 1717
VWidth: 1920
Flags: HMW
LayerCount: 2
Fore
SplineSet
907 607 m 2
 907 504 l 2
 907 157 908 97 983 97 c 0
 1008 97 1046 114 1075 114 c 0
 1095 114 1112 101 1112 73 c 0
 1112 39 1093 23 1028 5 c 0
 967 -12 899 -15 808 -15 c 0
 722 -15 630 -3 583 8 c 0
 531 20 515 48 515 73 c 0
 515 95 532 108 560 108 c 0
 583 108 610 96 647 96 c 0
 707 96 720 180 720 591 c 2
 720 898 l 2
 720 1116.7109375 715.0546875 1232.53027344 691.657226562 1288.27441406 c 0
 683.342773438 1308.08300781 655.918945312 1318 589 1318 c 0
 372 1318 131 1186 131 888 c 0
 131 707 204 645 248 645 c 0
 290 645 320 738 385 738 c 0
 451 738 484 689 484 632 c 0
 484 575 421 518 335 518 c 0
 215 518 50 591 50 888 c 0
 50 1205 337 1402 592 1402 c 0
 660 1402 670 1398 772 1398 c 0
 974 1398 1013 1407 1132 1407 c 0
 1409 1407 1616 1306 1616 1036 c 0
 1616 752 1353 612 1119 612 c 0
 978 612 940 637 923 637 c 0
 913 637 907 632 907 607 c 2
1102 689 m 0
 1268 689 1425 763 1425 973 c 0
 1425 1173 1314 1329 1112 1329 c 0
 947 1329 930 1294 920 1262 c 0
 913 1239 907 1119 907 1044 c 2
 907 968 l 2
 907 916 908 769 910 744 c 0
 913 716 984 689 1102 689 c 0
EndSplineSet
EndChar

StartChar: R.swsh
Encoding: 1114121 -1 121
Width: 1952
VWidth: 1920
Flags: HMW
LayerCount: 2
Fore
SplineSet
1102 756 m 0
 1268 756 1405 823 1405 1033 c 0
 1405 1233 1314 1328 1112 1328 c 0
 947 1328 930 1293 920 1261 c 0
 913 1238 907 1118 907 1043 c 2
 907 968 l 2
 907 916 908 809 910 784 c 0
 913 756 984 756 1102 756 c 0
907 626 m 2
 907 504 l 2
 907 157 908 97 983 97 c 0
 1008 97 1046 114 1075 114 c 0
 1095 114 1112 101 1112 73 c 0
 1112 39 1093 23 1028 5 c 0
 967 -12 899 -15 808 -15 c 0
 722 -15 630 -3 583 8 c 0
 531 20 515 48 515 73 c 0
 515 95 532 108 560 108 c 0
 583 108 610 96 647 96 c 0
 707 96 720 180 720 591 c 2
 720 900 l 2
 720 1134.67773438 715.71875 1242.98144531 688.49609375 1284.20800781 c 4
 675.211914062 1304.32519531 644.873046875 1317 589 1317 c 0
 372 1317 131 1185 131 887 c 0
 131 706 204 644 248 644 c 0
 290 644 320 737 385 737 c 0
 451 737 484 688 484 631 c 0
 484 574 421 517 335 517 c 0
 215 517 50 590 50 887 c 0
 50 1204 337 1401 592 1401 c 4
 660 1401 690 1397 772 1397 c 4
 974 1397 1043 1416 1162 1416 c 0
 1439 1416 1616 1346 1616 1076 c 0
 1616 919 1535 811 1424 744 c 0
 1407 734 1390 727 1390 719 c 0
 1390 712 1398 704 1414 697 c 0
 1475 670 1548 618 1588 516 c 0
 1653 349 1672 104 1798 104 c 0
 1858 104 1847 171 1887 171 c 0
 1914 171 1926 156 1926 125 c 0
 1926 49 1818 -22 1728 -22 c 0
 1638 -22 1595 6 1539 68 c 0
 1451 164 1397 423 1329 562 c 0
 1283 657 1171 662 1119 662 c 0
 978 662 940 655 923 655 c 0
 913 655 907 651 907 626 c 2
EndSplineSet
EndChar

StartChar: T.swsh
Encoding: 1114122 -1 122
Width: 1662
VWidth: 1920
Flags: HMW
LayerCount: 2
Fore
SplineSet
724 1280.98632812 m 0
 637.314453125 1305.09375 562.422851562 1314 428 1314 c 4
 301 1314 131 1234 131 956 c 4
 131 775 233 673 367 673 c 4
 429 673 420 786 495 786 c 4
 561 786 594 747 594 680 c 4
 594 623 511 566 425 566 c 4
 245 566 50 669 50 956 c 4
 50 1313 287 1430 542 1430 c 4
 850.305664062 1430 1308.04882812 1319 1452 1319 c 0
 1536.49609375 1319 1527.40332031 1405 1566 1405 c 0
 1597 1405 1612 1374 1612 1344 c 0
 1612 1278 1566.92773438 1158 1392 1158 c 0
 1231.04882812 1158 1042.703125 1233.48144531 1006 1233.48144531 c 0
 976 1233.48144531 966 1224.63085938 966 1171 c 2
 966 604 l 2
 966 348 970 176 998 120 c 0
 1010 96 1026 86 1064 86 c 0
 1118 86 1145 111 1174 111 c 0
 1198 111 1210 93 1210 70 c 0
 1210 36 1144 9 1098 0 c 0
 1041 -11 959 -15 868 -15 c 0
 782 -15 711 -14 664 -5 c 0
 615 4 520 21 520 74 c 0
 520 91 536 114 564 114 c 0
 587 114 619 86 686 86 c 0
 715 86 744 105 755 131 c 0
 779 189 790 307 790 591 c 2
 790 1198 l 2
 790 1249.87207031 778.662109375 1265.78417969 724 1280.98632812 c 0
EndSplineSet
EndChar

StartChar: Y.swsh
Encoding: 1114123 -1 123
Width: 1722
VWidth: 1920
Flags: HMW
LayerCount: 2
Fore
SplineSet
1116.02108493 548.462646563 m 0
 1116.42973894 308.055290539 1122.94433834 167.111316436 1150 113 c 0
 1162 89 1186 86 1206 86 c 0
 1250 86 1273 105 1302 105 c 0
 1326 105 1338 87 1338 64 c 0
 1338 30 1284 6 1238 -3 c 0
 1181 -14 1109 -15 1018 -15 c 0
 932 -15 859 -14 812 -5 c 0
 763 4 710 22 710 55 c 0
 710 72 726 95 754 95 c 0
 777 95 811 79 848 79 c 0
 867 79 888 89 898 115 c 0
 921 173 920 296 920 541 c 0
 920 1030 738 1304 468 1304 c 0
 281 1304 141 1204 141 966 c 0
 141 785 263 660 387 660 c 0
 449 660 440 786 515 786 c 0
 581 786 614 737 614 680 c 0
 614 603 541 566 425 566 c 0
 235 566 50 679 50 966 c 0
 50 1293 267 1430 522 1430 c 0
 763.697993367 1430 954.8466029 1283.12065829 1049.99999363 1011.75557477 c 0
 1078.97906277 929.111041992 1068.97949219 929.111328125 1103.40722656 1020 c 0
 1190.0703125 1248.79003906 1331.64046908 1423.99999998 1498 1424 c 4
 1585 1424.00000001 1642 1381 1642 1321 c 0
 1642 1258 1595 1233 1554 1233 c 0
 1481 1233 1490 1311 1432 1311 c 0
 1370.76464844 1311 1118.72523514 1090.50246146 1116.02108493 548.462646563 c 0
EndSplineSet
EndChar

StartChar: less
Encoding: 60 60 124
Width: 1025
Flags: HMW
LayerCount: 2
Fore
SplineSet
505 316 m 6
 486 324 l 6
 280 416 176 455 107 486 c 4
 82 497 80 504 80 524 c 6
 80 564 l 6
 80 584 82 591 107 602 c 4
 176 633 279 672 485 764 c 6
 504 772 l 6
 710 864 808 916 877 947 c 4
 889 952 898 956 905 956 c 4
 927 956 951 886 951 875 c 4
 951 864 940 857 921 849 c 4
 852 818 748 779 542 687 c 6
 523 678 l 6
 377 612 285 573 220 544 c 5
 286 515 377 476 524 410 c 6
 543 401 l 6
 749 309 852 271 921 240 c 4
 940 232 951 224 951 213 c 4
 951 202 927 133 905 133 c 4
 898 133 889 136 877 141 c 4
 808 172 711 224 505 316 c 6
EndSplineSet
EndChar

StartChar: greater
Encoding: 62 62 125
Width: 1025
Flags: HMW
LayerCount: 2
Fore
SplineSet
520 316 m 6
 314 224 217 172 148 141 c 4
 136 136 127 133 120 133 c 4
 98 133 74 202 74 213 c 4
 74 224 85 232 104 240 c 4
 173 271 276 309 482 401 c 6
 501 410 l 6
 648 476 739 515 805 544 c 5
 740 573 648 612 502 678 c 6
 483 687 l 6
 277 779 173 818 104 849 c 4
 85 857 74 864 74 875 c 4
 74 886 98 956 120 956 c 4
 127 956 136 952 148 947 c 4
 217 916 315 864 521 772 c 6
 540 764 l 6
 746 672 849 633 918 602 c 4
 943 591 945 584 945 564 c 6
 945 524 l 6
 945 504 943 497 918 486 c 4
 849 455 745 416 539 324 c 6
 520 316 l 6
EndSplineSet
EndChar

StartChar: asciicircum
Encoding: 94 94 126
Width: 983
Flags: HMW
LayerCount: 2
Fore
SplineSet
720 985 m 6
 812 779 864 682 895 613 c 4
 900 601 903 592 903 585 c 4
 903 563 834 539 823 539 c 4
 812 539 804 550 796 569 c 4
 765 638 727 741 635 947 c 6
 626 966 l 6
 560 1113 521 1204 492 1270 c 5
 463 1205 424 1113 358 967 c 6
 349 948 l 6
 257 742 218 638 187 569 c 4
 179 550 172 539 161 539 c 4
 150 539 80 563 80 585 c 4
 80 592 84 601 89 613 c 4
 120 682 172 780 264 986 c 6
 272 1005 l 6
 364 1211 403 1314 434 1383 c 4
 445 1408 452 1410 472 1410 c 6
 512 1410 l 6
 532 1410 539 1408 550 1383 c 4
 581 1314 620 1210 712 1004 c 6
 720 985 l 6
EndSplineSet
EndChar

StartChar: gravecomb
Encoding: 768 768 127
Width: 0
VWidth: 1920
Flags: HMW
AnchorPoint: "top" -59 920 mark 0
LayerCount: 2
Fore
SplineSet
-149 1138 m 4
 -204 1181 -251 1198 -295 1233 c 4
 -318.801757812 1251.93359375 -325 1271 -325 1297 c 4
 -325 1361 -272 1404 -227 1404 c 4
 -200 1404 -174.203125 1369.83789062 -155 1346 c 4
 -126 1310 -113.856445312 1278.04589844 -65 1212 c 4
 -11 1139 22 1107 22 1075 c 4
 22 1056 13 1045 -10 1045 c 4
 -48 1045 -68 1075 -149 1138 c 4
EndSplineSet
EndChar

StartChar: acutecomb
Encoding: 769 769 129
Width: 0
VWidth: 1920
Flags: HMW
AnchorPoint: "top" -299 920 mark 0
LayerCount: 2
Fore
SplineSet
-204 1138 m 0
 -285 1075 -305 1045 -343 1045 c 0
 -366 1045 -375 1056 -375 1075 c 0
 -375 1107 -342 1139 -288 1212 c 0
 -239.143554688 1278.04589844 -227 1310 -198 1346 c 0
 -178.796875 1369.83789062 -153 1404 -126 1404 c 0
 -81 1404 -28 1361 -28 1297 c 0
 -28 1271 -34.1982421875 1251.93359375 -58 1233 c 0
 -102 1198 -149 1181 -204 1138 c 0
EndSplineSet
EndChar

StartChar: uni0302
Encoding: 770 770 130
Width: 0
VWidth: 1920
Flags: HMW
AnchorPoint: "top" -326 1024.73 mark 0
LayerCount: 2
Fore
SplineSet
-419.85546875 1194.90039062 m 4
 -487.127929688 1141.34960938 -520.290039062 1107.34960938 -546.8203125 1107.34960938 c 4
 -568.612304688 1107.34960938 -581.877929688 1116.70019531 -581.877929688 1132.84960938 c 4
 -581.877929688 1147.7421875 -573.940429688 1166.14648438 -555.625 1188.09960938 c 6
 -424.592773438 1345.16601562 l 6
 -391.416015625 1384.93457031 -359.254882812 1404 -327 1404 c 4
 -299.451171875 1404 -270.5234375 1391.90722656 -244.72265625 1361.5 c 6
 -110.575195312 1203.40039062 l 6
 -85.0908203125 1173.36523438 -72.1220703125 1150.93359375 -72.1220703125 1132.84960938 c 4
 -72.1220703125 1116.70019531 -85.3876953125 1107.34960938 -107.1796875 1107.34960938 c 4
 -133.709960938 1107.34960938 -166.872070312 1141.34960938 -234.14453125 1194.90039062 c 4
 -272.333007812 1225.29785156 -298.783203125 1246.65429688 -327 1265.72949219 c 5
 -355.216796875 1246.65429688 -381.666992188 1225.29785156 -419.85546875 1194.90039062 c 4
EndSplineSet
EndChar

StartChar: tildecomb
Encoding: 771 771 131
Width: 0
VWidth: 1920
Flags: HMW
AnchorPoint: "top" -326 1024.73 mark 0
LayerCount: 2
Fore
SplineSet
-162 1297 m 4
 -122 1297 -107.702148438 1318.92773438 -102 1352 c 4
 -92 1410 -87 1432 -56 1432 c 4
 -28 1432 -18 1407 -18 1384 c 4
 -18 1293.28808594 -74.814453125 1164 -192 1164 c 4
 -342 1164 -346 1299 -416 1299 c 4
 -456 1299 -470.297851562 1277.07226562 -476 1244 c 4
 -486 1186 -490 1164 -522 1164 c 4
 -540 1164 -560 1179 -560 1212 c 4
 -560 1302.71191406 -503.185546875 1432 -386 1432 c 4
 -236 1432 -232 1297 -162 1297 c 4
EndSplineSet
EndChar

StartChar: asciitilde
Encoding: 126 126 132
Width: 1002
VWidth: 1920
Flags: HMW
LayerCount: 2
Fore
SplineSet
294 579 m 4
 224 579 188 526 174 464 c 4
 161 405 150 384 118 384 c 4
 100 384 80 409 80 462 c 4
 80 552.711914062 156.814453125 682 304 682 c 4
 494 682 558 507 698 507 c 4
 768 507 804 560 818 622 c 4
 831 681 840 702 872 702 c 4
 900 702 922 667 922 614 c 4
 922 530.943359375 841.909179688 404 688 404 c 4
 498 404 434 579 294 579 c 4
EndSplineSet
EndChar

StartChar: uni0304
Encoding: 772 772 136
Width: 0
VWidth: 1920
Flags: HMW
AnchorPoint: "top" -282 1024.73 mark 0
LayerCount: 2
Fore
SplineSet
-299 1195 m 6
 -395 1195 -444 1191 -520 1191 c 4
 -547 1191 -560 1194 -560 1215 c 6
 -560 1275 l 6
 -560 1296 -547 1299 -520 1299 c 4
 -444 1299 -395 1296 -299 1296 c 6
 -278 1296 l 6
 -162 1296 -132 1299 -56 1299 c 4
 -29 1299 -16 1296 -16 1275 c 6
 -16 1215 l 6
 -16 1194 -29 1191 -56 1191 c 4
 -132 1191 -162 1195 -278 1195 c 6
 -299 1195 l 6
EndSplineSet
EndChar

StartChar: uni0306
Encoding: 774 774 138
Width: 0
VWidth: 1920
Flags: HMW
AnchorPoint: "top" -326 1024.73 mark 0
LayerCount: 2
Fore
SplineSet
-325 1122 m 4
 -520.587890625 1122 -559.877929688 1280.38476562 -559.877929688 1393.15039062 c 4
 -559.877929688 1409.29980469 -552.8203125 1419.65039062 -536.8203125 1419.65039062 c 4
 -521.002929688 1419.65039062 -515.52734375 1403.29003906 -510 1387.37011719 c 4
 -484.100585938 1312.77441406 -435.608398438 1252 -325 1252 c 4
 -214.391601562 1252 -165.899414062 1312.77441406 -140 1387.37011719 c 4
 -134.47265625 1403.29003906 -128.997070312 1419.65039062 -113.1796875 1419.65039062 c 4
 -97.1796875 1419.65039062 -90.1220703125 1409.29980469 -90.1220703125 1393.15039062 c 4
 -90.1220703125 1280.38476562 -129.412109375 1122 -325 1122 c 4
EndSplineSet
EndChar

StartChar: uni0307
Encoding: 775 775 139
Width: 0
VWidth: 1920
Flags: HMW
AnchorPoint: "top" -256 1024.73 mark 0
LayerCount: 2
Fore
SplineSet
-376 1293 m 4
 -376 1360 -323 1413 -256 1413 c 4
 -189 1413 -136 1360 -136 1293 c 4
 -136 1226 -189 1173 -256 1173 c 4
 -323 1173 -376 1226 -376 1293 c 4
EndSplineSet
EndChar

StartChar: uni0308
Encoding: 776 776 140
Width: 0
VWidth: 1920
Flags: HMW
AnchorPoint: "top" -436 1024.73 mark 0
LayerCount: 2
Fore
SplineSet
-766 1293 m 0
 -766 1360 -713 1413 -646 1413 c 0
 -579 1413 -526 1360 -526 1293 c 0
 -526 1226 -579 1173 -646 1173 c 0
 -713 1173 -766 1226 -766 1293 c 0
-346 1293 m 0
 -346 1360 -293 1413 -226 1413 c 0
 -159 1413 -106 1360 -106 1293 c 0
 -106 1226 -159 1173 -226 1173 c 0
 -293 1173 -346 1226 -346 1293 c 0
EndSplineSet
EndChar

StartChar: uni030A
Encoding: 778 778 141
Width: 0
VWidth: 1920
Flags: HMW
AnchorPoint: "top" -256 924.729 mark 0
LayerCount: 2
Fore
SplineSet
-356 1183 m 4
 -356 1116 -323 1073 -256 1073 c 4
 -189 1073 -156 1116 -156 1183 c 4
 -156 1250 -189 1293 -256 1293 c 4
 -323 1293 -356 1250 -356 1183 c 4
-456 1183 m 4
 -456 1280 -373 1353 -256 1353 c 4
 -139 1353 -56 1280 -56 1183 c 4
 -56 1086 -139 1013 -256 1013 c 4
 -373 1013 -456 1086 -456 1183 c 4
EndSplineSet
EndChar

StartChar: uni030B
Encoding: 779 779 142
Width: 0
VWidth: 1920
Flags: HMW
AnchorPoint: "top" -475.5 920 mark 0
LayerCount: 2
Fore
SplineSet
-527.5 1138 m 0
 -592.299804688 1075 -608.299804688 1045 -638.700195312 1045 c 0
 -657.099609375 1045 -664.299804688 1056 -664.299804688 1075 c 0
 -664.299804688 1107 -637.900390625 1139 -594.700195312 1212 c 0
 -555.615234375 1278.04589844 -545.900390625 1310 -522.700195312 1346 c 0
 -507.337890625 1369.83789062 -486.700195312 1404 -465.099609375 1404 c 0
 -429.099609375 1404 -386.700195312 1361 -386.700195312 1297 c 0
 -386.700195312 1271 -391.658203125 1251.93359375 -410.700195312 1233 c 0
 -445.900390625 1198 -483.5 1181 -527.5 1138 c 0
-239.5 1138 m 0
 -304.299804688 1075 -320.299804688 1045 -350.700195312 1045 c 0
 -369.099609375 1045 -376.299804688 1056 -376.299804688 1075 c 0
 -376.299804688 1107 -349.900390625 1139 -306.700195312 1212 c 0
 -267.615234375 1278.04589844 -257.900390625 1310 -234.700195312 1346 c 0
 -219.337890625 1369.83789062 -198.700195312 1404 -177.099609375 1404 c 0
 -141.099609375 1404 -98.7001953125 1361 -98.7001953125 1297 c 0
 -98.7001953125 1271 -103.658203125 1251.93359375 -122.700195312 1233 c 0
 -157.900390625 1198 -195.5 1181 -239.5 1138 c 0
EndSplineSet
EndChar

StartChar: uni030F
Encoding: 783 783 143
Width: 0
VWidth: 1920
Flags: HMW
AnchorPoint: "top" -287.5 920 mark 0
LayerCount: 2
Fore
SplineSet
-235.5 1138 m 0
 -279.5 1181 -317.099609375 1198 -352.299804688 1233 c 0
 -371.341796875 1251.93359375 -376.299804688 1271 -376.299804688 1297 c 0
 -376.299804688 1361 -333.900390625 1404 -297.900390625 1404 c 0
 -276.299804688 1404 -255.662109375 1369.83789062 -240.299804688 1346 c 0
 -217.099609375 1310 -207.384765625 1278.04589844 -168.299804688 1212 c 0
 -125.099609375 1139 -98.7001953125 1107 -98.7001953125 1075 c 0
 -98.7001953125 1056 -105.900390625 1045 -124.299804688 1045 c 0
 -154.700195312 1045 -170.700195312 1075 -235.5 1138 c 0
-523.5 1138 m 0
 -567.5 1181 -605.099609375 1198 -640.299804688 1233 c 0
 -659.341796875 1251.93359375 -664.299804688 1271 -664.299804688 1297 c 0
 -664.299804688 1361 -621.900390625 1404 -585.900390625 1404 c 0
 -564.299804688 1404 -543.662109375 1369.83789062 -528.299804688 1346 c 0
 -505.099609375 1310 -495.384765625 1278.04589844 -456.299804688 1212 c 0
 -413.099609375 1139 -386.700195312 1107 -386.700195312 1075 c 0
 -386.700195312 1056 -393.900390625 1045 -412.299804688 1045 c 0
 -442.700195312 1045 -458.700195312 1075 -523.5 1138 c 0
EndSplineSet
EndChar

StartChar: uni030C
Encoding: 780 780 144
Width: 0
VWidth: 1920
Flags: HMW
AnchorPoint: "top" -326 1024.73 mark 0
LayerCount: 2
Fore
SplineSet
-234.14453125 1316.44921875 m 4
 -166.872070312 1370 -133.709960938 1404 -107.1796875 1404 c 4
 -85.3876953125 1404 -72.1220703125 1394.64941406 -72.1220703125 1378.5 c 4
 -72.1220703125 1363.60742188 -80.0595703125 1345.203125 -98.375 1323.25 c 6
 -229.407226562 1166.18359375 l 6
 -262.583984375 1126.41503906 -294.745117188 1107.34960938 -327 1107.34960938 c 4
 -354.548828125 1107.34960938 -383.4765625 1119.44238281 -409.27734375 1149.84960938 c 6
 -543.424804688 1307.94921875 l 6
 -568.909179688 1337.984375 -581.877929688 1360.41601562 -581.877929688 1378.5 c 4
 -581.877929688 1394.64941406 -568.612304688 1404 -546.8203125 1404 c 4
 -520.290039062 1404 -487.127929688 1370 -419.85546875 1316.44921875 c 4
 -381.666992188 1286.05175781 -355.216796875 1264.6953125 -327 1245.62011719 c 5
 -298.783203125 1264.6953125 -272.333007812 1286.05175781 -234.14453125 1316.44921875 c 4
EndSplineSet
EndChar

StartChar: uni0311
Encoding: 785 785 145
Width: 0
VWidth: 1920
Flags: HMW
AnchorPoint: "top" -326 1024.73 mark 0
LayerCount: 2
Fore
SplineSet
-325 1419.65039062 m 4
 -129.412109375 1419.65039062 -90.1220703125 1261.265625 -90.1220703125 1148.5 c 4
 -90.1220703125 1132.35058594 -97.1796875 1122 -113.1796875 1122 c 4
 -128.997070312 1122 -134.47265625 1138.36035156 -140 1154.28027344 c 4
 -165.899414062 1228.87597656 -214.391601562 1289.65039062 -325 1289.65039062 c 4
 -435.608398438 1289.65039062 -484.100585938 1228.87597656 -510 1154.28027344 c 4
 -515.52734375 1138.36035156 -521.002929688 1122 -536.8203125 1122 c 4
 -552.8203125 1122 -559.877929688 1132.35058594 -559.877929688 1148.5 c 4
 -559.877929688 1261.265625 -520.587890625 1419.65039062 -325 1419.65039062 c 4
EndSplineSet
EndChar

StartChar: uni0312
Encoding: 786 786 146
Width: 0
Flags: HMW
AnchorPoint: "top" -604 920 mark 0
LayerCount: 2
Fore
SplineSet
-587 1392 m 4
 -587 1372 -606 1360 -619 1345 c 4
 -640 1322 -655 1289 -655 1241 c 4
 -655 1217 -648 1213 -639 1213 c 4
 -632 1213 -626 1216 -604 1216 c 4
 -550 1216 -494 1177 -494 1115 c 4
 -494 1053 -536 1011 -598 1011 c 4
 -684 1011 -724 1076 -724 1190 c 4
 -724 1324 -654 1422 -611 1422 c 4
 -600 1422 -587 1411 -587 1392 c 4
EndSplineSet
EndChar

StartChar: dotbelowcomb
Encoding: 803 803 147
Width: 0
VWidth: 1920
Flags: HMW
AnchorPoint: "bottom" -255 0 mark 0
LayerCount: 2
Fore
SplineSet
-376 -247 m 0
 -376 -180 -323 -127 -256 -127 c 0
 -189 -127 -136 -180 -136 -247 c 0
 -136 -314 -189 -367 -256 -367 c 0
 -323 -367 -376 -314 -376 -247 c 0
EndSplineSet
EndChar

StartChar: uni0326
Encoding: 806 806 148
Width: 0
Flags: HMW
AnchorPoint: "bottom" -255 0 mark 0
LayerCount: 2
Fore
SplineSet
-269 -521 m 4
 -269 -501 -250 -489 -237 -474 c 4
 -216 -451 -201 -418 -201 -370 c 4
 -201 -346 -208 -342 -217 -342 c 4
 -224 -342 -230 -345 -252 -345 c 4
 -306 -345 -362 -306 -362 -244 c 4
 -362 -182 -320 -140 -258 -140 c 4
 -172 -140 -132 -205 -132 -319 c 4
 -132 -453 -202 -551 -245 -551 c 4
 -256 -551 -269 -540 -269 -521 c 4
EndSplineSet
EndChar

StartChar: uni0327
Encoding: 807 807 149
Width: 0
Flags: HMW
AnchorPoint: "bottom" -255 0 mark 0
LayerCount: 2
Fore
SplineSet
-272 -440 m 0
 -404 -440 -472 -372 -472 -326 c 0
 -472 -304 -457.036132812 -291 -443 -291 c 0
 -428 -291 -414 -300 -404 -320 c 0
 -385 -360 -354 -374 -312 -374 c 0
 -240 -374 -212 -322 -212 -264 c 16
 -212 -206 -248 -178 -290 -178 c 16
 -307 -178 -323 -180 -336 -180 c 0
 -353 -180 -370 -176 -370 -154 c 0
 -370 -135 -360 -129 -344 -100 c 2
 -290 10 l 1
 -220 10 l 1
 -303 -136 l 1
 -286 -130 -263 -124 -240 -124 c 0
 -172 -124 -74 -170 -74 -268 c 16
 -74 -366 -140 -440 -272 -440 c 0
EndSplineSet
EndChar

StartChar: uni0328
Encoding: 808 808 150
Width: 0
Flags: HMW
AnchorPoint: "ogonek" -181 0 mark 0
LayerCount: 2
Fore
SplineSet
-484 -262 m 4
 -484 -81 -254 0 -172 38 c 5
 -144 0 l 21
 -178 -19 -320 -89 -320 -234 c 4
 -320 -308 -312 -360 -236 -360 c 12
 -160 -360 -146 -286 -112 -286 c 4
 -98 -286 -90 -293 -90 -310 c 4
 -90 -360 -176 -442 -296 -442 c 4
 -416 -442 -484 -378 -484 -262 c 4
EndSplineSet
EndChar

StartChar: minute
Encoding: 8242 8242 166
Width: 569
VWidth: 1920
Flags: HMW
LayerCount: 2
Fore
SplineSet
159 799 m 0
 136 799 133 814 133 844 c 0
 133 874.784179688 143.602539062 915.873046875 153.543945312 980 c 0
 161.912109375 1033.97851562 195 1271.82910156 205 1342 c 0
 214.170446611 1406.34984778 267 1453 334 1453 c 0
 389 1453 414 1415 414 1380 c 0
 414 1281.19433594 295.951171875 1060.36914062 255.293945312 947 c 0
 211.856445312 825.87890625 184.833984375 799 159 799 c 0
EndSplineSet
EndChar

StartChar: Eth
Encoding: 208 208 186
Width: 1691
VWidth: 1920
Flags: HMW
LayerCount: 2
Fore
SplineSet
293 685 m 6
 197 685 108 681 32 681 c 4
 5 681 -8 684 -8 705 c 6
 -8 765 l 6
 -8 786 5 789 32 789 c 4
 108 789 197 786 293 786 c 6
 314 786 l 6
 430 786 500 789 576 789 c 4
 603 789 616 786 616 765 c 6
 616 705 l 6
 616 684 603 681 576 681 c 4
 500 681 430 685 314 685 c 6
 293 685 l 6
EndSplineSet
Refer: 4 68 N 1 0 0 1 0 0 2
EndChar

StartChar: dotlessi
Encoding: 305 305 187
Width: 569
VWidth: 1920
Flags: HMW
AnchorPoint: "top" 301 880 basechar 0
LayerCount: 2
Fore
SplineSet
228 401 m 2
 228 469 l 2
 228 706 225 721 180 721 c 0
 145 721 130 707 110 707 c 0
 90 707 76 721 76 741 c 0
 76 766 96 774 142 794 c 0
 200 819 321 844 352 844 c 0
 373 844 376 831 376 804 c 0
 376 728 376 788 376 462 c 2
 376 414 l 2
 376 298 380 143 397 97 c 0
 406 72 420 67 440 67 c 0
 464 67 473 74 492 74 c 0
 506 74 522 64 522 48 c 0
 522 12 487 -15 288 -15 c 0
 108 -15 68 1 68 38 c 0
 68 55 75 70 94 70 c 0
 112 70 129 62 146 62 c 0
 165 62 191 75 202 101 c 0
 226 159 228 307 228 401 c 2
EndSplineSet
EndChar

StartChar: kgreenlandic
Encoding: 312 312 188
Width: 1026
VWidth: 1920
Flags: HMW
LayerCount: 2
Fore
SplineSet
242 421 m 2
 242 451 l 2
 242 668 237 738 192 738 c 0
 157 738 142 724 122 724 c 0
 102 724 88 738 88 758 c 0
 88 783 108 791 154 811 c 0
 212 836 343 861 374 861 c 0
 395 861 398 848 398 821 c 0
 398 745 392 690 392 604 c 6
 392 576 l 2
 392 554 392 537 406 537 c 0
 420 537 467 574 498 601 c 2
 578 671 l 2
 644 730 656 738 656 760 c 0
 656 769 648 769 642 769 c 0
 638 769 633 768 626 768 c 0
 606 768 592 775 592 795 c 0
 592 827 618 845 748 845 c 0
 865 845 922 830 922 791 c 0
 922 769 900 760 878 760 c 0
 863 760 847 766 836 766 c 0
 799 766 766 747 672 664 c 2
 562 567 l 2
 538 542 531 541 564 509 c 1
 756 252 l 2
 819 168 860 120 888 93 c 0
 902 80 915 68 934 68 c 0
 984 68 1004 65 1004 31 c 0
 1004 7 990 0 940 0 c 2
 820 0 l 2
 777 0 761 1 748 12 c 0
 732 26 692 91 604 200 c 2
 440 403 l 2
 420 427 415 435 404 435 c 0
 391 435 386 424 386 389 c 0
 386 208 395 133 408 97 c 0
 417 72 432 67 452 67 c 0
 476 67 485 74 504 74 c 0
 518 74 534 64 534 48 c 0
 534 12 499 -15 300 -15 c 0
 120 -15 80 1 80 38 c 0
 80 55 87 70 106 70 c 0
 124 70 141 62 158 62 c 0
 177 62 203 75 214 101 c 0
 238 159 242 247 242 421 c 2
EndSplineSet
EndChar

StartChar: multiply
Encoding: 215 215 189
Width: 1222
Flags: HMW
LayerCount: 2
Fore
SplineSet
615 581 m 2
 739 705 815 791 869 845 c 0
 888 864 899 871 914 856 c 2
 956 814 l 2
 971 799 964 788 945 769 c 0
 891 715 805 639 681 515 c 2
 627 461 l 2
 503 337 405 229 351 175 c 0
 332 156 321 149 306 164 c 2
 264 206 l 2
 249 221 256 232 275 251 c 0
 329 305 437 403 561 527 c 2
 615 581 l 2
681 505 m 2
 805 381 891 305 945 251 c 0
 964 232 971 221 956 206 c 2
 914 164 l 2
 899 149 888 156 869 175 c 0
 815 229 739 315 615 439 c 2
 561 493 l 2
 437 617 329 715 275 769 c 0
 256 788 249 799 264 814 c 2
 306 856 l 2
 321 871 332 864 351 845 c 0
 405 791 503 683 627 559 c 2
 681 505 l 2
EndSplineSet
EndChar

StartChar: Dcroat
Encoding: 272 272 190
Width: 1691
VWidth: 1920
Flags: HMW
LayerCount: 2
Fore
SplineSet
293 685 m 6
 197 685 108 681 32 681 c 4
 5 681 -8 684 -8 705 c 6
 -8 765 l 6
 -8 786 5 789 32 789 c 4
 108 789 197 786 293 786 c 6
 314 786 l 6
 430 786 500 789 576 789 c 4
 603 789 616 786 616 765 c 6
 616 705 l 6
 616 684 603 681 576 681 c 4
 500 681 430 685 314 685 c 6
 293 685 l 6
EndSplineSet
Refer: 4 68 N 1 0 0 1 0 0 2
EndChar

StartChar: percent
Encoding: 37 37 197
Width: 1580
Flags: HMW
LayerCount: 2
Fore
SplineSet
1465 371 m 256
 1465 151 1294 -35 1119 -35 c 256
 984 -35 862 57 862 292 c 256
 862 514 1037 685 1201 685 c 256
 1342 685 1465 600 1465 371 c 256
1118 37 m 256
 1206 37 1320 204 1320 418 c 260
 1320 539 1283 615 1208 615 c 256
 1108 615 1007 447 1007 235 c 256
 1007 105 1038 37 1118 37 c 256
718 968 m 256
 718 748 547 563 372 563 c 256
 237 563 115 654 115 889 c 256
 115 1111 290 1283 454 1283 c 256
 595 1283 718 1197 718 968 c 256
372 634 m 256
 460 634 573 801 573 1015 c 256
 573 1136 536 1212 461 1212 c 256
 361 1212 260 1045 260 833 c 256
 260 703 292 634 372 634 c 256
790 566 m 2
 622 326 500 143 409 13 c 0
 395 -7 387 -15 372 -4 c 2
 327 26 l 2
 312 37 316 48 330 68 c 0
 421 198 553 375 721 615 c 2
 760 671 l 2
 928 911 1065 1117 1156 1247 c 0
 1170 1267 1179 1275 1194 1264 c 2
 1238 1234 l 2
 1253 1223 1250 1212 1236 1192 c 0
 1145 1062 998 863 830 623 c 2
 790 566 l 2
EndSplineSet
EndChar

StartChar: cent
Encoding: 162 162 201
Width: 1087
VWidth: 1920
Flags: HMW
LayerCount: 2
Fore
SplineSet
460 6 m 6
 460 -36 482 -67 482 -79 c 4
 482 -95 473 -105 449 -115 c 4
 416 -129 384 -150 363 -150 c 4
 349 -150 333 -142 333 -110 c 4
 333 -88 358 -12 358 132 c 6
 358 860 l 2
 358 902 336 933 336 945 c 0
 336 961 345 971 369 981 c 0
 402 995 434 1016 455 1016 c 0
 469 1016 485 1008 485 976 c 0
 485 954 460 878 460 734 c 2
 460 6 l 6
EndSplineSet
Refer: 37 99 N 1 0 0 1 0 0 2
EndChar

StartChar: exclamdown
Encoding: 161 161 202
Width: 569
VWidth: 1920
Flags: MW
LayerCount: 2
Fore
SplineSet
414 -483 m 4
 414 -590 361 -643 284 -643 c 4
 207 -643 154 -590 154 -483 c 4
 154 -371.91015625 228.83203125 264.98046875 234.2109375 302 c 4
 241.763671875 353.983398438 238.08984375 397 284 397 c 4
 329.91015625 397 326.236328125 353.983398438 333.7890625 302 c 4
 339.16796875 264.98046875 414 -371.91015625 414 -483 c 4
424 707 m 4
 424 630 361 567 284 567 c 4
 207 567 144 630 144 707 c 4
 144 784 207 847 284 847 c 4
 361 847 424 784 424 707 c 4
EndSplineSet
EndChar

StartChar: AE
Encoding: 198 198 203
Width: 1940
VWidth: 1920
Flags: MW
LayerCount: 2
Fore
SplineSet
1067 -1 m 0
 981 -1 949 -3 864 -3 c 0
 793 -3 758 17 758 51 c 0
 758 80 775 89 801 89 c 0
 821 89 844 83 873 83 c 0
 926 83 927 135 939 378 c 0
 942.542704199 450.625436082 944.9087753 506.778008795 946.445585222 564 c 0
 946.898210264 580.85316175 946.898210264 580.85316175 928 581.792721223 c 0
 915.062334026 582.435941213 897.331563728 583 874 583 c 0
 805 583 678 574 630 568 c 0
 594 563 571.728877348 541.930757967 550 506 c 2
 397 253 l 2
 351.575007436 177.885469812 342 132 342 111 c 0
 342 75 370 63 404 63 c 0
 428 63 457 75 476 75 c 0
 498 75 508 57 508 34 c 0
 508 -10 433 -15 300 -15 c 0
 109 -15 7 1 7 49 c 0
 7 72 21 89 44 89 c 0
 67 89 90 78 122 78 c 0
 186 78 213.415797801 145.226898521 380 402 c 2
 694 886 l 2
 801.504697576 1051.70787779 932 1208 932 1276 c 1
 927 1306 906 1320 878 1320 c 0
 855 1320 827 1312 808 1312 c 0
 784 1312 767 1327 767 1355 c 0
 767 1389 795 1405 862 1405 c 0
 930 1405 1000 1401 1102 1401 c 0
 1224 1401 1398 1396 1517 1396 c 0
 1630 1396 1671 1426 1708 1426 c 0
 1741 1426 1805 1298 1805 1168 c 0
 1805 1133 1776 1095 1758 1095 c 0
 1738 1095 1727 1134 1705 1183 c 0
 1677 1246 1638 1296 1555 1309 c 0
 1493 1319 1374 1319 1312 1319 c 0
 1177 1319 1155 1313 1149 1244 c 0
 1143 1180 1133 1021 1133 838 c 0
 1133 791 1145 773 1172 763 c 0
 1201 753 1247 750 1312 750 c 0
 1446 750 1505 794 1505 858 c 0
 1505 874 1503 885 1503 901 c 0
 1503 914 1510 926 1528 926 c 0
 1585 926 1595 840 1595 716 c 0
 1595 570 1575 495 1531 495 c 0
 1512 495 1503 518 1503 556 c 0
 1503 602 1484 672 1352 672 c 0
 1157 672 1150 668 1144 613 c 0
 1139 564 1137 521 1137 446 c 0
 1137 315 1143 235 1150 135 c 0
 1152 113 1155 109 1181 103 c 0
 1228 91 1336 80 1432 80 c 0
 1517 80 1574 81 1627 95 c 0
 1684 110 1730 150 1763 203 c 0
 1802 266 1808 314 1829 314 c 0
 1850 314 1882 277 1882 239 c 0
 1882 166 1774 -27 1728 -27 c 0
 1694 -27 1685 -3 1637 -3 c 0
 1520 -3 1409 -3 1324 -3 c 0
 1237 -3 1151 -1 1067 -1 c 0
948.629156321 699 m 0
 948.892906516 734.683446393 949 774.182465415 949 820 c 0
 949 911.519905754 947.495265154 983.439844535 946.479492188 1048.61035156 c 0
 946.319335938 1058.88574219 942.741210938 1065 935 1065 c 0
 907 1065 888.39698681 1020.65326913 857 974 c 2
 715 763 l 2
 698.47009812 738.437962699 673 710 673 692 c 0
 673 671 685 671 701 671 c 0
 716 671 796 684 878 684 c 0
 901.288069279 684 919.741123537 683.511475553 934.000000643 682.919956625 c 0
 948.505854608 682.318192045 948.505854608 682.318192045 948.629156321 699 c 0
EndSplineSet
EndChar

StartChar: sterling
Encoding: 163 163 208
Width: 1596
Flags: HMW
LayerCount: 2
Fore
SplineSet
344 598 m 0
 344 622 355 635 383 665 c 0
 397 680 410 688 431 688 c 0
 494 688 1055 673 1108 673 c 0
 1200 673 1219 689 1274 689 c 0
 1293 689 1306 672 1306 653 c 0
 1306 629 1298 618 1281 587 c 0
 1272 570 1258 561 1239 561 c 0
 1211 561 1162 580 1099 580 c 2
 554 580 l 2
 474 580 388 570 373 570 c 0
 359 570 344 580 344 598 c 0
1410 1510 m 0
 1510 1510 1562 1465 1562 1401 c 4
 1562 1344 1523 1301 1463 1301 c 0
 1393 1301 1354 1393 1290 1393 c 0
 1256 1393 1185.12109375 1353.62402344 1132 1176 c 0
 1004 748 882.418945312 535.578125 763 405 c 0
 664.216796875 296.986328125 611 257 568 232 c 0
 530.755859375 210.346679688 519.068359375 180.024414062 647 171 c 0
 888 154 1158 57 1320 57 c 0
 1366.13574219 57 1398 74 1398 108 c 0
 1398 142 1362 157 1362 217 c 0
 1362 271.125 1393.85742188 300 1450 300 c 0
 1507 300 1540 258 1540 194 c 0
 1540 80 1339 -84 1079 -84 c 0
 809 -84 568 27 465 67 c 0
 431.649414062 79.951171875 382 93 346 72 c 0
 280.80859375 33.9716796875 184 -13 96 -13 c 0
 68 -13 34 7 34 36 c 0
 34 114 221 200 402 208 c 0
 445.247070312 209.911132812 457 228 501 275 c 0
 560.955078125 339.041992188 577 368 634 452 c 0
 698.237304688 546.666015625 827.588867188 874.0078125 904 1036 c 0
 1004 1248 1220 1510 1410 1510 c 0
EndSplineSet
EndChar

StartChar: yen
Encoding: 165 165 209
Width: 1527
VWidth: 1920
Flags: HMW
LayerCount: 2
Fore
SplineSet
740 475 m 6
 544 475 425 471 349 471 c 4
 322 471 309 474 309 495 c 6
 309 555 l 6
 309 576 322 579 349 579 c 4
 425 579 544 576 740 576 c 6
 761 576 l 6
 987 576 1077 579 1153 579 c 4
 1180 579 1193 576 1193 555 c 6
 1193 495 l 6
 1193 474 1180 471 1153 471 c 4
 1077 471 987 475 761 475 c 6
 740 475 l 6
740 685 m 2
 544 685 425 681 349 681 c 0
 322 681 309 684 309 705 c 2
 309 765 l 2
 309 786 322 789 349 789 c 0
 425 789 544 786 740 786 c 2
 761 786 l 2
 987 786 1077 789 1153 789 c 0
 1180 789 1193 786 1193 765 c 2
 1193 705 l 2
 1193 684 1180 681 1153 681 c 0
 1077 681 987 685 761 685 c 2
 740 685 l 2
EndSplineSet
Refer: 25 89 N 1 0 0 1 0 0 2
EndChar

StartChar: brokenbar
Encoding: 166 166 210
Width: 428
VWidth: 1920
Flags: MW
LayerCount: 2
Fore
SplineSet
261 -14 m 2
 261 -90 268 -244 268 -320 c 0
 268 -347 265 -360 244 -360 c 2
 184 -360 l 2
 163 -360 160 -347 160 -320 c 0
 160 -244 167 -90 167 -14 c 2
 167 13 l 2
 167 89 160 244 160 320 c 4
 160 347 163 360 184 360 c 6
 244 360 l 6
 265 360 268 347 268 320 c 4
 268 244 261 89 261 13 c 2
 261 -14 l 2
261 1026 m 2
 261 950 268 796 268 720 c 0
 268 693 265 680 244 680 c 2
 184 680 l 2
 163 680 160 693 160 720 c 0
 160 796 167 950 167 1026 c 2
 167 1053 l 2
 167 1129 160 1284 160 1360 c 0
 160 1387 163 1400 184 1400 c 2
 244 1400 l 2
 265 1400 268 1387 268 1360 c 0
 268 1284 261 1129 261 1053 c 2
 261 1026 l 2
EndSplineSet
EndChar

StartChar: plusminus
Encoding: 177 177 211
Width: 1222
Flags: MW
LayerCount: 2
Fore
SplineSet
576 8 m 6
 330 8 246 1 170 1 c 4
 143 1 130 4 130 25 c 6
 130 85 l 6
 130 106 143 109 170 109 c 4
 246 109 330 102 576 102 c 6
 597 102 l 6
 843 102 958 109 1034 109 c 4
 1061 109 1074 106 1074 85 c 6
 1074 25 l 6
 1074 4 1061 1 1034 1 c 4
 958 1 843 8 597 8 c 6
 576 8 l 6
657 726 m 2
 657 550 664 436 664 360 c 0
 664 333 661 320 640 320 c 2
 580 320 l 2
 559 320 556 333 556 360 c 0
 556 436 563 550 563 726 c 2
 563 803 l 2
 563 979 556 1124 556 1200 c 0
 556 1227 559 1240 580 1240 c 2
 640 1240 l 2
 661 1240 664 1227 664 1200 c 0
 664 1124 657 979 657 803 c 2
 657 726 l 2
130 748 m 0
 130 772 141 785 169 815 c 0
 183 830 196 838 217 838 c 0
 280 838 841 823 894 823 c 0
 986 823 1005 839 1060 839 c 0
 1079 839 1092 822 1092 803 c 0
 1092 779 1084 768 1067 737 c 0
 1058 720 1044 711 1025 711 c 0
 997 711 948 730 885 730 c 2
 340 730 l 2
 260 730 174 720 159 720 c 0
 145 720 130 730 130 748 c 0
EndSplineSet
EndChar

StartChar: copyright
Encoding: 169 169 212
Width: 1572
Flags: MW
LayerCount: 2
Fore
SplineSet
531.200195312 700 m 0
 531.200195312 505.5 644.5 389.5 786 389.5 c 4
 913.318359375 389.5 988.203125 471.828125 1028.66601562 568.43359375 c 1
 1145.14355469 517.842773438 l 1
 1103.78027344 379.952148438 983.249023438 259 796 259 c 4
 563 259 366.400390625 431 366.400390625 700 c 0
 366.400390625 969 563 1141 796 1141 c 4
 983.416015625 1141 1114.06152344 1009.86523438 1155.35839844 871.743164062 c 1
 1028.8828125 831.153320312 l 1
 988.471679688 918.01953125 913.475585938 1010.5 786 1010.5 c 4
 644.5 1010.5 531.200195312 894.5 531.200195312 700 c 0
141.599609375 700 m 0
 141.599609375 326.5 421.5 28.5 786 28.5 c 0
 1150.5 28.5 1430.40039062 326.5 1430.40039062 700 c 0
 1430.40039062 1073.5 1150.5 1371.5 786 1371.5 c 0
 421.5 1371.5 141.599609375 1073.5 141.599609375 700 c 0
70 700 m 0
 70 1115 381 1435 786 1435 c 0
 1191 1435 1502 1115 1502 700 c 0
 1502 285 1191 -35 786 -35 c 0
 381 -35 70 285 70 700 c 0
EndSplineSet
EndChar

StartChar: registered
Encoding: 174 174 213
Width: 1572
Flags: MW
LayerCount: 2
Fore
SplineSet
70 700 m 0
 70 1115 381 1435 786 1435 c 0
 1191 1435 1502 1115 1502 700 c 0
 1502 285 1191 -35 786 -35 c 0
 381 -35 70 285 70 700 c 0
141.599609375 700 m 0
 141.599609375 326.5 421.5 28.5 786 28.5 c 0
 1150.5 28.5 1430.40039062 326.5 1430.40039062 700 c 0
 1430.40039062 1073.5 1150.5 1371.5 786 1371.5 c 0
 421.5 1371.5 141.599609375 1073.5 141.599609375 700 c 0
502 284 m 1
 502 1116 l 1
 845.758789062 1116 l 2
 1008.75878906 1116 1105.35839844 1024 1105.35839844 865 c 0
 1105.35839844 728.930664062 1040.03222656 668.11328125 948.657226562 635.528320312 c 1
 1158 284 l 1
 997 284 l 1
 816.188476562 608 l 1
 636 608 l 1
 636 284 l 1
 502 284 l 1
960.55859375 855 m 0
 960.55859375 949.5 917.258789062 995.5 815.758789062 995.5 c 2
 636 995.5 l 1
 636 718.5 l 1
 815.758789062 718.5 l 2
 917.258789062 718.5 960.55859375 760.5 960.55859375 855 c 0
EndSplineSet
EndChar

StartChar: uni00AD
Encoding: 173 173 214
Width: 569
Flags: MW
LayerCount: 2
Fore
SplineSet
64 446 m 4
 64 470 90 523 118 553 c 4
 132 568 145 576 166 576 c 4
 229 576 255 561 308 561 c 4
 400 561 419 577 474 577 c 4
 493 577 506 560 506 541 c 4
 506 517 493 478 476 447 c 4
 467 430 453 421 434 421 c 4
 384 421 312 434 176 434 c 4
 152 434 108 418 93 418 c 4
 79 418 64 428 64 446 c 4
EndSplineSet
EndChar

StartChar: logicalnot
Encoding: 172 172 215
Width: 1164
VWidth: 2048
Flags: MW
LayerCount: 2
Fore
SplineSet
556 568 m 2
 280 568 246 561 170 561 c 0
 143 561 130 564 130 585 c 2
 130 645 l 2
 130 666 143 669 170 669 c 0
 246 669 280 662 556 662 c 2
 577 662 l 2
 846 662 914 669 988 669 c 0
 1031 669 1034 658 1034 630 c 0
 1034 554 1027 485 1027 409 c 0
 1027 317 1034 281 1034 200 c 0
 1034 173 1031 160 1010 160 c 2
 950 160 l 2
 929 160 926 173 926 200 c 0
 926 276 933 334 933 410 c 0
 933 474 930 516 928 562 c 1
 865 564 775 568 577 568 c 2
 556 568 l 2
EndSplineSet
EndChar

StartChar: degree
Encoding: 176 176 217
Width: 700
VWidth: 1920
Flags: MW
LayerCount: 2
Fore
SplineSet
152 1115 m 4
 152 992.599609375 236.599609375 908 350 908 c 4
 463.400390625 908 548 992.599609375 548 1115 c 4
 548 1237.40039062 463.400390625 1322 350 1322 c 4
 236.599609375 1322 152 1237.40039062 152 1115 c 4
50 1115 m 4
 50 1285 180 1415 350 1415 c 4
 520 1415 650 1285 650 1115 c 4
 650 945 520 815 350 815 c 4
 180 815 50 945 50 1115 c 4
EndSplineSet
EndChar

StartChar: questiondown
Encoding: 191 191 218
Width: 797
VWidth: 1920
Flags: MW
LayerCount: 2
Fore
SplineSet
403 410 m 4
 449 410 475 338 475 244 c 4
 475 70 285 -117 285 -344 c 4
 285 -461 383 -520 457 -520 c 4
 511 -520 541 -498 541 -483 c 4
 541 -458 515 -450 515 -400 c 12
 515 -350 542 -285 611 -285 c 4
 670 -285 711 -341 711 -391 c 4
 711 -501 555 -626 347 -626 c 4
 189 -626 101 -513 101 -372 c 4
 101 -161 389 78 389 207 c 4
 389 296 355 328 355 360 c 4
 355 392 377 410 403 410 c 4
529 725 m 4
 529 658 482 605 409 605 c 4
 337 605 289 658 289 725 c 4
 289 792 337 845 409 845 c 4
 482 845 529 792 529 725 c 4
EndSplineSet
EndChar

StartChar: currency
Encoding: 164 164 220
Width: 1208
VWidth: 1920
Flags: MW
LayerCount: 2
Fore
SplineSet
269 695 m 0
 269 488 413 345 604 345 c 0
 795 345 938 488 938 695 c 0
 938 902 795 1045 604 1045 c 0
 413 1045 269 902 269 695 c 0
316 1060 m 1
 394 1121 494 1156 604 1156 c 0
 714 1156 813 1120 891 1059 c 1
 965 1136 1030 1202 1053 1225 c 0
 1072 1244 1083 1251 1098 1236 c 2
 1140 1194 l 2
 1155 1179 1148 1168 1129 1149 c 0
 1106 1126 1040 1062 964 988 c 1
 1028 909 1065 808 1065 695 c 0
 1065 585 1029 486 968 408 c 1
 1042 336 1106 274 1129 251 c 0
 1148 232 1155 221 1140 206 c 2
 1098 164 l 2
 1083 149 1072 156 1053 175 c 0
 1030 198 969 261 897 335 c 1
 818 272 717 234 604 234 c 0
 491 234 390 272 311 335 c 1
 238 260 177 197 155 175 c 0
 136 156 125 149 110 164 c 2
 68 206 l 2
 53 221 60 232 79 251 c 0
 101 273 164 335 239 408 c 1
 178 486 143 585 143 695 c 0
 143 808 181 909 244 988 c 1
 167 1063 102 1126 79 1149 c 0
 60 1168 53 1179 68 1194 c 2
 110 1236 l 2
 125 1251 136 1244 155 1225 c 0
 178 1202 241 1137 316 1060 c 1
EndSplineSet
EndChar

StartChar: section
Encoding: 167 167 221
Width: 797
Flags: MW
LayerCount: 2
Fore
SplineSet
128 1212 m 0
 128 1358 236 1435 410 1435 c 0
 584 1435 678 1319 678 1227 c 0
 678 1155 646 1125 594 1125 c 0
 542 1125 513 1172 513 1232 c 0
 513 1312 495 1370 389 1370 c 0
 293 1370 248 1322 248 1250 c 0
 248 1162.50878906 310.44140625 1101.421875 468.705078125 1008 c 0
 634.716796875 910.004882812 728 839.733398438 728 692 c 0
 728 550 636 484 556 460 c 0
 522.077148438 449.823242188 522.077148438 449.823242188 554.422851562 421 c 0
 624.98828125 358.120117188 668 287.211914062 668 188 c 0
 668 42 560 -35 386 -35 c 0
 212 -35 118 81 118 173 c 0
 118 245 150 275 202 275 c 0
 254 275 283 228 283 168 c 0
 283 88 301 30 407 30 c 0
 503 30 548 78 548 150 c 0
 548 237.491210938 485.55859375 298.578125 327.294921875 392 c 0
 161.283203125 489.995117188 68 560.266601562 68 708 c 0
 68 850 160 916 240 940 c 0
 274.823242188 950.447265625 274.823242188 950.447265625 250.750976562 971 c 0
 174.756835938 1035.88574219 128 1108.55859375 128 1212 c 0
482.5 500.99609375 m 0
 551 500.99609375 591 561.196338496 591 638 c 0
 591 729.368093352 568.718007944 759.52507792 441.010057301 841 c 0
 355.774495637 895.378452635 345.94140625 899.848632812 318.5 899.848632812 c 0
 244 899.848632812 185 833.681502073 185 762 c 0
 185 682.724588262 209.657562998 649.531367274 320.198583686 580 c 0
 441.292943326 503.830480826 447.9921875 500.99609375 482.5 500.99609375 c 0
EndSplineSet
EndChar

StartChar: dagger
Encoding: 8224 8224 222
Width: 912
Flags: MW
LayerCount: 2
Fore
SplineSet
242 916 m 4
 274 916 324 901 342 883 c 8
 360 865 366 838 366 792 c 0
 366 556 368.999023438 478.125976562 381 368 c 0
 398 212 424 56 428 0 c 0
 432 -56 466 -68 480 0 c 8
 494 68 518.116210938 218.091796875 526 360 c 0
 534 504 536.763671875 567.421875 552 806 c 0
 553.284179688 826.103515625 550 848 578 848 c 0
 610 848 666.573242188 826 750 826 c 0
 809 826 858 860 858 924 c 0
 858 968 830 992 788 992 c 0
 718 992 733 904 674 904 c 0
 602 904 534.149414062 925.750976562 515 952 c 0
 499.69921875 972.973632812 498 998 498 1020 c 8
 498 1042 532 1054 532 1100 c 0
 532 1138 484 1145 484 1159 c 0
 484 1173 510 1188 510 1220 c 0
 510 1252 474 1266 474 1286 c 0
 474 1296 501 1309 501 1338 c 0
 501 1358 486 1380 458 1380 c 8
 430 1380 412 1358 412 1338 c 8
 412 1318 432 1299 432 1283 c 8
 432 1267 388 1256 388 1220 c 0
 388 1184 421 1169 421 1157 c 0
 421 1145 378 1132 378 1096 c 0
 378 1050 418 1038 418 1010 c 8
 418 982 404 954 372 954 c 8
 340 954 266 990 180 990 c 8
 94 990 54 948 54 904 c 0
 54 860 84 834 128 834 c 4
 204 834 180 916 242 916 c 4
EndSplineSet
EndChar

StartChar: daggerdbl
Encoding: 8225 8225 223
Width: 912
Flags: MW
LayerCount: 2
Fore
SplineSet
472.01171875 665 m 0
 487.98046875 565.3984375 506 440.048828125 506 295 c 6
 506 267 l 6
 506 242.911132812 506 242.401367188 528 226.290039062 c 4
 541.237304688 216.595703125 557.267578125 209 575 209 c 4
 634 209 610 300 680 300 c 4
 710 300 731 280 731 245 c 4
 731 190 695 149 629 149 c 4
 593.280273438 149 556.234375 162.916992188 527 177.668945312 c 4
 490.734375 195.967773438 481 180.879882812 481 143 c 6
 481 107.734375 l 6
 481 87 501 80.6513671875 501 47 c 4
 501 13.3486328125 481 10 481 -9.734375 c 4
 481 -28 471 -38 456 -38 c 0
 441 -38 431 -28 431 -9.734375 c 0
 431 13 411 13.3486328125 411 47 c 0
 411 80.6513671875 431 86 431 107.734375 c 2
 431 139 l 2
 431 182.232421875 431 182.232421875 392 213.501953125 c 0
 375.942382812 226.376953125 352.845703125 240 327 240 c 0
 268 240 292 149 222 149 c 0
 192 149 171 169 171 204 c 0
 171 259 207 300 273 300 c 0
 307.91015625 300 344.28125 287.091796875 373 272.333007812 c 0
 397 260 406 265.927734375 406 286 c 2
 406 295 l 2
 406 440.048828125 419.01953125 565.3984375 434.98828125 665 c 0
 438.138671875 684.649414062 468.861328125 684.649414062 472.01171875 665 c 0
434.98828125 722 m 0
 419.01953125 821.6015625 406 946.951171875 406 1092 c 2
 406 1120 l 2
 406 1144.08886719 406 1144.59863281 384 1160.70996094 c 0
 370.762695312 1170.40429688 354.732421875 1178 337 1178 c 0
 278 1178 302 1087 232 1087 c 0
 202 1087 181 1107 181 1142 c 0
 181 1197 217 1238 283 1238 c 0
 318.719726562 1238 355.765625 1224.08300781 385 1209.33105469 c 0
 421.265625 1191.03222656 431 1206.12011719 431 1244 c 2
 431 1279.265625 l 2
 431 1300 411 1306.34863281 411 1340 c 0
 411 1373.65136719 431 1377 431 1396.734375 c 0
 431 1415 441 1425 456 1425 c 0
 471 1425 481 1415 481 1396.734375 c 4
 481 1374 501 1373.65136719 501 1340 c 4
 501 1306.34863281 481 1301 481 1279.265625 c 6
 481 1248 l 6
 481 1204.76757812 481 1204.76757812 520 1173.49804688 c 4
 536.057617188 1160.62304688 559.154296875 1147 585 1147 c 4
 644 1147 620 1238 690 1238 c 4
 720 1238 741 1218 741 1183 c 4
 741 1128 705 1087 639 1087 c 4
 604.08984375 1087 567.71875 1099.90820312 539 1114.66699219 c 4
 515 1127 506 1121.07226562 506 1101 c 6
 506 1092 l 6
 506 946.951171875 487.98046875 821.6015625 472.01171875 722 c 0
 468.861328125 702.350585938 438.138671875 702.350585938 434.98828125 722 c 0
EndSplineSet
EndChar

StartChar: Thorn
Encoding: 222 222 224
Width: 1267
VWidth: 1920
Flags: MW
LayerCount: 2
Fore
SplineSet
652 389 m 0
 818 389 975 463 975 673 c 0
 975 873 864 1029 662 1029 c 0
 497 1029 480 994 470 962 c 0
 463 939 457 819 457 744 c 2
 457 668 l 2
 457 616 458 469 460 444 c 0
 463 416 534 389 652 389 c 0
274 591 m 2
 274 901 l 2
 274 1248 246 1320 181 1320 c 0
 146 1320 125 1304 105 1304 c 0
 85 1304 72 1318 72 1338 c 0
 72 1372 91 1385 137 1395 c 0
 199 1408 266 1415 357 1415 c 0
 443 1415 516 1412 562 1405 c 0
 615 1397 644 1380 644 1349 c 0
 644 1332 624 1312 596 1312 c 0
 573 1312 559 1330 522 1330 c 0
 484.672856274 1330 455.17741014 1300 455.17741014 1138 c 0
 455.17741014 1109.39451303 463.353081084 1100.58396842 486 1100.58396842 c 0
 532 1100.58396842 605.117397301 1107 682 1107 c 0
 959 1107 1166 1006 1166 736 c 0
 1166 452 903 312 669 312 c 0
 528 312 490 337 473 337 c 0
 463 337 457 332 457 307 c 0
 457 269.191697981 459.040106476 158.919787049 482 113 c 0
 494 89 508 86 528 86 c 0
 572 86 589 105 618 105 c 0
 642 105 654 87 654 64 c 0
 654 30 619 16 573 7 c 0
 516 -4 444 -15 353 -15 c 0
 267 -15 195 -14 148 -5 c 0
 99 4 65 12 65 45 c 0
 65 62 81 85 109 85 c 0
 132 85 154 72 191 72 c 0
 210 72 228 82 239 108 c 0
 263 166 274 307 274 591 c 2
EndSplineSet
EndChar

StartChar: Oslash
Encoding: 216 216 225
Width: 1618
VWidth: 1920
Flags: HMW
LayerCount: 2
Fore
SplineSet
566.606445312 329.665039062 m 6
 357.057617188 79.9345703125 321.28125 26.408203125 272.4296875 -31.810546875 c 4
 255.07421875 -52.494140625 244.419921875 -60.5244140625 228.333007812 -47.025390625 c 6
 182.370117188 -8.458984375 l 6
 166.283203125 5.0400390625 172.341796875 16.9267578125 189.697265625 37.6103515625 c 4
 238.548828125 95.8291015625 285.049804688 140.356445312 494.598632812 390.086914062 c 6
 1045.46679688 1046.58691406 l 6
 1255.015625 1296.31738281 1310.71875 1373.59179688 1359.5703125 1431.81054688 c 4
 1376.92578125 1452.49414062 1387.58007812 1460.52441406 1403.66699219 1447.02539062 c 6
 1449.62988281 1408.45898438 l 6
 1465.71679688 1394.95996094 1459.65820312 1383.07324219 1442.30273438 1362.38964844 c 4
 1393.45117188 1304.17089844 1327.02441406 1235.89550781 1117.47558594 986.165039062 c 6
 566.606445312 329.665039062 l 6
EndSplineSet
Refer: 15 79 N 1 0 0 1 0 0 2
EndChar

StartChar: germandbls
Encoding: 223 223 227
Width: 1277
VWidth: 1920
Flags: HMW
LayerCount: 2
Fore
SplineSet
686 221 m 0
 740 83 811 44 895 44 c 0
 1027 44 1065 129 1065 211 c 0
 1065 308 1011.30431068 356.346529763 884 429 c 0
 686 542 595 605 595 746 c 4
 595 969 859 1056 859 1225 c 0
 859 1299 827 1414 636 1414 c 0
 428 1414 336 1347 336 1270 c 0
 336 1194 388 1180 388 894 c 2
 388 604 l 2
 388 348 397 143 414 97 c 0
 423 72 448 64 468 64 c 0
 502 64 527 82 546 82 c 0
 560 82 576 72 576 56 c 0
 576 20 503 -15 304 -15 c 0
 124 -15 62 6 62 43 c 0
 62 60 69 75 88 75 c 0
 106 75 127 57 164 57 c 0
 203 57 207 75 218 101 c 0
 242 159 258 307 258 591 c 2
 258 901 l 2
 258 1088 202 1153 202 1232 c 0
 202 1387 359 1474 636 1474 c 0
 903 1474 1016 1369 1016 1219 c 0
 1016 1036 702 949 702 800 c 0
 702 733 764.09375 689.217773438 919 607 c 0
 1111.07924034 505.052354478 1179 413 1179 283 c 0
 1179 120 1083 -21 875 -21 c 0
 747 -21 649 49 621 108 c 0
 612 126 596 168 596 213 c 0
 596 253 602 268 617 268 c 0
 654 268 675 248 686 221 c 0
EndSplineSet
EndChar

StartChar: ae
Encoding: 230 230 228
Width: 1332
VWidth: 1920
Flags: MW
LayerCount: 2
Fore
SplineSet
92 672 m 0
 92 691 97 708 106 724 c 0
 142 790 249 838 376 838 c 0
 538 838 658 768 658 574 c 2
 658 484 l 2
 658 386.786426887 631.608398438 348.720703125 605.061523438 266 c 0
 565.158203125 141.666992188 499.71875 -8 302 -8 c 4
 128 -8 48 82 48 216 c 0
 48 380 201 462 378 462 c 0
 418 462 473 452 492 452 c 0
 510 452 512 460 512 497 c 2
 512 576 l 2
 512 710 487 784 356 784 c 0
 314 784 283 767 268 741 c 0
 255 718 255 686 238 655 c 0
 220 622 193 604 158 604 c 0
 117 604 92 629 92 672 c 0
512 326 m 2
 512 369 l 2
 512 393 512 393 484 398 c 0
 465 401 443 404 420 404 c 0
 277 404 202 330 202 226 c 0
 202 138 250 65 328 65 c 0
 417 65 512 161 512 326 c 2
918 855 m 0
 1134 855 1234 652 1234 527 c 0
 1234 520 1234 481 1234 466 c 0
 1234 445 1218 440 1204 440 c 2
 710 442 l 2
 676 442 664 435 664 415 c 0
 664 402 664 364 670 337 c 0
 704 182 807 74 960 74 c 0
 1099 74 1147 181 1182 181 c 0
 1198 181 1204 174 1204 153 c 0
 1204 102 1100 -25 890 -25 c 0
 646 -25 526 142 526 386 c 0
 526 650 661 855 918 855 c 0
1058 503 m 1
 1075 503 1076 538 1076 553 c 0
 1076 657 1014 787 882 787 c 0
 776 787 713 712 678 612 c 0
 666 577 662 542 662 528 c 0
 662 505 685 505 726 505 c 2
 1058 503 l 1
EndSplineSet
EndChar

StartChar: eth
Encoding: 240 240 238
Width: 1026
Flags: MW
LayerCount: 2
Fore
SplineSet
541.66796875 1177.73339844 m 2
 463.029296875 1122.66992188 392.418945312 1068.34472656 330.1640625 1024.75292969 c 0
 308.046875 1009.26660156 295.676757812 1004.26757812 283.631835938 1021.46972656 c 2
 249.216796875 1070.61914062 l 2
 237.171875 1087.82128906 246.100585938 1097.734375 268.217773438 1113.22167969 c 0
 330.47265625 1156.81347656 405.098632812 1205.40429688 483.737304688 1260.46777344 c 2
 500.939453125 1272.51269531 l 2
 595.9609375 1339.04785156 651.581054688 1381.65527344 713.8359375 1425.24707031 c 0
 735.953125 1440.73339844 748.323242188 1445.73242188 760.368164062 1428.53027344 c 2
 794.783203125 1379.38085938 l 2
 806.828125 1362.17871094 797.899414062 1352.265625 775.782226562 1336.77832031 c 0
 713.52734375 1293.18652344 653.891601562 1256.31347656 558.870117188 1189.77832031 c 2
 541.66796875 1177.73339844 l 2
959 507 m 4
 959 123 717 -20 495 -20 c 4
 243 -20 77 164 77 413 c 4
 77 662 295 859 497 859 c 4
 566.418945312 859 619.010742188 825.513671875 647 811.237304688 c 4
 686.942773884 790.86385605 699.341796875 814.59765625 688.973632812 841 c 4
 602.626953125 1060.875 457.333762747 1254.26256189 223 1339 c 4
 195.858306972 1348.81470833 183 1360 183 1374 c 4
 183 1391 202 1407 229 1407 c 4
 287 1407 346 1378 401 1353 c 4
 713 1210 959 871 959 507 c 4
799 331 m 4
 799 580 643 779 471 779 c 4
 359 779 239 670 239 461 c 4
 239 282 370 57 542 57 c 4
 704 57 799 192 799 331 c 4
EndSplineSet
EndChar

StartChar: divide
Encoding: 247 247 245
Width: 1222
Flags: MW
LayerCount: 2
Fore
SplineSet
480 132 m 0
 480 199 529 241 586 241 c 0
 643 241 690 199 690 132 c 0
 690 66 643 23 586 23 c 0
 529 23 480 66 480 132 c 0
480 888 m 0
 480 955 529 997 586 997 c 0
 643 997 690 955 690 888 c 0
 690 822 643 779 586 779 c 0
 529 779 480 822 480 888 c 0
576 463 m 2
 330 463 246 456 170 456 c 0
 143 456 130 459 130 480 c 2
 130 540 l 2
 130 561 143 564 170 564 c 0
 246 564 330 557 576 557 c 2
 597 557 l 2
 843 557 958 564 1034 564 c 0
 1061 564 1074 561 1074 540 c 2
 1074 480 l 2
 1074 459 1061 456 1034 456 c 0
 958 456 843 463 597 463 c 2
 576 463 l 2
EndSplineSet
EndChar

StartChar: oslash
Encoding: 248 248 246
Width: 1205
VWidth: 1920
Flags: HMW
LayerCount: 2
Fore
SplineSet
514.606445312 329.665039062 m 2
 307.846679688 80.6201171875 269.28125 26.408203125 220.4296875 -31.810546875 c 0
 203.07421875 -52.494140625 192.419921875 -60.5244140625 176.333007812 -47.025390625 c 2
 130.370117188 -8.458984375 l 2
 114.283203125 5.0400390625 120.341796875 16.9267578125 137.697265625 37.6103515625 c 0
 186.548828125 95.8291015625 235.83984375 141.041015625 442.598632812 390.086914062 c 2
 529 493 l 6
 738.548828125 742.73046875 794.251953125 820.004882812 843.103515625 878.223632812 c 4
 860.458984375 898.907226562 871.11328125 906.9375 887.200195312 893.438476562 c 6
 933.163085938 854.872070312 l 6
 949.25 841.373046875 943.19140625 829.486328125 925.8359375 808.802734375 c 4
 876.984375 750.583984375 810.557617188 682.30859375 601.008789062 432.578125 c 6
 514.606445312 329.665039062 l 2
EndSplineSet
Refer: 34 111 N 1 0 0 1 0 0 2
EndChar

StartChar: thorn
Encoding: 254 254 252
Width: 1026
VWidth: 1920
Flags: MW
LayerCount: 2
Fore
SplineSet
197 194 m 2
 197 915 l 6
 197 1262 182 1308 137 1308 c 4
 102 1308 91 1292 71 1292 c 4
 51 1292 39 1303 39 1319 c 4
 39 1344 53 1361 99 1386 c 4
 155 1416 250 1437 281 1437 c 4
 311 1437 323 1422 323 1395 c 4
 323 1369 325 760 325 722 c 0
 325 682 325 663 331 664 c 0
 336 665 345 680 363 709 c 0
 420 799 503 855 597 855 c 0
 839 855 940 685 940 438 c 0
 940 197 775 -23 545 -23 c 0
 488 -23 420 -3 379 23 c 0
 354 39 348 41 341 41 c 0
 329 41 329 9 329 -13 c 0
 329 -173 331 -214 343 -247 c 0
 355 -281 376 -297 407 -297 c 0
 422 -297 432 -292 447 -292 c 0
 468 -292 481 -305 481 -324 c 0
 481 -352 453 -364 385 -364 c 0
 346 -364 294 -360 235 -352 c 0
 98 -334 45 -312 45 -276 c 0
 45 -258 58 -247 77 -247 c 0
 102 -247 112 -266 137 -266 c 0
 168 -266 172 -232 175 -206 c 0
 181 -144 197 10 197 194 c 2
559 44 m 0
 698 44 805 210 805 395 c 0
 805 570 712 737 551 737 c 0
 418 737 326 592 326 388 c 2
 326 228 l 2
 326 124 399 44 559 44 c 0
EndSplineSet
EndChar

StartChar: dcroat
Encoding: 273 273 270
Width: 1346
VWidth: 1920
Flags: HMW
LayerCount: 2
Fore
SplineSet
741 1055 m 6
 645 1055 556 1051 480 1051 c 4
 453 1051 440 1054 440 1075 c 6
 440 1135 l 6
 440 1156 453 1159 480 1159 c 4
 556 1159 645 1156 741 1156 c 6
 762 1156 l 6
 878 1156 948 1159 1024 1159 c 4
 1051 1159 1064 1156 1064 1135 c 6
 1064 1075 l 6
 1064 1054 1051 1051 1024 1051 c 4
 948 1051 878 1055 762 1055 c 6
 741 1055 l 6
EndSplineSet
Refer: 36 100 N 1 0 0 1 0 0 2
EndChar

StartChar: Hbar
Encoding: 294 294 291
Width: 1598
VWidth: 1920
Flags: HMW
LayerCount: 2
Fore
SplineSet
348 1015 m 6
 252 1015 163 1011 87 1011 c 4
 60 1011 47 1014 47 1035 c 6
 47 1095 l 6
 47 1116 60 1119 87 1119 c 4
 163 1119 252 1116 348 1116 c 6
 1229 1116 l 6
 1345 1116 1415 1119 1491 1119 c 4
 1518 1119 1531 1116 1531 1095 c 6
 1531 1035 l 6
 1531 1014 1518 1011 1491 1011 c 4
 1415 1011 1345 1015 1229 1015 c 6
 348 1015 l 6
EndSplineSet
Refer: 8 72 N 1 0 0 1 0 0 2
EndChar

StartChar: hbar
Encoding: 295 295 292
Width: 1372
VWidth: 1920
Flags: HMW
LayerCount: 2
Fore
SplineSet
282 1055 m 6
 186 1055 97 1051 21 1051 c 4
 -6 1051 -19 1054 -19 1075 c 6
 -19 1135 l 6
 -19 1156 -6 1159 21 1159 c 4
 97 1159 186 1156 282 1156 c 6
 303 1156 l 6
 419 1156 489 1159 565 1159 c 4
 592 1159 605 1156 605 1135 c 6
 605 1075 l 6
 605 1054 592 1051 565 1051 c 4
 489 1051 419 1055 303 1055 c 6
 282 1055 l 6
EndSplineSet
Refer: 42 104 N 1 0 0 1 0 0 2
EndChar

